<svg width="435" height="562" viewBox="0 0 435 562" fill="none" xmlns="http://www.w3.org/2000/svg">
    <path d="M169.389 504.381C139.029 487.932 119.965 442.219 121.683 405.229C144.954 422.479 171.415 423.183 198.015 420.673C239.078 416.796 277.382 404.866 309.629 377.604C313.318 374.484 316.517 370.76 320.416 366.824C326.362 375.977 329.78 385.861 331.14 396.45C334.458 422.236 326.822 444.698 310.659 464.311C304.197 472.156 297.118 479.493 290.312 487.067C269.404 510.345 267.572 531.983 284.254 558.633C284.656 559.288 285.033 559.944 285.97 561.542C271.696 558.991 260.23 552.958 250.339 543.732C239.895 533.998 233.1 522.043 229.444 508.184C227.662 501.441 225.96 494.614 223.388 488.169C217.112 472.459 207.665 467.079 193.185 470.244C178.325 473.492 168.93 485.527 169.418 500.671C169.457 501.832 169.386 503.008 169.363 504.375L169.389 504.381Z" fill="url(#paint0_linear_253_412)"/>
    <path d="M0.788086 429.281C0.788086 429.281 65.0995 375.344 138.513 357.04L151.128 171.838C151.134 163.032 155.779 155.89 162.61 154.187C169.441 152.484 176.896 156.609 181.035 164.381L279.122 321.982C366.068 300.304 434.64 321.11 434.64 321.11C434.64 321.11 225.779 13.1596 225.366 12.5401C219.299 3.40864 211.664 -1.54326 203.541 0.481995L54.3232 37.6862C46.2003 39.7115 42.0276 47.6073 40.7144 58.579C40.6117 59.3133 0.788086 429.281 0.788086 429.281Z" fill="url(#paint1_linear_253_412)"/>
    <defs>
    <linearGradient id="paint0_linear_253_412" x1="163.448" y1="592.09" x2="374.107" y2="419.809" gradientUnits="userSpaceOnUse">
    <stop stop-color="#D83333"/>
    <stop offset="0.515" stop-color="#E43A9C"/>
    <stop offset="1" stop-color="#F041FF"/>
    </linearGradient>
    <linearGradient id="paint1_linear_253_412" x1="0.789026" y1="429.281" x2="424.213" y2="53.236" gradientUnits="userSpaceOnUse">
    <stop stop-color="#D83333"/>
    <stop offset="0.515" stop-color="#E43A9C"/>
    <stop offset="1" stop-color="#F041FF"/>
    </linearGradient>
    </defs>
</svg>
