<svg width="861" height="888" viewBox="0 0 861 888" fill="none" xmlns="http://www.w3.org/2000/svg">
<mask id="mask0_289_771" style="mask-type:alpha" maskUnits="userSpaceOnUse" x="0" y="0" width="861" height="888">
<path fill-rule="evenodd" clip-rule="evenodd" d="M610.551 884.204C624.112 889.681 639.575 889.331 653.262 882.502L830.527 794.075C849.154 784.783 861 765.239 861 743.799V144.204C861 122.763 849.155 103.22 830.528 93.9278L653.262 5.49737C635.299 -3.46332 614.277 -1.26851 598.511 10.6137C596.26 12.3111 594.114 14.2063 592.101 16.2948L252.747 337.257L104.932 220.934C91.1713 210.106 71.9248 210.993 59.1449 223.045L11.7357 267.754C-3.89647 282.495 -3.91439 307.991 11.6969 322.757L139.888 444L11.6969 565.243C-3.91439 580.008 -3.89647 605.505 11.7357 620.246L59.1449 664.955C71.9248 677.007 91.1713 677.894 104.932 667.065L252.747 550.743L592.101 871.704C597.469 877.273 603.773 881.467 610.551 884.204ZM645.881 241.369L388.389 444L645.881 646.63V241.369Z" fill="white"/>
</mask>
<g mask="url(#mask0_289_771)">
<path d="M830.533 94.0677L653.128 5.51573C632.593 -4.73415 608.053 -0.410528 591.938 16.2965L11.1809 565.245C-4.43998 580.01 -4.42202 605.506 11.2196 620.248L58.6576 664.956C71.4453 677.008 90.7039 677.895 104.472 667.067L803.837 117.041C827.3 98.5878 861 115.936 861 146.468V144.333C861 122.901 849.158 103.365 830.533 94.0677Z" fill="#0065A9"/>
<g filter="url(#filter0_d_289_771)">
<path d="M830.533 793.935L653.128 882.487C632.593 892.739 608.053 888.414 591.938 871.707L11.1811 322.758C-4.43974 307.993 -4.42178 282.497 11.2199 267.755L58.6579 223.047C71.4455 210.995 90.7041 210.108 104.472 220.936L803.838 770.962C827.301 789.415 861 772.066 861 741.536V743.671C861 765.101 849.158 784.638 830.533 793.935Z" fill="#007ACC"/>
</g>
<g filter="url(#filter1_d_289_771)">
<path d="M653.136 882.502C632.595 892.747 608.055 888.413 591.938 871.705C611.796 892.292 645.75 877.711 645.75 848.597V39.4028C645.75 10.2885 611.796 -4.29214 591.938 16.2948C608.055 -0.413712 632.595 -4.74344 653.136 5.49737L830.51 93.928C849.148 103.22 861 122.764 861 144.204V743.799C861 765.24 849.148 784.783 830.509 794.075L653.136 882.502Z" fill="#1F9CF0"/>
</g>
<g style="mix-blend-mode:overlay" opacity="0.25">
<path fill-rule="evenodd" clip-rule="evenodd" d="M610.028 884.205C623.589 889.681 639.052 889.33 652.739 882.503L830.004 794.075C848.631 784.783 860.476 765.24 860.476 743.799V144.204C860.476 122.763 848.632 103.22 830.005 93.9276L652.739 5.4975C634.776 -3.4632 613.753 -1.26839 597.988 10.6138C595.736 12.3112 593.59 14.2064 591.577 16.2949L252.224 337.257L104.408 220.935C90.6486 210.106 71.4013 210.994 58.6215 223.045L11.2123 267.754C-4.41991 282.496 -4.43783 307.991 11.1735 322.757L139.364 444L11.1735 565.244C-4.43783 580.009 -4.41991 605.504 11.2123 620.246L58.6215 664.954C71.4013 677.006 90.6486 677.894 104.408 667.065L252.224 550.742L591.577 871.705C596.946 877.273 603.249 881.467 610.028 884.205ZM645.357 241.369L387.866 444L645.357 646.631V241.369Z" fill="url(#paint0_linear_289_771)"/>
</g>
<mask id="mask1_289_771" style="mask-type:alpha" maskUnits="userSpaceOnUse" x="0" y="0" width="861" height="888">
<path fill-rule="evenodd" clip-rule="evenodd" d="M610.551 884.204C624.112 889.681 639.575 889.331 653.262 882.502L830.527 794.075C849.154 784.783 861 765.239 861 743.799V144.204C861 122.763 849.155 103.22 830.528 93.9278L653.262 5.49737C635.299 -3.46332 614.277 -1.26851 598.511 10.6137C596.26 12.3111 594.114 14.2063 592.101 16.2948L252.747 337.257L104.932 220.934C91.1713 210.106 71.9248 210.993 59.1449 223.045L11.7357 267.754C-3.89647 282.495 -3.91439 307.991 11.6969 322.757L139.888 444L11.6969 565.243C-3.91439 580.008 -3.89647 605.505 11.7357 620.246L59.1449 664.955C71.9248 677.007 91.1713 677.894 104.932 667.065L252.747 550.743L592.101 871.704C597.469 877.273 603.773 881.467 610.551 884.204ZM645.881 241.369L388.389 444L645.881 646.63V241.369Z" fill="white"/>
</mask>
<g mask="url(#mask1_289_771)">
<path d="M830.533 94.0677L653.128 5.51573C632.594 -4.73415 608.053 -0.410528 591.938 16.2965L11.1814 565.245C-4.4395 580.01 -4.42154 605.506 11.2201 620.248L58.6581 664.956C71.4458 677.008 90.7044 677.895 104.473 667.067L803.838 117.041C827.301 98.5878 861.001 115.936 861.001 146.468V144.333C861.001 122.901 849.158 103.365 830.533 94.0677Z" fill="#0065A9"/>
<g filter="url(#filter2_d_289_771)">
<path d="M830.534 793.935L653.129 882.487C632.595 892.739 608.054 888.414 591.939 871.707L11.1824 322.758C-4.43852 307.993 -4.42056 282.497 11.2211 267.755L58.6591 223.047C71.4468 210.995 90.7053 210.108 104.474 220.936L803.839 770.962C827.302 789.415 861.001 772.066 861.001 741.536V743.671C861.001 765.101 849.159 784.638 830.534 793.935Z" fill="#007ACC"/>
</g>
<g filter="url(#filter3_d_289_771)">
<path d="M653.137 882.502C632.596 892.747 608.056 888.413 591.938 871.705C611.797 892.292 645.751 877.711 645.751 848.597V39.4028C645.751 10.2885 611.797 -4.29214 591.938 16.2948C608.056 -0.413712 632.596 -4.74344 653.137 5.49737L830.51 93.928C849.148 103.22 861.001 122.764 861.001 144.204V743.799C861.001 765.24 849.148 784.783 830.51 794.075L653.137 882.502Z" fill="#1F9CF0"/>
</g>
<g style="mix-blend-mode:overlay" opacity="0.25">
<path fill-rule="evenodd" clip-rule="evenodd" d="M610.029 884.205C623.589 889.681 639.053 889.33 652.739 882.503L830.005 794.075C848.631 784.783 860.477 765.24 860.477 743.799V144.204C860.477 122.763 848.632 103.22 830.005 93.9276L652.739 5.4975C634.777 -3.4632 613.754 -1.26839 597.988 10.6138C595.737 12.3112 593.591 14.2064 591.578 16.2949L252.225 337.257L104.409 220.935C90.6493 210.106 71.4021 210.994 58.6222 223.045L11.213 267.754C-4.41918 282.496 -4.4371 307.991 11.1743 322.757L139.365 444L11.1743 565.244C-4.4371 580.009 -4.41918 605.504 11.213 620.246L58.6222 664.954C71.4021 677.006 90.6493 677.894 104.409 667.065L252.225 550.742L591.578 871.705C596.947 877.273 603.25 881.467 610.029 884.205ZM645.358 241.369L387.867 444L645.358 646.631V241.369Z" fill="url(#paint1_linear_289_771)"/>
</g>
</g>
</g>
<defs>
<filter id="filter0_d_289_771" x="-8.85629" y="205.041" width="878.19" height="691.286" filterUnits="userSpaceOnUse" color-interpolation-filters="sRGB">
<feFlood flood-opacity="0" result="BackgroundImageFix"/>
<feColorMatrix in="SourceAlpha" type="matrix" values="0 0 0 0 0 0 0 0 0 0 0 0 0 0 0 0 0 0 127 0" result="hardAlpha"/>
<feOffset/>
<feGaussianBlur stdDeviation="4.16667"/>
<feColorMatrix type="matrix" values="0 0 0 0 0 0 0 0 0 0 0 0 0 0 0 0 0 0 0.25 0"/>
<feBlend mode="overlay" in2="BackgroundImageFix" result="effect1_dropShadow_289_771"/>
<feBlend mode="normal" in="SourceGraphic" in2="effect1_dropShadow_289_771" result="shape"/>
</filter>
<filter id="filter1_d_289_771" x="583.604" y="-8.33334" width="285.729" height="904.668" filterUnits="userSpaceOnUse" color-interpolation-filters="sRGB">
<feFlood flood-opacity="0" result="BackgroundImageFix"/>
<feColorMatrix in="SourceAlpha" type="matrix" values="0 0 0 0 0 0 0 0 0 0 0 0 0 0 0 0 0 0 127 0" result="hardAlpha"/>
<feOffset/>
<feGaussianBlur stdDeviation="4.16667"/>
<feColorMatrix type="matrix" values="0 0 0 0 0 0 0 0 0 0 0 0 0 0 0 0 0 0 0.25 0"/>
<feBlend mode="overlay" in2="BackgroundImageFix" result="effect1_dropShadow_289_771"/>
<feBlend mode="normal" in="SourceGraphic" in2="effect1_dropShadow_289_771" result="shape"/>
</filter>
<filter id="filter2_d_289_771" x="-8.85507" y="205.041" width="878.19" height="691.286" filterUnits="userSpaceOnUse" color-interpolation-filters="sRGB">
<feFlood flood-opacity="0" result="BackgroundImageFix"/>
<feColorMatrix in="SourceAlpha" type="matrix" values="0 0 0 0 0 0 0 0 0 0 0 0 0 0 0 0 0 0 127 0" result="hardAlpha"/>
<feOffset/>
<feGaussianBlur stdDeviation="4.16667"/>
<feColorMatrix type="matrix" values="0 0 0 0 0 0 0 0 0 0 0 0 0 0 0 0 0 0 0.25 0"/>
<feBlend mode="overlay" in2="BackgroundImageFix" result="effect1_dropShadow_289_771"/>
<feBlend mode="normal" in="SourceGraphic" in2="effect1_dropShadow_289_771" result="shape"/>
</filter>
<filter id="filter3_d_289_771" x="583.605" y="-8.33334" width="285.729" height="904.668" filterUnits="userSpaceOnUse" color-interpolation-filters="sRGB">
<feFlood flood-opacity="0" result="BackgroundImageFix"/>
<feColorMatrix in="SourceAlpha" type="matrix" values="0 0 0 0 0 0 0 0 0 0 0 0 0 0 0 0 0 0 127 0" result="hardAlpha"/>
<feOffset/>
<feGaussianBlur stdDeviation="4.16667"/>
<feColorMatrix type="matrix" values="0 0 0 0 0 0 0 0 0 0 0 0 0 0 0 0 0 0 0.25 0"/>
<feBlend mode="overlay" in2="BackgroundImageFix" result="effect1_dropShadow_289_771"/>
<feBlend mode="normal" in="SourceGraphic" in2="effect1_dropShadow_289_771" result="shape"/>
</filter>
<linearGradient id="paint0_linear_289_771" x1="429.976" y1="0.000117009" x2="429.976" y2="888" gradientUnits="userSpaceOnUse">
<stop stop-color="white"/>
<stop offset="1" stop-color="white" stop-opacity="0"/>
</linearGradient>
<linearGradient id="paint1_linear_289_771" x1="429.977" y1="0.000117009" x2="429.977" y2="888" gradientUnits="userSpaceOnUse">
<stop stop-color="white"/>
<stop offset="1" stop-color="white" stop-opacity="0"/>
</linearGradient>
</defs>
</svg>
