<svg width="240" height="240" viewBox="0 0 240 240" fill="none" xmlns="http://www.w3.org/2000/svg">
<g clip-path="url(#clip0_1065_25)">
<path d="M122 3C122 3 200 94.3889 200 159.667C200 205.361 167.5 238 122 238C76.5 238 44 205.361 44 159.667C44 94.3889 122 3 122 3Z" fill="url(#paint0_linear_1065_25)"/>
<mask id="mask0_1065_25" style="mask-type:alpha" maskUnits="userSpaceOnUse" x="44" y="3" width="156" height="235">
<path d="M121.944 3C121.944 3 199.888 94.2316 199.888 159.397C199.888 205.013 167.411 237.595 121.944 237.595C76.4766 237.595 44 205.013 44 159.397C44 94.2316 121.944 3 121.944 3Z" fill="url(#paint1_linear_1065_25)"/>
</mask>
<g mask="url(#mask0_1065_25)">
<path opacity="0.6" d="M98 202C127.823 202 152 165.511 152 120.5C152 75.4888 127.823 39 98 39C68.1766 39 44 75.4888 44 120.5C44 165.511 68.1766 202 98 202Z" fill="url(#paint2_linear_1065_25)"/>
</g>
<path d="M87.9716 183.375C86.9375 183.375 86.0511 183.011 85.3125 182.284C84.5739 181.557 84.2102 180.67 84.2216 179.625C84.2102 178.602 84.5739 177.727 85.3125 177C86.0511 176.273 86.9375 175.909 87.9716 175.909C88.9716 175.909 89.8409 176.273 90.5795 177C91.3295 177.727 91.7102 178.602 91.7216 179.625C91.7102 180.318 91.5284 180.949 91.1761 181.517C90.8352 182.085 90.3807 182.54 89.8125 182.881C89.2557 183.21 88.642 183.375 87.9716 183.375ZM127.053 148.091V183H121.428L104.979 159.222H104.689V183H98.3651V148.091H104.024L120.456 171.886H120.763V148.091H127.053ZM133.943 183V148.091H156.648V153.392H140.267V162.869H155.472V168.17H140.267V177.699H156.784V183H133.943ZM161.565 153.392V148.091H189.418V153.392H178.628V183H172.355V153.392H161.565Z" fill="white"/>
</g>
<defs>
<linearGradient id="paint0_linear_1065_25" x1="122" y1="-7.44444" x2="122" y2="249.75" gradientUnits="userSpaceOnUse">
<stop stop-color="#6366F1"/>
<stop offset="0.5" stop-color="#4F46E5"/>
<stop offset="1" stop-color="#4338CA"/>
</linearGradient>
<linearGradient id="paint1_linear_1065_25" x1="44" y1="3" x2="44" y2="23462.5" gradientUnits="userSpaceOnUse">
<stop stop-color="#6366F1"/>
<stop offset="0.5" stop-color="#4F46E5"/>
<stop offset="1" stop-color="#4338CA"/>
</linearGradient>
<linearGradient id="paint2_linear_1065_25" x1="40.4" y1="120.5" x2="170" y2="120.5" gradientUnits="userSpaceOnUse">
<stop stop-color="white" stop-opacity="0.4"/>
<stop offset="1" stop-color="white" stop-opacity="0"/>
</linearGradient>
<clipPath id="clip0_1065_25">
<rect width="240" height="240" fill="white"/>
</clipPath>
</defs>
</svg>
