<svg width="143" height="271" viewBox="0 0 143 271" fill="none" xmlns="http://www.w3.org/2000/svg">
<path d="M12.5664 201.684V138.309C25.2617 138.309 36.1289 137.648 45.168 136.328C54.3086 135.008 61.7734 132.215 67.5625 127.949C73.4531 123.684 77.7695 117.234 80.5117 108.602C83.3555 99.9687 84.7773 88.3906 84.7773 73.8672C84.7773 67.2656 83.9141 61.4766 82.1875 56.5C80.5625 51.5234 76.7031 49.0352 70.6094 49.0352C66.2422 49.0352 63.043 50.457 61.0117 53.3008C58.9805 56.043 57.6602 59.5977 57.0508 63.9648C56.543 68.2305 56.2891 72.6992 56.2891 77.3711V99.6133H0.53125V60.918C0.53125 40.4023 7.03125 25.2188 20.0312 15.3672C33.1328 5.41406 49.9922 0.4375 70.6094 0.4375C88.6875 0.4375 102.906 3.6875 113.266 10.1875C123.727 16.6875 131.141 26.1836 135.508 38.6758C139.977 51.0664 142.211 66.25 142.211 84.2266C142.211 101.797 139.316 117.488 133.527 131.301C127.84 145.113 119.156 155.98 107.477 163.902C95.7969 171.824 81.0703 175.785 63.2969 175.785V201.684H12.5664ZM10.8906 270.848V225.449H65.4297V270.848H10.8906Z" fill="#FFFFE3"/>
</svg>
