<svg width="243" height="288" viewBox="0 0 243 288" fill="none" xmlns="http://www.w3.org/2000/svg">
<path d="M66.584 4.79199C66.584 5.64532 66.84 6.15732 67.352 6.32799C67.864 6.15732 67.9493 5.90132 67.608 5.55998C67.2667 5.21865 66.9253 4.96266 66.584 4.79199C67.4373 3.76799 68.4613 3.17065 69.656 3C70.8507 2.82933 72.1307 2.91465 73.496 3.25598C74.8613 3.42666 76.2267 3.68266 77.592 4.02399C78.9573 4.36533 80.2373 4.62133 81.432 4.79199V5.55998C81.7733 5.55998 81.8587 5.47465 81.688 5.30399C81.688 4.96266 81.6027 4.79199 81.432 4.79199V3.51199C86.8933 5.55999 91.3307 8.71732 94.744 12.984C98.1573 17.08 101.571 21.2613 104.984 25.528C105.496 27.4053 105.752 28.7707 105.752 29.624C105.923 30.3067 106.435 31.416 107.288 32.952H106.52C106.52 32.44 106.264 32.184 105.752 32.184C105.411 32.696 105.667 32.952 106.52 32.952C106.179 33.8053 106.435 34.3173 107.288 34.488C106.947 36.536 107.629 37.4747 109.336 37.304C108.995 37.816 108.653 38.4133 108.312 39.096C108.141 39.608 107.8 40.0347 107.288 40.376C107.288 41.2293 107.459 41.656 107.8 41.656C108.141 41.4853 108.483 41.4 108.824 41.4C109.165 41.2293 109.421 41.144 109.592 41.144C109.933 41.144 110.104 41.5707 110.104 42.424C108.739 42.2533 107.8 42.5093 107.288 43.192C106.947 43.704 106.691 44.3867 106.52 45.24C106.349 45.9227 106.093 46.6907 105.752 47.544C105.581 48.3973 105.069 48.9093 104.216 49.08C104.557 47.3733 104.899 45.752 105.24 44.216C105.752 42.68 105.923 40.888 105.752 38.84C104.899 40.888 104.131 43.0213 103.448 45.24C102.765 47.4587 101.827 49.5067 100.632 51.384C101.656 54.456 102.68 57.528 103.704 60.6C104.899 63.5013 105.837 66.8293 106.52 70.584C105.837 70.584 105.496 70.2427 105.496 69.56C105.667 68.8773 105.496 68.4507 104.984 68.28C104.643 67.768 104.472 67.6827 104.472 68.024C104.472 68.1947 104.643 68.28 104.984 68.28C104.472 69.816 104.728 71.6933 105.752 73.912C106.947 75.96 107.715 78.008 108.056 80.056C109.08 79.7147 109.165 79.1173 108.312 78.264C107.629 77.4107 107.544 76.5573 108.056 75.704C108.909 76.216 109.336 77.0693 109.336 78.264C109.507 79.288 110.019 80.1413 110.872 80.824C112.237 80.4827 113.603 80.2267 114.968 80.056C116.333 79.8853 117.955 79.8853 119.832 80.056C123.416 73.912 127 67.8533 130.584 61.88C134.339 55.9067 138.093 49.9333 141.848 43.96C140.824 42.0827 139.715 40.376 138.52 38.84C137.496 37.1333 136.643 35.1707 135.96 32.952C135.107 32.952 135.021 33.208 135.704 33.72C136.387 34.232 136.472 34.9147 135.96 35.768C134.083 34.0613 132.973 32.0133 132.632 29.624C132.461 27.2347 132.376 24.6747 132.376 21.944C132.717 20.7493 132.888 19.5547 132.888 18.36C133.059 17.1653 133.827 16.1413 135.192 15.288C135.533 15.288 135.789 15.2027 135.96 15.032C136.131 14.6907 136.387 14.52 136.728 14.52C136.728 15.2027 136.557 15.7147 136.216 16.056C135.875 16.2266 135.789 16.6533 135.96 17.336C135.619 17.336 135.448 17.5067 135.448 17.848C135.448 18.1893 135.363 18.5307 135.192 18.872C134.68 19.2133 134.509 19.4693 134.68 19.64C135.021 19.64 135.192 19.384 135.192 18.872C135.533 18.872 135.704 18.7013 135.704 18.36C135.704 18.0187 135.789 17.6773 135.96 17.336C136.813 16.9947 137.325 16.4827 137.496 15.8C137.837 14.9467 138.349 14.264 139.032 13.752C140.227 12.8987 141.421 11.6187 142.616 9.91199C143.128 10.2533 143.384 10.0827 143.384 9.39999C144.408 9.39999 145.091 8.88799 145.432 7.86398C146.627 7.86398 147.395 7.35198 147.736 6.32799H149.272C149.101 5.81598 148.76 5.64532 148.248 5.81599C147.907 5.81599 147.736 5.98666 147.736 6.32799C146.712 6.32799 145.944 6.83999 145.432 7.86398H144.152C144.664 6.49866 145.688 5.64532 147.224 5.30399C148.76 4.79199 150.125 4.19466 151.32 3.51199H152.088C152.088 2.99999 151.917 2.82933 151.576 3C151.405 3 151.32 3.17066 151.32 3.51199C150.979 3.51199 150.723 3.42666 150.552 3.25598C150.552 2.91465 150.381 2.74399 150.04 2.74399C152.771 1.54933 155.075 1.80533 156.952 3.51199C159 5.21866 160.877 6.66932 162.584 7.86398C163.096 7.86398 163.437 7.60799 163.608 7.09599C163.949 6.58399 164.12 6.07199 164.12 5.55998C164.12 5.04799 163.949 4.62132 163.608 4.27998C163.267 3.76799 162.669 3.68266 161.816 4.02399C162.328 3.34133 163.096 2.91466 164.12 2.74399C165.144 2.57331 166.083 2.31731 166.936 1.97598C170.52 4.02399 174.019 6.24266 177.432 8.63199C181.016 10.8507 184.344 13.4107 187.416 16.312C190.488 19.0427 193.133 22.1147 195.352 25.528C197.571 28.9413 199.192 32.6107 200.216 36.536C199.875 41.144 198.595 44.984 196.376 48.056C194.328 50.9573 191.768 53.3467 188.696 55.224C185.624 56.9307 182.296 58.2107 178.712 59.064C175.128 59.7467 171.715 60.088 168.472 60.088C166.083 62.4773 163.949 65.1227 162.072 68.024C160.365 70.9253 158.573 73.7413 156.696 76.472C161.816 76.1307 166.595 75.7893 171.032 75.448C175.64 74.936 180.248 74.5093 184.856 74.168C189.635 73.656 194.584 73.3147 199.704 73.144C204.824 72.8027 210.371 72.632 216.344 72.632C215.832 73.144 215.576 73.912 215.576 74.936C215.576 75.7893 215.661 76.6427 215.832 77.496C216.173 78.1787 216.6 78.776 217.112 79.288C217.624 79.6293 218.136 79.6293 218.648 79.288C218.477 80.1413 218.051 80.6533 217.368 80.824C216.856 80.9947 216.515 81.5067 216.344 82.36C216.856 82.1893 217.368 82.104 217.88 82.104C218.563 82.104 218.819 81.6773 218.648 80.824C219.501 81.1653 220.099 82.1893 220.44 83.896C220.952 85.6027 220.781 86.7973 219.928 87.48C220.269 86.2853 220.099 85.5173 219.416 85.176C218.904 84.8347 218.819 84.152 219.16 83.128C218.307 83.4693 218.051 84.2373 218.392 85.432C218.904 86.6267 219.416 87.3093 219.928 87.48C220.099 88.1627 220.013 88.6747 219.672 89.016C219.331 89.1867 219.16 89.6133 219.16 90.296C218.648 91.1493 218.307 91.832 218.136 92.344C218.136 92.856 218.221 93.368 218.392 93.88C218.563 94.392 218.648 94.9893 218.648 95.672C218.819 96.184 218.819 96.8667 218.648 97.72C217.624 97.72 217.197 97.8907 217.368 98.232C217.539 98.5733 217.965 98.6587 218.648 98.488V100.024C218.136 100.707 217.539 101.304 216.856 101.816C216.344 102.157 216.173 103.011 216.344 104.376C215.832 104.376 215.576 104.632 215.576 105.144C215.064 105.315 214.808 105.741 214.808 106.424C214.979 106.936 214.979 107.533 214.808 108.216H214.04C213.869 107.533 213.699 107.363 213.528 107.704C213.528 108.045 213.699 108.216 214.04 108.216C214.211 108.557 214.381 108.728 214.552 108.728C214.723 108.557 214.808 108.387 214.808 108.216C215.661 108.045 216.088 107.619 216.088 106.936C216.259 106.253 216.088 105.656 215.576 105.144C216.088 105.315 216.344 105.059 216.344 104.376H217.88C218.051 105.741 218.051 107.021 217.88 108.216C217.709 109.24 217.453 110.179 217.112 111.032C216.771 111.032 216.6 111.203 216.6 111.544C216.6 111.885 216.515 112.227 216.344 112.568C216.685 112.568 216.856 112.397 216.856 112.056C216.856 111.715 216.941 111.373 217.112 111.032H219.16C218.819 110.861 218.648 110.435 218.648 109.752C218.648 109.069 218.648 108.387 218.648 107.704C218.648 106.851 218.648 106.168 218.648 105.656C218.648 104.973 218.392 104.547 217.88 104.376C217.88 104.035 217.965 103.779 218.136 103.608C218.307 103.437 218.477 103.181 218.648 102.84C219.331 104.035 219.757 105.485 219.928 107.192C220.099 108.899 220.099 110.691 219.928 112.568C219.416 112.397 218.989 112.227 218.648 112.056C218.477 111.885 218.221 112.056 217.88 112.568C218.051 113.421 218.221 114.445 218.392 115.64C218.563 116.664 218.648 117.688 218.648 118.712C218.648 119.736 218.392 120.675 217.88 121.528C217.539 122.211 216.771 122.637 215.576 122.808C215.747 123.661 216.344 124.003 217.368 123.832C218.392 123.491 218.989 123.661 219.16 124.344C217.283 124.173 216.429 124.771 216.6 126.136C216.771 127.331 216.685 128.952 216.344 131C215.491 130.829 215.235 130.147 215.576 128.952C215.917 127.757 215.917 126.733 215.576 125.88C214.552 126.221 214.125 126.563 214.296 126.904C214.637 127.245 214.808 127.843 214.808 128.696C213.955 127.672 213.443 126.392 213.272 124.856C213.101 123.149 213.016 121.443 213.016 119.736C213.187 117.859 213.443 116.067 213.784 114.36C214.125 112.653 214.467 111.288 214.808 110.264C213.784 110.605 213.187 110.52 213.016 110.008C212.845 109.496 212.845 108.813 213.016 107.96C213.187 106.936 213.357 105.827 213.528 104.632C213.869 103.267 214.04 101.987 214.04 100.792C213.699 102.328 213.357 103.096 213.016 103.096C212.845 103.096 212.675 102.84 212.504 102.328C212.504 101.645 212.419 100.963 212.248 100.28C212.248 99.4267 212.163 98.8293 211.992 98.488C211.309 101.219 210.968 104.205 210.968 107.448C210.968 110.52 211.053 113.763 211.224 117.176C211.565 120.419 211.907 123.747 212.248 127.16C212.76 130.403 213.101 133.389 213.272 136.12C214.125 135.779 214.381 134.84 214.04 133.304C213.869 131.768 213.869 130.488 214.04 129.464C214.552 129.805 214.893 130.317 215.064 131C215.235 131.683 215.661 132.195 216.344 132.536C215.32 132.877 214.808 133.56 214.808 134.584C215.832 134.413 216.344 133.731 216.344 132.536C217.197 132.195 217.709 131.768 217.88 131.256C218.051 130.744 218.136 130.232 218.136 129.72C218.136 129.037 218.051 128.44 217.88 127.928C217.88 127.245 218.136 126.563 218.648 125.88C219.501 126.733 219.672 127.928 219.16 129.464C218.648 130.829 218.904 132.024 219.928 133.048C219.928 134.584 220.013 135.267 220.184 135.096C220.525 134.925 221.208 134.755 222.232 134.584C222.232 135.096 222.061 135.437 221.72 135.608C221.379 135.779 221.293 136.205 221.464 136.888C220.099 136.717 219.672 136.888 220.184 137.4C220.696 137.741 220.867 138.253 220.696 138.936C221.208 138.936 221.464 138.68 221.464 138.168C221.464 137.656 221.464 137.229 221.464 136.888C222.317 133.645 222.659 130.147 222.488 126.392C222.488 122.467 222.232 118.627 221.72 114.872C221.379 110.947 221.037 107.192 220.696 103.608C220.355 99.8533 220.355 96.44 220.696 93.368C221.379 93.368 221.635 93.112 221.464 92.6C221.976 94.4773 222.403 96.7813 222.744 99.512C223.085 102.072 223.256 104.803 223.256 107.704C223.427 110.435 223.427 113.251 223.256 116.152C223.256 118.883 223.171 121.357 223 123.576C223.683 123.576 224.109 124.259 224.28 125.624C224.621 126.819 224.792 128.355 224.792 130.232C224.963 131.939 224.963 133.816 224.792 135.864C224.792 137.912 224.877 139.704 225.048 141.24C225.731 137.315 225.987 133.304 225.816 129.208C225.816 124.941 225.645 120.76 225.304 116.664C224.963 112.397 224.621 108.216 224.28 104.12C223.939 99.8533 223.768 95.7573 223.768 91.832C224.621 91.832 224.877 92.344 224.536 93.368C224.195 94.2213 224.195 94.9893 224.536 95.672C225.048 95.5013 225.304 94.648 225.304 93.112C225.304 91.4053 225.048 90.4667 224.536 90.296C224.707 88.4187 224.451 86.968 223.768 85.944C223.256 84.7493 223 83.2987 223 81.592C225.219 85.5173 226.499 89.9547 226.84 94.904C227.181 99.8533 227.608 104.461 228.12 108.728C228.803 106.68 229.059 104.461 228.888 102.072C228.717 99.512 228.376 97.1227 227.864 94.904C227.352 92.5147 226.84 90.2107 226.328 87.992C225.987 85.7733 225.816 83.896 225.816 82.36C226.157 82.872 226.328 82.9573 226.328 82.616C226.499 82.2747 226.328 82.1893 225.816 82.36C226.157 81.1653 226.499 80.9947 226.84 81.848C227.352 82.7013 227.779 83.128 228.12 83.128C228.973 82.9573 229.059 82.5307 228.376 81.848C227.693 80.9947 227.608 80.1413 228.12 79.288C229.144 79.9707 229.912 80.312 230.424 80.312C230.936 80.312 231.619 80.4827 232.472 80.824C234.52 94.4773 236.141 108.557 237.336 123.064C238.701 137.571 239.725 152.333 240.408 167.352C241.091 182.2 241.603 197.219 241.944 212.408C242.285 227.427 242.627 242.275 242.968 256.952C242.285 257.293 241.773 257.379 241.432 257.208C241.261 256.867 241.091 256.611 240.92 256.44C240.749 256.099 240.493 255.843 240.152 255.672C239.981 255.501 239.64 255.501 239.128 255.672C239.299 254.648 239.043 254.136 238.36 254.136C237.848 254.307 237.763 254.477 238.104 254.648C238.445 254.819 238.531 255.16 238.36 255.672C237.848 255.672 237.421 256.099 237.08 256.952C235.885 256.611 235.459 256.099 235.8 255.416C236.312 254.733 236.227 254.307 235.544 254.136C234.691 254.819 234.52 255.501 235.032 256.184C235.544 256.867 235.459 257.635 234.776 258.488C232.728 257.805 231.619 256.269 231.448 253.88C231.448 251.491 231.363 249.101 231.192 246.712C230.68 247.224 230.424 248.077 230.424 249.272C230.424 250.296 230.424 251.405 230.424 252.6C230.424 253.795 230.339 254.904 230.168 255.928C229.997 256.781 229.571 257.379 228.888 257.72C228.376 257.72 228.12 257.464 228.12 256.952C228.12 256.44 228.12 255.843 228.12 255.16C228.12 254.477 228.035 253.965 227.864 253.624C227.864 253.283 227.437 253.197 226.584 253.368C226.925 251.832 226.755 251.405 226.072 252.088C225.389 252.771 225.56 253.197 226.584 253.368C226.584 253.88 226.755 254.221 227.096 254.392C227.437 254.563 227.523 254.989 227.352 255.672C227.011 255.501 226.584 255.245 226.072 254.904C225.731 254.563 225.389 254.819 225.048 255.672C224.536 255.843 224.451 256.013 224.792 256.184C225.133 256.184 225.219 256.013 225.048 255.672C226.243 256.013 226.413 256.44 225.56 256.952C224.707 257.464 224.365 257.976 224.536 258.488C223.341 257.123 222.829 255.587 223 253.88C223.341 252.173 223.341 250.552 223 249.016C222.488 249.528 222.147 250.211 221.976 251.064C221.976 251.917 221.976 252.771 221.976 253.624C221.976 254.307 221.891 254.904 221.72 255.416C221.72 255.928 221.379 256.184 220.696 256.184C220.184 256.184 219.928 255.928 219.928 255.416C220.099 254.733 220.611 254.563 221.464 254.904C221.293 254.051 220.781 253.624 219.928 253.624C219.075 253.624 218.819 253.027 219.16 251.832C218.307 252.173 218.051 253.112 218.392 254.648C218.733 256.184 218.819 257.464 218.648 258.488C217.453 258.488 216.941 257.891 217.112 256.696C217.453 255.501 217.453 254.136 217.112 252.6C209.432 253.965 202.691 254.819 196.888 255.16C191.256 255.501 186.904 256.099 183.832 256.952C161.475 259.853 139.117 263.437 116.76 267.704C94.4027 271.971 70.5947 276.749 45.336 282.04C40.8987 283.405 35.9493 284.685 30.488 285.88C25.0267 287.075 19.6507 287.245 14.36 286.392C14.36 285.027 14.104 283.832 13.592 282.808C13.08 281.784 12.824 280.589 12.824 279.224C11.9707 279.224 11.7147 279.736 12.056 280.76C12.3973 281.955 12.3973 282.893 12.056 283.576C11.2027 283.064 10.6907 282.211 10.52 281.016C10.52 279.992 10.52 278.797 10.52 277.432C10.52 276.237 10.52 274.957 10.52 273.592C10.52 272.227 10.3493 271.117 10.008 270.264C9.66667 271.459 9.41067 272.739 9.24 274.104C9.06933 275.64 8.89867 276.664 8.728 277.176C8.728 277.859 8.64267 277.944 8.472 277.432C8.472 276.92 8.472 275.299 8.472 272.568C8.30134 272.227 8.04534 271.885 7.704 271.544C7.36267 271.203 7.10667 271.288 6.936 271.8C6.424 271.117 6.168 270.264 6.168 269.24C6.33867 268.216 6.33867 266.851 6.168 265.144C5.48534 264.803 5.05867 264.291 4.888 263.608C4.71733 262.925 4.376 262.413 3.864 262.072C3.352 249.272 2.84 236.131 2.328 222.648C1.816 209.165 1.38933 195.597 1.048 181.944C0.877333 168.291 0.877333 154.723 1.048 141.24C1.21867 127.587 1.73067 114.36 2.584 101.56C2.92533 101.389 3.096 101.133 3.096 100.792C3.096 100.28 2.92533 100.024 2.584 100.024C2.92533 98.1467 3.01067 96.5253 2.84 95.16C2.84 93.7947 3.01067 92.4293 3.352 91.064C4.20533 91.2347 4.46133 91.832 4.12 92.856C3.77867 93.88 3.69334 94.8187 3.864 95.672C4.54667 94.9893 4.888 94.136 4.888 93.112C4.888 92.088 4.71733 91.064 4.376 90.04C4.20534 89.016 3.94934 88.0773 3.608 87.224C3.43733 86.3707 3.52267 85.688 3.864 85.176C5.22934 85.3467 5.74134 86.6267 5.4 89.016C6.59467 88.3333 6.85067 87.3947 6.168 86.2C5.48534 85.0053 5.22933 83.9813 5.4 83.128C6.25333 84.4933 7.10667 85.0907 7.96 84.92C8.81334 84.5787 9.66667 84.92 10.52 85.944C11.032 85.7733 11.288 85.5173 11.288 85.176C11.288 84.664 11.2027 84.2373 11.032 83.896C10.8613 83.384 10.6907 82.9573 10.52 82.616C10.52 82.104 10.776 81.7627 11.288 81.592C11.8 81.592 12.056 81.848 12.056 82.36C12.2267 82.7013 12.4827 82.9573 12.824 83.128C13.1653 83.64 13.336 83.7253 13.336 83.384C13.5067 83.0427 13.336 82.9573 12.824 83.128C13.5067 81.7627 13.9333 81.6773 14.104 82.872C14.4453 84.0667 14.5307 85.0907 14.36 85.944C14.7013 85.2613 15.2133 84.8347 15.896 84.664C16.5787 84.3227 16.7493 83.5547 16.408 82.36C17.2613 82.36 17.6027 82.7867 17.432 83.64C17.2613 84.3227 17.432 84.8347 17.944 85.176C18.7973 85.176 19.0533 84.664 18.712 83.64C18.3707 82.4453 18.3707 81.5067 18.712 80.824C19.0533 81.1653 19.6507 81.7627 20.504 82.616C21.3573 83.4693 21.784 83.128 21.784 81.592C22.4667 81.592 22.6373 82.2747 22.296 83.64C23.1493 83.64 23.4053 82.9573 23.064 81.592C24.088 82.104 24.6 83.0427 24.6 84.408C25.112 84.408 25.368 83.7253 25.368 82.36C26.392 82.36 27.16 82.7013 27.672 83.384C28.3547 84.0667 28.7813 84.8347 28.952 85.688C29.2933 86.3707 29.6347 87.224 29.976 88.248C30.3173 89.1013 30.744 89.784 31.256 90.296C39.448 89.4427 47.384 88.504 55.064 87.48C62.9147 86.2853 70.68 85.0053 78.36 83.64C77.848 81.592 77.336 79.3733 76.824 76.984C76.312 74.424 75.6293 72.2053 74.776 70.328C73.9227 68.28 72.728 66.8293 71.192 65.976C69.8267 64.952 67.864 64.952 65.304 65.976C61.3787 63.5867 57.624 61.112 54.04 58.552C50.456 55.8213 46.7867 53.176 43.032 50.616C39.96 45.8373 38.2533 40.8027 37.912 35.512C37.7413 30.2213 38.68 25.272 40.728 20.664C42.776 15.8853 45.6773 11.7893 49.432 8.37599C53.3573 4.792 57.88 2.40266 63 1.20798C63.8533 1.71998 64.4507 2.40265 64.792 3.25598C65.1333 3.93865 65.7307 4.45065 66.584 4.79199ZM70.424 5.55998C70.0827 5.73066 69.7413 5.81599 69.4 5.81599C69.0587 5.81599 68.888 5.98666 68.888 6.32799C69.2293 6.15732 69.5707 6.07199 69.912 6.07199C70.2533 6.07199 70.424 5.90132 70.424 5.55998ZM70.424 9.39999C70.424 9.74132 70.5093 9.91199 70.68 9.91199C71.0213 9.74132 71.192 9.57066 71.192 9.39999C71.704 9.05865 71.7893 8.88799 71.448 8.88799C71.1067 8.71732 71.0213 8.88799 71.192 9.39999H70.424C70.0827 8.71733 69.8267 8.54666 69.656 8.88799C69.656 9.22932 69.912 9.39999 70.424 9.39999ZM69.656 9.91199C69.3147 10.0827 68.9733 10.168 68.632 10.168C68.2907 10.168 68.12 10.3387 68.12 10.68C68.4613 10.68 68.8027 10.68 69.144 10.68C69.4853 10.5093 69.656 10.2533 69.656 9.91199ZM71.704 10.68C71.8747 11.5333 72.0453 11.8747 72.216 11.704C72.3867 11.5333 72.472 11.2773 72.472 10.936C72.472 10.424 72.3867 10.0827 72.216 9.91199C72.0453 9.74132 71.8747 9.99732 71.704 10.68ZM144.152 12.216C143.64 12.216 143.384 12.472 143.384 12.984C142.872 13.3253 142.701 13.496 142.872 13.496C143.213 13.496 143.384 13.3253 143.384 12.984C143.896 13.3253 144.152 13.0693 144.152 12.216C144.664 11.8747 144.749 11.704 144.408 11.704C144.067 11.704 143.981 11.8747 144.152 12.216ZM63.768 13.752C63.256 13.5813 63 13.8373 63 14.52C61.464 14.3493 60.696 15.032 60.696 16.568C60.184 16.9093 60.0987 17.1653 60.44 17.336C60.7813 17.336 60.8667 17.08 60.696 16.568C61.72 16.3973 62.488 15.7147 63 14.52C63.512 14.52 63.768 14.264 63.768 13.752C64.28 13.4107 64.3653 13.24 64.024 13.24C63.6827 13.0693 63.5973 13.24 63.768 13.752ZM58.648 16.568C58.3067 16.3973 58.2213 16.4827 58.392 16.824C58.7333 16.9947 58.8187 16.9093 58.648 16.568ZM139.032 19.64C138.691 19.4693 138.605 19.5547 138.776 19.896C139.117 20.0667 139.203 19.9813 139.032 19.64ZM55.576 21.944C55.4053 21.6027 55.4053 21.6027 55.576 21.944C55.9173 22.1146 55.9173 22.1146 55.576 21.944ZM161.816 29.112C161.304 29.4533 161.133 29.7093 161.304 29.88C161.645 29.88 161.816 29.624 161.816 29.112C162.669 28.9413 163.096 28.6 163.096 28.088C163.267 27.576 163.779 27.6613 164.632 28.344C164.461 28.6853 164.205 29.2827 163.864 30.136C163.693 30.8187 164.205 30.9893 165.4 30.648C165.059 32.0133 165.229 32.6107 165.912 32.44C166.765 32.0987 167.363 31.7573 167.704 31.416V32.184C170.605 31.672 172.653 30.392 173.848 28.344C175.213 26.1253 175.384 23.992 174.36 21.944C174.189 22.6267 173.763 22.8827 173.08 22.712C172.568 22.5413 171.885 22.3707 171.032 22.2C170.179 22.0293 169.24 21.944 168.216 21.944C167.363 21.944 166.68 22.3707 166.168 23.224C166.68 23.5653 167.448 23.5653 168.472 23.224C169.496 22.8827 169.923 23.1387 169.752 23.992C165.144 23.992 162.499 25.6987 161.816 29.112ZM194.328 26.296C193.987 26.1253 193.901 26.2107 194.072 26.552C194.413 26.7227 194.499 26.6373 194.328 26.296ZM70.424 27.064C69.912 27.576 69.7413 27.832 69.912 27.832C70.0827 27.6613 70.2533 27.4907 70.424 27.32C70.7653 26.9787 70.936 26.7227 70.936 26.552C71.1067 26.3813 70.936 26.552 70.424 27.064ZM135.192 30.648C135.363 31.3307 135.448 31.5866 135.448 31.416C135.619 31.2453 135.704 30.9893 135.704 30.648C135.704 30.3067 135.619 30.0507 135.448 29.88C135.448 29.7093 135.363 29.9653 135.192 30.648ZM104.984 37.304C105.155 37.9867 105.24 38.2427 105.24 38.072C105.411 37.9013 105.496 37.6453 105.496 37.304C105.496 36.9627 105.411 36.7067 105.24 36.536C105.24 36.3653 105.155 36.6213 104.984 37.304ZM103.448 64.696C103.277 65.5493 103.277 66.0613 103.448 66.232C103.789 66.232 104.045 66.1467 104.216 65.976C104.387 65.6347 104.387 65.3787 104.216 65.208C104.216 64.8667 103.96 64.696 103.448 64.696C103.619 63.672 103.619 63.0747 103.448 62.904C103.277 62.5627 103.107 62.5627 102.936 62.904C102.765 63.0747 102.68 63.416 102.68 63.928C102.68 64.2693 102.936 64.5253 103.448 64.696ZM101.4 71.864C101.059 71.6933 101.059 71.7787 101.4 72.12C101.741 72.2907 101.741 72.2053 101.4 71.864ZM104.984 75.704C104.813 76.5573 104.813 77.0693 104.984 77.24C105.155 77.24 105.325 77.1547 105.496 76.984C105.667 76.6427 105.752 76.3867 105.752 76.216C105.752 75.8747 105.496 75.704 104.984 75.704C104.643 75.192 104.472 75.1067 104.472 75.448C104.472 75.6187 104.643 75.704 104.984 75.704ZM25.368 89.016C25.1973 88.6747 25.1973 88.6747 25.368 89.016C25.7093 89.3573 25.7093 89.3573 25.368 89.016ZM189.72 94.136C189.891 94.8187 190.061 95.0747 190.232 94.904C190.403 94.7333 190.488 94.4773 190.488 94.136C190.488 93.624 190.403 93.368 190.232 93.368C190.061 93.1973 189.891 93.4533 189.72 94.136ZM157.464 95.672C158.488 95.672 159.171 95.16 159.512 94.136C158.317 94.136 157.635 94.648 157.464 95.672ZM163.352 94.136C162.328 94.136 161.816 94.392 161.816 94.904C162.157 94.7333 162.413 94.648 162.584 94.648C162.925 94.648 163.181 94.4773 163.352 94.136ZM181.784 94.904C181.443 94.5627 181.357 94.5627 181.528 94.904C181.869 95.2453 181.955 95.2453 181.784 94.904ZM184.6 94.136C184.259 94.136 183.917 94.2213 183.576 94.392C183.235 94.392 183.064 94.5627 183.064 94.904C183.405 94.7333 183.747 94.648 184.088 94.648C184.429 94.648 184.6 94.4773 184.6 94.136ZM175.128 94.904C174.104 94.904 173.592 95.16 173.592 95.672C173.933 95.5013 174.275 95.416 174.616 95.416C174.957 95.416 175.128 95.2453 175.128 94.904ZM179.48 94.904C179.139 94.904 178.797 94.9893 178.456 95.16C178.115 95.16 177.944 95.3307 177.944 95.672C178.285 95.5013 178.627 95.416 178.968 95.416C179.309 95.416 179.48 95.2453 179.48 94.904ZM161.816 96.952C161.816 96.6107 161.389 96.3547 160.536 96.184C159.853 96.0133 159.085 96.0133 158.232 96.184C157.549 96.3547 157.037 96.6107 156.696 96.952C156.355 97.1227 156.611 97.3787 157.464 97.72C157.464 96.8667 157.976 96.6107 159 96.952C160.195 97.2933 161.133 97.2933 161.816 96.952C159.427 98.1467 156.611 98.744 153.368 98.744C150.296 98.744 147.224 98.9147 144.152 99.256C143.299 99.9387 143.128 100.536 143.64 101.048C144.323 101.389 144.237 101.987 143.384 102.84C142.531 102.157 142.019 102.072 141.848 102.584C141.677 103.096 140.909 103.181 139.544 102.84C139.715 102.499 139.885 102.328 140.056 102.328C140.227 102.157 140.312 101.901 140.312 101.56C139.8 101.389 139.373 101.475 139.032 101.816C138.861 101.987 138.605 102.072 138.264 102.072C138.264 101.219 138.093 100.877 137.752 101.048C137.581 101.219 137.24 101.389 136.728 101.56C136.899 100.877 136.899 100.451 136.728 100.28C136.557 100.109 136.387 100.109 136.216 100.28C136.045 100.451 135.96 100.707 135.96 101.048C135.96 101.389 136.216 101.56 136.728 101.56C136.728 101.901 137.24 102.072 138.264 102.072C137.752 102.413 136.984 102.84 135.96 103.352C134.936 103.693 133.827 104.035 132.632 104.376C131.437 104.547 130.243 104.547 129.048 104.376C128.024 104.205 127.341 103.693 127 102.84C127.853 102.157 129.048 101.901 130.584 102.072C132.291 102.243 133.827 102.243 135.192 102.072C135.533 102.755 135.704 102.925 135.704 102.584C135.875 102.243 135.704 102.072 135.192 102.072C132.803 100.877 129.816 100.536 126.232 101.048C122.648 101.56 119.747 102.157 117.528 102.84C117.016 103.181 116.845 103.437 117.016 103.608C117.357 103.608 117.528 103.352 117.528 102.84C118.04 103.181 118.808 103.181 119.832 102.84C120.856 102.499 121.283 102.755 121.112 103.608C121.112 104.803 120.429 105.315 119.064 105.144C117.699 104.973 116.419 104.973 115.224 105.144C115.053 104.291 115.053 103.693 115.224 103.352C115.565 103.011 115.821 102.584 115.992 102.072C115.48 102.072 115.053 102.243 114.712 102.584C114.541 102.755 114.285 102.84 113.944 102.84V102.072C112.749 102.584 111.725 102.755 110.872 102.584C110.189 102.413 109.251 102.755 108.056 103.608C109.421 103.949 110.445 104.12 111.128 104.12C111.981 104.12 112.92 103.693 113.944 102.84C113.944 103.181 114.115 103.779 114.456 104.632C114.968 105.315 114.797 105.741 113.944 105.912C107.288 106.253 100.803 106.851 94.488 107.704C88.1733 108.387 82.5413 109.24 77.592 110.264C77.592 109.923 77.5067 109.837 77.336 110.008C77.1653 110.008 77.08 110.093 77.08 110.264C75.8853 109.752 74.776 109.837 73.752 110.52C72.8987 111.032 71.7893 111.459 70.424 111.8C70.7653 111.971 71.2773 112.483 71.96 113.336C72.8133 114.019 72.5573 114.275 71.192 114.104C70.68 113.592 70.168 113.336 69.656 113.336C69.144 113.336 68.8027 113.421 68.632 113.592C68.4613 113.763 68.5467 113.933 68.888 114.104C69.2293 114.275 69.9973 114.275 71.192 114.104C65.3893 115.811 58.648 117.432 50.968 118.968C43.288 120.333 35.0107 121.357 26.136 122.04C26.4773 122.893 26.5627 124.003 26.392 125.368C26.392 126.733 26.3067 128.099 26.136 129.464C25.9653 130.659 25.9653 131.683 26.136 132.536C26.3067 133.389 26.8187 133.816 27.672 133.816C27.672 134.669 27.5013 135.267 27.16 135.608C26.8187 135.949 26.4773 136.291 26.136 136.632C25.7947 136.803 25.624 137.059 25.624 137.4C25.624 137.741 26.0507 138.253 26.904 138.936C27.2453 140.131 26.9893 141.496 26.136 143.032C25.4533 144.397 25.4533 146.275 26.136 148.664C25.624 149.005 25.4533 149.176 25.624 149.176C25.9653 149.176 26.136 149.005 26.136 148.664C26.9893 148.493 27.416 148.664 27.416 149.176C27.416 149.688 27.5013 150.285 27.672 150.968C27.3307 150.797 27.0747 150.627 26.904 150.456C26.7333 150.285 26.4773 150.2 26.136 150.2C26.136 153.101 26.0507 155.491 25.88 157.368C25.88 159.245 25.7947 161.037 25.624 162.744C25.624 164.28 25.624 165.901 25.624 167.608C25.7947 169.315 26.2213 171.363 26.904 173.752C26.0507 174.605 25.7947 175.715 26.136 177.08C26.4773 178.445 26.7333 179.811 26.904 181.176H26.136C26.3067 181.688 26.3067 182.285 26.136 182.968C25.9653 183.651 25.88 184.333 25.88 185.016C25.88 185.528 25.9653 186.04 26.136 186.552C26.3067 186.893 26.8187 187.064 27.672 187.064C28.0133 185.699 27.8427 184.76 27.16 184.248C26.648 183.565 26.8187 182.797 27.672 181.944C29.0373 182.627 29.464 183.736 28.952 185.272C28.6107 186.808 29.1227 188.088 30.488 189.112C30.1467 189.112 29.8907 189.027 29.72 188.856C29.5493 188.515 29.2933 188.344 28.952 188.344C31 194.829 32.1093 200.973 32.28 206.776C32.6213 212.579 32.792 218.979 32.792 225.976H32.024C32.024 225.805 31.768 225.549 31.256 225.208C31.4267 224.525 31.4267 224.099 31.256 223.928C31.0853 223.757 30.9147 223.843 30.744 224.184C30.5733 224.355 30.488 224.611 30.488 224.952C30.488 225.123 30.744 225.208 31.256 225.208C31.256 225.72 31.512 225.976 32.024 225.976C32.024 226.488 32.1093 226.744 32.28 226.744C32.6213 226.573 32.792 226.317 32.792 225.976C33.4747 227.683 33.9013 229.731 34.072 232.12C34.2427 234.339 34.328 236.728 34.328 239.288C34.328 241.677 34.328 244.152 34.328 246.712C34.328 249.101 34.4987 251.32 34.84 253.368C48.4933 250.125 62.5733 247.053 77.08 244.152C91.7573 241.08 106.52 238.264 121.368 235.704C136.387 233.144 151.32 230.84 166.168 228.792C181.016 226.744 195.523 224.867 209.688 223.16L211.992 220.856C212.163 221.197 212.419 221.453 212.76 221.624C213.272 221.624 213.699 221.624 214.04 221.624C214.552 221.453 214.808 221.283 214.808 221.112C214.979 220.771 214.723 220.429 214.04 220.088C214.211 219.747 214.381 219.576 214.552 219.576C214.723 219.405 214.808 219.149 214.808 218.808H212.76C212.76 217.784 212.675 216.675 212.504 215.48C212.504 214.115 213.016 213.944 214.04 214.968C214.381 215.48 214.552 215.651 214.552 215.48C214.723 215.139 214.552 214.968 214.04 214.968V213.432C214.552 213.261 214.637 213.176 214.296 213.176C214.125 213.005 214.04 213.091 214.04 213.432C212.675 212.408 211.907 211.213 211.736 209.848C211.565 208.312 211.565 206.861 211.736 205.496C212.077 204.131 212.248 202.765 212.248 201.4C212.419 200.035 212.077 198.925 211.224 198.072V195.768H211.992C212.163 196.28 212.248 196.451 212.248 196.28C212.419 195.939 212.333 195.768 211.992 195.768C212.333 189.453 212.163 183.992 211.48 179.384C210.968 174.605 211.139 169.485 211.992 164.024C212.333 166.413 212.504 168.803 212.504 171.192C212.504 173.411 212.504 175.544 212.504 177.592C212.504 179.64 212.589 181.603 212.76 183.48C212.931 185.187 213.357 186.637 214.04 187.832C213.016 171.619 212.333 156.088 211.992 141.24C211.821 126.392 210.541 111.885 208.152 97.72C208.152 98.4027 208.152 99.0853 208.152 99.768C208.323 100.28 208.067 100.621 207.384 100.792C207.725 98.9147 207.299 97.8907 206.104 97.72C203.203 98.5733 200.216 98.9147 197.144 98.744C194.072 98.4027 191.597 97.8053 189.72 96.952C190.403 96.6107 191.256 96.44 192.28 96.44C193.475 96.44 194.584 96.5253 195.608 96.696C196.803 96.696 197.741 96.6107 198.424 96.44C199.107 96.2693 199.448 95.7573 199.448 94.904C197.912 94.904 195.608 95.0747 192.536 95.416C189.464 95.5867 186.307 95.8427 183.064 96.184C179.821 96.3547 176.835 96.5253 174.104 96.696C171.373 96.8667 169.496 96.696 168.472 96.184C168.813 96.5253 169.069 96.6107 169.24 96.44C169.581 96.0987 169.752 95.8427 169.752 95.672C169.069 95.8427 168.216 95.7573 167.192 95.416C166.168 95.0747 165.571 95.3307 165.4 96.184C166.765 96.184 167.533 96.44 167.704 96.952C165.827 97.8053 163.864 97.8053 161.816 96.952ZM203.8 95.672C202.947 95.16 202.349 94.9893 202.008 95.16C201.667 95.3307 201.581 95.5867 201.752 95.928C201.923 96.0987 202.179 96.2693 202.52 96.44C202.861 96.44 203.288 96.184 203.8 95.672ZM163.352 96.184C163.011 96.0133 162.925 96.0987 163.096 96.44C163.437 96.6107 163.523 96.5253 163.352 96.184ZM224.536 96.952C225.048 97.976 225.389 98.4027 225.56 98.232C225.731 98.0613 225.816 97.8053 225.816 97.464C225.816 97.1227 225.731 96.7813 225.56 96.44C225.389 96.0987 225.048 96.2693 224.536 96.952ZM147.736 97.72C147.224 98.0613 147.053 98.3173 147.224 98.488C147.565 98.488 147.736 98.232 147.736 97.72C148.248 97.3787 148.333 97.208 147.992 97.208C147.821 97.208 147.736 97.3787 147.736 97.72ZM151.32 96.952C150.979 97.1227 150.637 97.208 150.296 97.208C150.125 97.208 150.04 97.3787 150.04 97.72C150.893 97.72 151.32 97.464 151.32 96.952ZM4.632 98.488C4.80267 99.1707 4.97333 99.4267 5.144 99.256C5.31467 99.0853 5.4 98.8293 5.4 98.488C5.4 98.1467 5.31467 97.8907 5.144 97.72C4.97333 97.5493 4.80267 97.8053 4.632 98.488ZM216.344 101.56C216.344 100.024 215.832 99 214.808 98.488C214.467 100.365 214.979 101.389 216.344 101.56ZM131.608 99.256C130.755 99.5973 129.56 99.5973 128.024 99.256C126.659 98.9147 125.891 99.1707 125.72 100.024C126.573 99.6827 127.683 99.6827 129.048 100.024C130.413 100.365 131.267 100.109 131.608 99.256ZM225.048 100.024C224.877 101.048 224.792 101.56 224.792 101.56C224.963 101.389 225.048 101.048 225.048 100.536C225.048 100.024 225.048 99.6827 225.048 99.512C225.219 99.1707 225.219 99.3413 225.048 100.024ZM4.632 100.792C4.46134 100.451 4.46134 100.451 4.632 100.792C4.97333 101.133 4.97333 101.133 4.632 100.792ZM119.064 100.792C118.893 100.451 118.893 100.451 119.064 100.792C119.405 101.133 119.405 101.133 119.064 100.792ZM121.112 100.792C120.941 100.451 120.941 100.451 121.112 100.792C121.453 101.133 121.453 101.133 121.112 100.792ZM139.032 100.792C138.691 100.451 138.605 100.451 138.776 100.792C139.117 101.133 139.203 101.133 139.032 100.792ZM107.288 101.56C106.264 101.56 105.752 101.731 105.752 102.072C106.093 102.072 106.435 102.072 106.776 102.072C107.117 102.072 107.288 101.901 107.288 101.56ZM88.856 103.608C88.5147 103.437 88.5147 103.523 88.856 103.864C89.1973 104.035 89.1973 103.949 88.856 103.608ZM107.288 102.84C105.923 102.669 104.899 102.925 104.216 103.608C103.875 103.949 103.875 104.12 104.216 104.12C104.728 104.12 105.24 104.035 105.752 103.864C106.264 103.693 106.691 103.523 107.032 103.352C107.544 103.181 107.629 103.011 107.288 102.84ZM100.632 103.608C100.291 103.779 99.9493 103.864 99.608 103.864C99.2667 103.864 99.096 104.035 99.096 104.376C99.4373 104.205 99.7787 104.12 100.12 104.12C100.461 104.12 100.632 103.949 100.632 103.608ZM89.624 105.144C89.7947 105.827 89.88 106.083 89.88 105.912C90.0507 105.741 90.136 105.485 90.136 105.144C90.136 104.803 90.0507 104.547 89.88 104.376C89.88 104.205 89.7947 104.461 89.624 105.144ZM94.744 105.144C93.8907 104.973 93.3787 104.973 93.208 105.144C93.208 105.315 93.2933 105.485 93.464 105.656C93.6347 105.827 93.8907 105.912 94.232 105.912C94.5733 105.912 94.744 105.656 94.744 105.144C95.768 105.315 96.3653 105.315 96.536 105.144C96.7067 104.973 96.7067 104.803 96.536 104.632C96.3653 104.461 96.024 104.376 95.512 104.376C95.1707 104.376 94.9147 104.632 94.744 105.144ZM77.592 107.448C77.4213 107.107 77.4213 107.107 77.592 107.448C77.9333 107.789 77.9333 107.789 77.592 107.448ZM73.24 108.216C73.0693 107.875 73.0693 107.875 73.24 108.216C73.5813 108.387 73.5813 108.387 73.24 108.216ZM228.888 111.8C229.059 112.483 229.144 112.739 229.144 112.568C229.315 112.397 229.4 112.141 229.4 111.8C229.4 111.459 229.315 111.203 229.144 111.032C229.144 110.861 229.059 111.117 228.888 111.8ZM64.536 113.336C64.7067 113.848 64.792 113.933 64.792 113.592C64.9627 113.251 64.8773 113.165 64.536 113.336C64.1947 112.653 63.9387 112.483 63.768 112.824C63.768 113.165 64.024 113.336 64.536 113.336ZM65.816 114.104C65.6453 113.763 65.6453 113.763 65.816 114.104C66.1573 114.275 66.1573 114.275 65.816 114.104ZM216.344 117.688C216.003 118.2 215.491 118.627 214.808 118.968C214.296 119.139 214.04 119.651 214.04 120.504C215.917 120.845 216.941 120.419 217.112 119.224C216.771 119.224 216.6 119.053 216.6 118.712C216.6 118.371 216.515 118.029 216.344 117.688C216.856 117.517 217.027 117.261 216.856 116.92C216.856 116.408 216.685 116.152 216.344 116.152C216.856 115.64 217.027 115.043 216.856 114.36C216.856 113.677 216.429 113.336 215.576 113.336C215.576 113.848 215.576 114.445 215.576 115.128C215.576 115.811 215.832 116.152 216.344 116.152V117.688ZM214.808 117.688C214.808 117.517 214.808 117.176 214.808 116.664C214.979 115.981 214.979 115.384 214.808 114.872C214.808 114.36 214.723 114.104 214.552 114.104C214.381 113.933 214.211 114.104 214.04 114.616C214.04 115.128 214.04 116.067 214.04 117.432C214.211 118.797 214.467 118.883 214.808 117.688ZM228.888 114.616C229.059 115.469 229.144 115.811 229.144 115.64C229.315 115.469 229.4 115.213 229.4 114.872C229.4 114.36 229.315 114.019 229.144 113.848C229.144 113.677 229.059 113.933 228.888 114.616ZM228.888 117.688C229.059 118.371 229.144 118.627 229.144 118.456C229.315 118.285 229.4 118.029 229.4 117.688C229.4 117.347 229.315 117.091 229.144 116.92C229.144 116.749 229.059 117.005 228.888 117.688ZM228.888 119.992C229.059 120.675 229.144 120.931 229.144 120.76C229.315 120.589 229.4 120.333 229.4 119.992C229.4 119.48 229.315 119.224 229.144 119.224C229.144 119.053 229.059 119.309 228.888 119.992ZM223 125.88C222.829 125.539 222.829 125.539 223 125.88C223.341 126.221 223.341 126.221 223 125.88ZM217.88 132.536C217.539 132.195 217.539 132.195 217.88 132.536C218.221 132.707 218.221 132.707 217.88 132.536ZM223.768 132.536C223.939 133.219 224.024 133.475 224.024 133.304C224.195 133.133 224.28 132.877 224.28 132.536C224.28 132.024 224.195 131.768 224.024 131.768C224.024 131.597 223.939 131.853 223.768 132.536ZM219.16 133.816C218.819 133.987 218.477 134.072 218.136 134.072C217.965 134.072 217.88 134.243 217.88 134.584C218.733 134.584 219.16 134.328 219.16 133.816ZM217.88 136.12C218.051 136.803 218.136 137.059 218.136 136.888C218.307 136.717 218.392 136.461 218.392 136.12C218.392 135.779 218.307 135.523 218.136 135.352C218.136 135.181 218.051 135.437 217.88 136.12ZM213.272 140.472C213.272 143.544 213.272 144.995 213.272 144.824C213.272 144.483 213.272 143.629 213.272 142.264C213.272 140.728 213.187 139.363 213.016 138.168C213.016 136.803 212.931 136.632 212.76 137.656C212.76 137.315 212.845 137.656 213.016 138.68C213.187 139.533 213.272 140.131 213.272 140.472ZM19.48 138.424C19.3093 138.083 19.3093 138.083 19.48 138.424C19.8213 138.595 19.8213 138.595 19.48 138.424ZM218.648 141.24C216.941 141.24 216.429 141.837 217.112 143.032C217.795 144.056 218.477 144.483 219.16 144.312C219.501 143.459 219.501 142.861 219.16 142.52C218.819 142.179 218.648 141.752 218.648 141.24C218.989 141.069 219.16 140.813 219.16 140.472C219.16 139.96 218.989 139.704 218.648 139.704C218.648 138.339 218.392 137.656 217.88 137.656C217.88 137.997 217.624 138.253 217.112 138.424C216.941 139.277 217.453 139.704 218.648 139.704V141.24ZM222.232 138.424C222.061 139.448 221.976 139.96 221.976 139.96C222.147 139.789 222.232 139.448 222.232 138.936C222.232 138.424 222.232 138.083 222.232 137.912C222.403 137.571 222.403 137.741 222.232 138.424ZM215.576 138.936C215.064 139.619 214.893 139.96 215.064 139.96C215.405 139.789 215.661 139.619 215.832 139.448C216.173 139.107 216.344 138.851 216.344 138.68C216.515 138.509 216.259 138.595 215.576 138.936ZM24.6 141.24C24.9413 141.752 25.112 141.923 25.112 141.752C25.2827 141.411 25.112 141.24 24.6 141.24C24.2587 140.728 24.088 140.643 24.088 140.984C24.088 141.155 24.2587 141.24 24.6 141.24ZM222.232 142.008C221.891 142.179 221.549 142.264 221.208 142.264C220.867 142.264 220.696 142.435 220.696 142.776C221.037 142.605 221.379 142.52 221.72 142.52C222.061 142.52 222.232 142.349 222.232 142.008ZM23.832 143.544C24.0027 144.227 24.1733 144.483 24.344 144.312C24.5147 144.141 24.6 143.885 24.6 143.544C24.6 143.032 24.5147 142.776 24.344 142.776C24.1733 142.605 24.0027 142.861 23.832 143.544ZM220.696 144.312C220.867 144.995 221.037 145.251 221.208 145.08C221.379 144.909 221.464 144.653 221.464 144.312C221.464 143.8 221.379 143.544 221.208 143.544C221.037 143.373 220.867 143.629 220.696 144.312ZM218.648 145.08C217.624 145.08 217.112 145.251 217.112 145.592C217.965 145.592 218.477 145.421 218.648 145.08ZM225.816 145.592C225.645 146.616 225.56 147.128 225.56 147.128C225.731 146.957 225.816 146.701 225.816 146.36C225.816 145.848 225.816 145.421 225.816 145.08C225.987 144.739 225.987 144.909 225.816 145.592ZM214.04 147.128C214.381 147.64 214.552 147.811 214.552 147.64C214.723 147.299 214.552 147.128 214.04 147.128C213.869 146.616 213.699 146.531 213.528 146.872C213.528 147.043 213.699 147.128 214.04 147.128ZM220.696 146.36C220.355 146.531 219.928 146.616 219.416 146.616C218.904 146.616 218.648 146.787 218.648 147.128C219.16 147.128 219.416 147.469 219.416 148.152C219.416 148.664 219.843 148.835 220.696 148.664V146.36ZM214.04 150.2C213.869 149.859 213.869 149.859 214.04 150.2C214.381 150.541 214.381 150.541 214.04 150.2ZM217.88 150.968C218.051 151.48 218.136 151.565 218.136 151.224C218.307 150.883 218.221 150.797 217.88 150.968C218.051 150.285 217.965 149.859 217.624 149.688C217.453 149.517 217.283 149.517 217.112 149.688C216.941 149.859 216.856 150.115 216.856 150.456C217.027 150.797 217.368 150.968 217.88 150.968ZM213.272 154.552C213.443 155.235 213.613 155.491 213.784 155.32C213.955 155.149 214.04 154.893 214.04 154.552C214.04 154.211 213.955 153.955 213.784 153.784C213.613 153.613 213.443 153.869 213.272 154.552ZM226.584 154.552C226.755 155.235 226.925 155.491 227.096 155.32C227.267 155.149 227.352 154.893 227.352 154.552C227.352 154.211 227.267 153.955 227.096 153.784C226.925 153.613 226.755 153.869 226.584 154.552ZM226.584 156.856C226.413 156.515 226.413 156.515 226.584 156.856C226.925 157.027 226.925 157.027 226.584 156.856ZM214.04 160.44C214.04 161.805 214.125 162.488 214.296 162.488C214.467 162.488 214.552 162.232 214.552 161.72C214.723 161.208 214.808 160.781 214.808 160.44C214.808 159.928 214.552 159.928 214.04 160.44ZM223 169.4C222.829 169.059 222.829 169.059 223 169.4C223.341 169.571 223.341 169.571 223 169.4ZM227.352 177.336C227.181 178.36 227.096 178.872 227.096 178.872C227.267 178.701 227.352 178.445 227.352 178.104C227.352 177.592 227.352 177.165 227.352 176.824C227.523 176.483 227.523 176.653 227.352 177.336ZM222.232 181.944C222.061 181.603 222.061 181.603 222.232 181.944C222.573 182.115 222.573 182.115 222.232 181.944ZM228.12 187.064C228.12 188.429 228.205 189.112 228.376 189.112C228.547 189.112 228.632 188.856 228.632 188.344C228.803 187.832 228.888 187.32 228.888 186.808C228.888 186.296 228.632 186.381 228.12 187.064ZM27.672 189.112C27.5013 190.136 27.416 190.648 27.416 190.648C27.416 190.477 27.416 190.221 27.416 189.88C27.5867 189.368 27.672 188.941 27.672 188.6C27.672 188.259 27.672 188.429 27.672 189.112ZM214.04 192.952C214.04 192.781 214.04 192.44 214.04 191.928C214.211 191.245 214.211 190.648 214.04 190.136C214.04 189.624 213.955 189.368 213.784 189.368C213.613 189.197 213.443 189.368 213.272 189.88C213.272 190.392 213.272 191.331 213.272 192.696C213.443 194.061 213.699 194.147 214.04 192.952ZM219.928 189.88C220.269 190.563 220.525 190.819 220.696 190.648C220.867 190.477 220.952 190.221 220.952 189.88C221.123 189.539 221.123 189.283 220.952 189.112C220.781 188.941 220.44 189.197 219.928 189.88ZM28.952 191.416C28.7813 192.44 28.696 192.952 28.696 192.952C28.8667 192.781 28.952 192.44 28.952 191.928C28.952 191.416 28.952 191.075 28.952 190.904C29.1227 190.563 29.1227 190.733 28.952 191.416ZM27.672 192.952C27.5013 194.659 27.5013 195.512 27.672 195.512C27.8427 195.512 28.0133 195.256 28.184 194.744C28.3547 194.232 28.44 193.72 28.44 193.208C28.44 192.525 28.184 192.44 27.672 192.952ZM213.272 195C213.443 195.853 213.613 196.195 213.784 196.024C213.955 195.853 214.04 195.597 214.04 195.256C214.04 194.744 213.955 194.403 213.784 194.232C213.613 194.061 213.443 194.317 213.272 195ZM213.272 197.304C213.443 197.987 213.613 198.243 213.784 198.072C213.955 197.901 214.04 197.645 214.04 197.304C214.04 196.963 213.955 196.707 213.784 196.536C213.613 196.365 213.443 196.621 213.272 197.304ZM27.672 198.84C27.3307 198.669 27.3307 198.755 27.672 199.096C28.0133 199.267 28.0133 199.181 27.672 198.84ZM213.272 199.608C213.443 200.291 213.613 200.547 213.784 200.376C213.955 200.205 214.04 199.949 214.04 199.608C214.04 199.096 213.955 198.84 213.784 198.84C213.613 198.669 213.443 198.925 213.272 199.608ZM213.272 205.496C213.443 206.179 213.613 206.435 213.784 206.264C213.955 206.093 214.04 205.837 214.04 205.496C214.04 204.984 213.955 204.728 213.784 204.728C213.613 204.557 213.443 204.813 213.272 205.496ZM211.992 207.544C211.821 208.568 211.736 209.08 211.736 209.08C211.736 208.909 211.736 208.653 211.736 208.312C211.907 207.8 211.992 207.373 211.992 207.032C211.992 206.691 211.992 206.861 211.992 207.544ZM214.04 207.544C213.528 207.885 213.443 208.141 213.784 208.312C214.125 208.312 214.211 208.056 214.04 207.544C214.552 207.373 214.637 207.288 214.296 207.288C214.125 207.117 214.04 207.203 214.04 207.544ZM214.04 209.848C213.699 210.189 213.443 210.616 213.272 211.128C213.272 211.64 213.528 211.981 214.04 212.152C214.381 211.811 214.637 211.384 214.808 210.872C214.979 210.36 214.723 210.019 214.04 209.848C213.869 209.336 213.699 209.251 213.528 209.592C213.528 209.763 213.699 209.848 214.04 209.848ZM225.048 212.152C224.877 211.811 224.877 211.811 225.048 212.152C225.389 212.323 225.389 212.323 225.048 212.152ZM28.44 222.392C28.44 221.709 28.44 221.539 28.44 221.88C28.44 222.051 28.3547 222.392 28.184 222.904C28.184 223.416 28.184 223.757 28.184 223.928C28.184 223.928 28.2693 223.416 28.44 222.392ZM228.888 223.928C228.717 223.587 228.717 223.587 228.888 223.928C229.229 224.269 229.229 224.269 228.888 223.928ZM28.44 225.976C28.6107 226.829 28.696 227.171 28.696 227C28.8667 226.829 28.952 226.573 28.952 226.232C28.952 225.72 28.8667 225.379 28.696 225.208C28.696 225.037 28.6107 225.293 28.44 225.976ZM228.888 225.976C229.059 226.829 229.144 227.171 229.144 227C229.315 226.829 229.4 226.573 229.4 226.232C229.4 225.72 229.315 225.379 229.144 225.208C229.144 225.037 229.059 225.293 228.888 225.976ZM224.536 227.512C224.195 229.048 224.365 229.475 225.048 228.792C225.731 228.109 225.56 227.683 224.536 227.512C224.195 227 223.939 226.915 223.768 227.256C223.768 227.427 224.024 227.512 224.536 227.512ZM32.024 230.584C32.1947 231.267 32.28 231.523 32.28 231.352C32.4507 231.181 32.536 230.925 32.536 230.584C32.536 230.072 32.4507 229.816 32.28 229.816C32.28 229.645 32.1947 229.901 32.024 230.584ZM227.352 236.472C227.181 236.131 227.181 236.131 227.352 236.472C227.693 236.813 227.693 236.813 227.352 236.472ZM28.44 238.52C28.0987 238.349 28.0133 238.435 28.184 238.776C28.5253 238.947 28.6107 238.861 28.44 238.52ZM228.12 242.36C227.949 242.019 227.949 242.019 228.12 242.36C228.461 242.701 228.461 242.701 228.12 242.36ZM230.424 245.944C230.083 245.773 230.083 245.859 230.424 246.2C230.765 246.371 230.765 246.285 230.424 245.944ZM173.592 251.064C173.08 251.747 172.909 252.088 173.08 252.088C173.421 251.917 173.677 251.747 173.848 251.576C174.189 251.235 174.36 250.979 174.36 250.808C174.531 250.467 174.275 250.552 173.592 251.064ZM194.328 251.832C193.987 251.661 193.901 251.747 194.072 252.088C194.413 252.259 194.499 252.173 194.328 251.832ZM200.216 252.6C199.875 252.429 199.789 252.515 199.96 252.856C200.301 253.027 200.387 252.941 200.216 252.6ZM173.592 254.136C172.397 253.965 171.629 253.965 171.288 254.136C170.947 254.307 170.861 254.477 171.032 254.648C171.373 254.819 171.8 254.904 172.312 254.904C172.824 254.904 173.251 254.648 173.592 254.136ZM185.368 254.904C185.197 254.563 185.197 254.563 185.368 254.904C185.709 255.245 185.709 255.245 185.368 254.904ZM232.472 254.904C232.984 255.757 233.325 256.184 233.496 256.184C233.837 256.013 234.008 255.757 234.008 255.416C234.008 254.904 233.837 254.563 233.496 254.392C233.325 254.051 232.984 254.221 232.472 254.904ZM168.472 255.672C168.301 255.331 168.301 255.331 168.472 255.672C168.813 255.843 168.813 255.843 168.472 255.672ZM179.48 254.904C179.139 254.904 178.797 254.989 178.456 255.16C178.115 255.16 177.944 255.331 177.944 255.672C178.285 255.501 178.627 255.416 178.968 255.416C179.309 255.416 179.48 255.245 179.48 254.904ZM175.128 255.672C174.616 255.672 174.104 255.672 173.592 255.672C173.08 255.672 172.824 255.843 172.824 256.184C173.165 256.184 173.592 256.184 174.104 256.184C174.616 256.184 174.957 256.013 175.128 255.672ZM169.24 256.184C168.728 256.355 168.216 256.44 167.704 256.44C167.192 256.44 166.936 256.611 166.936 256.952C167.277 256.952 167.704 256.952 168.216 256.952C168.728 256.952 169.069 256.696 169.24 256.184ZM144.92 258.488C144.579 258.317 144.493 258.403 144.664 258.744C145.005 258.915 145.091 258.829 144.92 258.488ZM148.504 257.72C148.163 257.891 147.821 257.976 147.48 257.976C147.139 257.976 146.968 258.147 146.968 258.488C147.309 258.317 147.651 258.232 147.992 258.232C148.333 258.232 148.504 258.061 148.504 257.72ZM142.616 258.488C142.275 258.659 141.933 258.744 141.592 258.744C141.251 258.744 141.08 258.915 141.08 259.256C141.421 259.085 141.763 259 142.104 259C142.445 259 142.616 258.829 142.616 258.488ZM132.888 260.024C132.035 260.024 131.608 260.28 131.608 260.792C131.949 260.621 132.205 260.536 132.376 260.536C132.717 260.536 132.888 260.365 132.888 260.024ZM125.72 261.56C124.696 261.56 124.184 261.731 124.184 262.072C124.525 262.072 124.867 262.072 125.208 262.072C125.549 262.072 125.72 261.901 125.72 261.56ZM79.128 2.74399C77.9333 2.91466 77.1653 2.91466 76.824 2.74399C76.6533 2.57331 76.6533 2.40265 76.824 2.23199C76.9947 2.06132 77.336 1.97598 77.848 1.97598C78.36 1.97598 78.7867 2.23198 79.128 2.74399ZM79.128 2.74399C79.64 2.74399 80.0667 2.74399 80.408 2.74399C80.92 2.74399 81.2613 2.99999 81.432 3.51199C81.0907 3.34132 80.664 3.25598 80.152 3.25598C79.64 3.25598 79.2987 3.08532 79.128 2.74399ZM144.152 7.86398C143.981 8.20532 143.811 8.46132 143.64 8.63199C143.469 8.80265 143.384 9.05865 143.384 9.39999C142.872 9.22932 142.616 9.39998 142.616 9.91199H141.08C141.421 9.39998 141.763 8.88799 142.104 8.37599C142.445 7.86399 143.128 7.69332 144.152 7.86398ZM140.312 10.68C140.312 10.168 140.568 9.91199 141.08 9.91199C141.251 10.424 140.995 10.68 140.312 10.68ZM139.544 11.448C139.715 10.936 139.971 10.68 140.312 10.68C140.312 11.3627 140.056 11.6187 139.544 11.448ZM137.496 12.216C136.984 12.216 136.728 12.1307 136.728 11.96C136.899 11.6187 137.155 11.704 137.496 12.216ZM139.032 12.216C139.032 11.704 139.203 11.448 139.544 11.448C139.544 12.1307 139.373 12.3867 139.032 12.216ZM139.032 12.216V13.752C138.349 13.5813 137.923 13.6667 137.752 14.008C137.581 14.3493 137.24 14.52 136.728 14.52C135.875 13.6667 135.704 13.3253 136.216 13.496C136.728 13.496 137.155 13.0693 137.496 12.216H139.032ZM135.192 15.288C134.851 15.288 134.68 15.1173 134.68 14.776C134.68 14.4347 134.851 14.6053 135.192 15.288ZM132.376 21.944C131.864 21.944 131.523 21.7733 131.352 21.432C131.352 21.0907 131.437 20.8347 131.608 20.664C131.779 20.4933 131.949 20.4933 132.12 20.664C132.461 20.8347 132.547 21.2613 132.376 21.944ZM104.984 25.528C104.984 25.1867 105.069 25.016 105.24 25.016C105.411 25.016 105.581 25.1867 105.752 25.528H104.984ZM105.752 25.528C106.093 25.528 106.264 25.6987 106.264 26.04C106.264 26.2107 106.093 26.04 105.752 25.528ZM197.144 27.832C196.973 27.4907 196.973 27.4907 197.144 27.832C197.485 28.0026 197.485 28.0026 197.144 27.832ZM108.568 29.112C108.056 29.112 107.8 29.0267 107.8 28.856C107.8 28.5147 107.885 28.2587 108.056 28.088C108.227 27.7467 108.397 27.6613 108.568 27.832C108.739 28.0026 108.739 28.4293 108.568 29.112ZM164.632 28.344C164.632 28.0027 164.803 27.9173 165.144 28.088C165.485 28.088 165.315 28.1733 164.632 28.344ZM165.4 30.648C165.059 29.9653 165.229 29.368 165.912 28.856C166.595 28.1733 166.936 28.2587 166.936 29.112C166.765 29.7947 166.253 30.3067 165.4 30.648ZM108.568 29.112C109.08 29.112 109.336 29.2827 109.336 29.624C109.507 29.9653 109.507 30.2213 109.336 30.392C109.165 30.5627 108.909 30.648 108.568 30.648C108.397 30.4773 108.397 29.9653 108.568 29.112ZM167.704 31.416C167.704 31.0747 167.789 30.904 167.96 30.904C168.131 30.904 168.301 31.0747 168.472 31.416H167.704ZM109.336 32.184C110.019 31.672 110.275 31.5867 110.104 31.928C110.104 32.0987 109.933 32.3547 109.592 32.696C109.421 32.8667 109.165 33.0373 108.824 33.208C108.653 33.208 108.824 32.8667 109.336 32.184ZM107.288 32.952C107.8 32.7813 108.312 33.1227 108.824 33.976C109.507 34.6587 109.933 34.5733 110.104 33.72C110.957 34.232 111.299 35.1707 111.128 36.536C110.957 37.7307 111.128 38.7547 111.64 39.608C110.787 39.4373 110.275 39.0107 110.104 38.328C110.104 37.4747 110.104 36.6213 110.104 35.768C109.592 36.4507 109.251 36.7067 109.08 36.536C108.909 36.3653 108.824 36.1093 108.824 35.768C108.824 35.4267 108.739 35.0853 108.568 34.744C108.397 34.4027 107.971 34.3173 107.288 34.488V32.952ZM135.96 35.768C136.301 35.768 136.472 35.9387 136.472 36.28C136.472 36.4507 136.301 36.28 135.96 35.768ZM108.568 40.376C108.739 39.864 109.251 39.608 110.104 39.608C110.104 39.7787 109.592 40.0347 108.568 40.376ZM108.568 43.96C109.421 44.1307 109.677 44.728 109.336 45.752C109.165 46.776 108.909 47.3733 108.568 47.544C107.544 47.2027 107.373 46.6907 108.056 46.008C108.739 45.3253 108.909 44.6427 108.568 43.96ZM104.216 49.08C104.216 49.4213 104.131 49.7627 103.96 50.104C103.96 50.4453 103.789 50.616 103.448 50.616C103.619 50.2747 103.704 49.9333 103.704 49.592C103.704 49.2507 103.875 49.08 104.216 49.08ZM107.288 49.848C107.629 50.1893 107.629 50.2747 107.288 50.104C106.947 49.7627 106.947 49.6773 107.288 49.848ZM103.448 50.616C103.619 50.9573 103.533 51.128 103.192 51.128C102.851 51.128 102.936 50.9573 103.448 50.616ZM105.752 52.92C105.581 52.5787 105.581 52.5787 105.752 52.92C106.093 53.0907 106.093 53.0907 105.752 52.92ZM106.52 70.584C107.032 70.7547 107.288 71.096 107.288 71.608C107.288 71.9493 107.203 72.2053 107.032 72.376C106.861 72.5467 106.691 72.5467 106.52 72.376C106.349 72.2053 106.349 71.608 106.52 70.584ZM107.288 74.936C107.629 75.2773 107.629 75.3627 107.288 75.192C106.947 74.8507 106.947 74.7653 107.288 74.936ZM224.536 90.296C224.365 90.6373 224.195 90.8933 224.024 91.064C223.853 91.2347 223.768 91.4907 223.768 91.832C222.915 90.4667 222.403 89.016 222.232 87.48C222.061 85.7733 221.805 84.0667 221.464 82.36C222.488 83.2133 223 84.5787 223 86.456C223.171 88.1627 223.683 89.4427 224.536 90.296ZM220.696 91.832C220.525 90.4667 220.525 89.6133 220.696 89.272C220.867 88.9307 221.037 88.8453 221.208 89.016C221.379 89.1867 221.464 89.6133 221.464 90.296C221.464 90.808 221.208 91.32 220.696 91.832ZM3.352 91.064C2.84 90.8933 2.584 90.6373 2.584 90.296C2.584 89.784 2.66934 89.4427 2.84 89.272C3.01067 89.1013 3.18133 89.1013 3.352 89.272C3.52267 89.4427 3.52267 90.04 3.352 91.064ZM219.16 90.296C219.672 90.296 219.843 90.4667 219.672 90.808C219.672 91.1493 219.501 90.9787 219.16 90.296ZM220.696 93.368C220.184 93.368 219.757 93.0267 219.416 92.344C219.075 91.6613 219.501 91.4907 220.696 91.832V93.368ZM177.176 97.72C176.152 98.4027 175.384 98.744 174.872 98.744C174.531 98.5733 174.36 98.4027 174.36 98.232C174.531 97.8907 174.787 97.6347 175.128 97.464C175.64 97.1227 176.323 97.208 177.176 97.72ZM188.184 97.72C186.648 98.232 185.197 98.232 183.832 97.72C183.832 97.0373 184.6 96.696 186.136 96.696C187.672 96.696 188.355 97.0373 188.184 97.72ZM188.184 97.72C188.696 97.72 188.867 97.8907 188.696 98.232C188.696 98.4027 188.525 98.232 188.184 97.72ZM218.648 97.72C218.819 97.72 218.904 97.8907 218.904 98.232C219.075 98.4027 218.989 98.488 218.648 98.488V97.72ZM167.704 100.792H163.352C163.693 99.5973 164.035 99.1707 164.376 99.512C164.717 99.6827 165.315 99.8533 166.168 100.024C166.168 99.3413 165.912 99.0853 165.4 99.256C165.571 98.5733 165.912 98.3173 166.424 98.488C166.936 98.6587 167.363 98.9147 167.704 99.256V100.792ZM167.704 99.256C167.704 98.744 167.789 98.5733 167.96 98.744C168.301 98.744 168.216 98.9147 167.704 99.256ZM169.24 99.256C169.411 99.5973 169.325 99.6827 168.984 99.512C168.813 99.1707 168.899 99.0853 169.24 99.256ZM155.928 100.792C155.416 100.792 155.16 100.621 155.16 100.28C155.16 99.9387 155.245 99.6827 155.416 99.512C155.587 99.3413 155.757 99.3413 155.928 99.512C156.099 99.6827 156.099 100.109 155.928 100.792ZM159.512 100.024C159 100.024 158.744 100.536 158.744 101.56C158.232 100.707 157.72 100.621 157.208 101.304C156.696 101.987 156.269 101.816 155.928 100.792C156.611 100.451 157.037 100.024 157.208 99.512C157.549 99 158.317 98.9147 159.512 99.256V100.024ZM160.28 100.024C160.28 99.512 160.365 99.3413 160.536 99.512C160.877 99.512 160.792 99.6827 160.28 100.024ZM2.584 101.56C2.24267 101.56 1.98667 101.389 1.816 101.048C1.816 100.536 2.072 100.195 2.584 100.024V101.56ZM160.28 100.024C160.28 100.195 160.195 100.365 160.024 100.536C159.853 100.536 159.683 100.365 159.512 100.024H160.28ZM161.816 100.792C161.645 100.451 161.645 100.451 161.816 100.792C162.157 101.133 162.157 101.133 161.816 100.792ZM218.648 100.024C219.16 100.024 219.416 100.195 219.416 100.536C219.416 100.707 219.331 100.963 219.16 101.304C218.989 101.475 218.819 101.56 218.648 101.56C218.477 101.389 218.477 100.877 218.648 100.024ZM146.968 102.072C146.456 102.755 146.029 103.011 145.688 102.84C145.347 102.669 145.091 102.499 144.92 102.328C144.749 101.987 144.835 101.731 145.176 101.56C145.517 101.389 146.115 101.56 146.968 102.072ZM127 102.84C126.659 103.523 125.976 104.035 124.952 104.376C124.099 104.717 123.331 104.717 122.648 104.376C122.648 104.035 122.563 103.779 122.392 103.608C122.221 103.437 122.051 103.181 121.88 102.84C124.099 101.987 125.805 101.987 127 102.84ZM139.544 102.84C139.715 103.352 139.629 103.608 139.288 103.608C138.947 103.437 139.032 103.181 139.544 102.84ZM212.76 105.144C212.931 105.485 212.845 105.571 212.504 105.4C212.333 105.059 212.419 104.973 212.76 105.144ZM102.168 108.728C102.339 109.069 102.253 109.155 101.912 108.984C101.741 108.643 101.827 108.557 102.168 108.728ZM208.152 108.728C208.323 108.045 208.323 107.875 208.152 108.216C208.152 108.557 208.152 108.984 208.152 109.496C208.152 109.837 208.067 110.093 207.896 110.264C207.896 110.264 207.981 109.752 208.152 108.728ZM177.176 120.504C179.053 121.357 181.187 121.613 183.576 121.272C185.965 120.76 188.013 120.504 189.72 120.504C189.379 121.187 189.293 121.955 189.464 122.808C189.805 123.491 190.147 124.173 190.488 124.856C190.829 125.539 191 126.221 191 126.904C191.171 127.587 190.744 128.184 189.72 128.696C190.744 129.037 191.427 129.635 191.768 130.488C192.109 131.171 192.365 131.939 192.536 132.792C192.877 133.645 193.133 134.499 193.304 135.352C193.475 136.035 193.816 136.547 194.328 136.888C193.304 137.741 192.963 138.509 193.304 139.192C193.645 139.875 193.219 140.301 192.024 140.472C192.024 140.984 192.109 141.24 192.28 141.24C192.621 141.24 192.963 141.24 193.304 141.24C193.816 141.24 194.157 141.325 194.328 141.496C194.499 141.667 194.499 142.093 194.328 142.776C192.621 143.117 191.427 143.203 190.744 143.032C190.232 142.861 189.379 143.032 188.184 143.544C188.525 144.397 189.293 144.653 190.488 144.312C191.683 143.971 192.707 143.971 193.56 144.312C193.901 144.653 193.816 144.909 193.304 145.08C192.792 145.08 192.109 145.165 191.256 145.336C190.573 145.336 189.805 145.421 188.952 145.592C188.269 145.763 187.843 146.019 187.672 146.36C188.355 147.896 188.611 149.517 188.44 151.224C188.44 152.931 188.269 154.637 187.928 156.344C187.757 157.88 187.587 159.416 187.416 160.952C187.245 162.317 187.331 163.597 187.672 164.792C186.648 165.475 186.136 166.328 186.136 167.352C186.136 168.376 186.221 169.485 186.392 170.68C186.563 171.875 186.563 173.069 186.392 174.264C186.392 175.288 185.795 176.312 184.6 177.336C184.941 183.651 185.197 188.771 185.368 192.696C185.539 196.621 185.539 200.888 185.368 205.496C184.856 205.667 184.685 205.837 184.856 206.008C185.197 206.008 185.368 205.837 185.368 205.496C186.904 205.325 187.245 205.496 186.392 206.008C185.709 206.52 185.368 207.032 185.368 207.544C186.563 207.715 186.989 209.08 186.648 211.64C186.477 214.2 186.307 216.333 186.136 218.04C185.624 217.869 185.197 217.699 184.856 217.528C184.685 217.357 184.6 217.784 184.6 218.808C183.917 218.637 183.576 218.211 183.576 217.528C183.747 216.675 183.576 216.077 183.064 215.736C182.381 216.76 181.699 217.101 181.016 216.76C180.504 216.419 180.248 216.845 180.248 218.04C179.053 217.699 178.797 217.187 179.48 216.504C180.333 215.651 180.589 214.883 180.248 214.2C179.565 214.2 179.139 214.456 178.968 214.968C178.797 215.309 178.627 215.736 178.456 216.248C178.456 216.76 178.285 217.272 177.944 217.784C177.773 218.125 177.261 218.211 176.408 218.04C176.579 217.528 176.493 217.187 176.152 217.016C175.981 216.675 175.725 216.419 175.384 216.248C175.213 216.077 175.043 215.907 174.872 215.736C174.701 215.395 174.787 214.883 175.128 214.2C174.616 214.2 174.36 214.456 174.36 214.968C174.36 215.309 174.36 215.736 174.36 216.248C174.36 216.76 174.36 217.187 174.36 217.528C174.36 217.869 174.104 218.04 173.592 218.04C172.909 218.04 172.483 217.869 172.312 217.528C172.141 217.187 171.971 216.76 171.8 216.248C171.8 215.736 171.715 215.224 171.544 214.712C171.544 214.2 171.459 213.773 171.288 213.432C170.093 213.944 169.667 214.456 170.008 214.968C170.52 215.309 170.435 216.077 169.752 217.272C169.411 217.272 169.155 217.187 168.984 217.016C168.813 216.675 168.643 216.76 168.472 217.272C167.107 216.76 166.339 216.248 166.168 215.736C166.168 215.224 165.4 215.48 163.864 216.504C163.523 215.821 163.352 215.053 163.352 214.2C163.352 213.176 163.096 212.493 162.584 212.152V210.616C162.072 210.787 161.816 211.128 161.816 211.64C161.987 211.981 162.243 212.152 162.584 212.152C161.56 217.613 160.792 217.357 160.28 211.384C159.427 211.555 159.171 212.237 159.512 213.432C159.853 214.627 159.853 215.651 159.512 216.504C158.659 214.285 157.208 212.323 155.16 210.616C154.136 210.957 153.709 211.299 153.88 211.64C154.221 211.981 154.392 212.579 154.392 213.432C153.709 213.091 153.197 213.005 152.856 213.176C152.685 213.176 152.515 213.261 152.344 213.432C152.173 213.603 151.917 213.859 151.576 214.2C151.235 214.371 150.723 214.371 150.04 214.2C149.869 213.176 149.955 212.664 150.296 212.664C150.808 212.493 150.723 212.067 150.04 211.384C149.699 211.896 149.272 212.152 148.76 212.152C148.248 211.981 147.736 211.896 147.224 211.896C146.883 211.725 146.541 211.64 146.2 211.64C146.029 211.64 146.029 211.981 146.2 212.664H144.92C144.749 211.811 144.067 211.555 142.872 211.896C141.848 212.237 140.995 212.323 140.312 212.152C139.459 212.152 139.373 212.493 140.056 213.176C140.909 213.688 141.507 214.029 141.848 214.2C141.165 215.053 139.971 215.309 138.264 214.968C136.557 214.627 135.021 214.627 133.656 214.968C133.485 214.115 133.485 213.688 133.656 213.688C133.827 213.517 133.997 213.517 134.168 213.688C134.509 213.859 134.765 214.029 134.936 214.2C135.107 214.2 135.192 213.944 135.192 213.432C133.656 212.579 131.608 212.323 129.048 212.664C126.659 213.005 124.525 213.261 122.648 213.432C122.819 213.944 123.075 214.2 123.416 214.2C123.928 214.2 124.44 214.2 124.952 214.2C122.904 215.736 120.771 216.76 118.552 217.272C116.504 217.784 114.285 218.125 111.896 218.296C109.507 218.467 107.032 218.723 104.472 219.064C102.083 219.235 99.5227 219.832 96.792 220.856C96.28 221.027 96.024 221.453 96.024 222.136C96.1947 222.648 96.1947 223.245 96.024 223.928C95.8533 223.416 95.512 223.245 95 223.416C94.488 223.587 93.8907 223.757 93.208 223.928C92.696 223.928 92.184 223.928 91.672 223.928C91.16 223.757 90.904 223.245 90.904 222.392C89.368 222.392 87.576 222.819 85.528 223.672C83.48 224.355 81.3467 224.952 79.128 225.464C76.9093 225.805 74.776 225.891 72.728 225.72C70.8507 225.379 69.3147 224.269 68.12 222.392C67.608 222.221 67.1813 222.307 66.84 222.648C66.6693 222.819 66.4987 223.075 66.328 223.416C66.1573 223.587 66.072 223.672 66.072 223.672C66.072 223.672 65.9867 223.245 65.816 222.392C65.304 222.392 65.048 222.733 65.048 223.416C65.2187 224.099 65.304 224.696 65.304 225.208C63.9387 225.037 63 225.208 62.488 225.72C62.1467 226.232 61.2933 226.317 59.928 225.976C59.928 225.464 59.928 224.952 59.928 224.44C59.928 223.757 59.672 223.331 59.16 223.16C58.136 223.501 57.9653 224.099 58.648 224.952C59.5013 225.805 59.5013 226.403 58.648 226.744C57.2827 218.04 56.344 208.995 55.832 199.608C55.32 190.221 54.296 181.347 52.76 172.984C54.296 178.957 55.4053 184.76 56.088 190.392C56.7707 195.853 57.368 201.827 57.88 208.312C58.904 203.533 59.0747 198.584 58.392 193.464C57.7093 188.173 57.0267 183.309 56.344 178.872C57.1973 179.384 57.7093 179.128 57.88 178.104C58.0507 176.909 57.7947 176.397 57.112 176.568V174.52C56.6 174.52 56.344 174.861 56.344 175.544C56.344 176.227 56.6 176.568 57.112 176.568C56.9413 177.592 56.6853 178.104 56.344 178.104C56.1733 178.104 56.0027 177.933 55.832 177.592C55.6613 177.08 55.4907 176.483 55.32 175.8C55.32 174.947 55.4053 174.264 55.576 173.752C55.9173 173.581 56.2587 173.496 56.6 173.496C56.9413 173.496 57.112 173.325 57.112 172.984C57.7947 173.155 58.0507 172.728 57.88 171.704C57.7093 170.509 57.1973 170.168 56.344 170.68C56.344 169.997 56.6 169.144 57.112 168.12C57.624 166.925 57.368 166.072 56.344 165.56V161.976C56.856 161.976 57.112 162.488 57.112 163.512C57.9653 163.512 58.2213 163 57.88 161.976C57.5387 160.952 57.5387 160.184 57.88 159.672C57.368 159.672 57.0267 160.013 56.856 160.696C56.856 161.208 56.6853 161.123 56.344 160.44C55.32 159.245 55.832 158.733 57.88 158.904C57.5387 158.051 57.112 157.027 56.6 155.832C56.088 154.467 56.7707 153.784 58.648 153.784C58.3067 155.491 58.392 156.771 58.904 157.624C59.416 158.307 59.5013 159.501 59.16 161.208C60.184 159.331 60.3547 157.88 59.672 156.856C59.16 155.661 58.9893 154.125 59.16 152.248C58.136 152.248 57.112 152.76 56.088 153.784C55.064 154.808 54.3813 154.552 54.04 153.016C55.9173 153.187 56.6853 152.248 56.344 150.2C54.9787 149.859 54.2107 150.029 54.04 150.712C54.04 151.395 54.04 152.163 54.04 153.016C53.6987 153.016 53.3573 153.187 53.016 153.528C52.8453 153.869 52.504 153.955 51.992 153.784C51.48 149.176 51.1387 145.336 50.968 142.264C50.968 139.192 50.0293 136.632 48.152 134.584C48.152 133.901 48.3227 133.475 48.664 133.304C49.0053 132.963 49.0907 132.451 48.92 131.768C56.088 129.037 63.9387 126.819 72.472 125.112C81.0053 123.405 89.7947 121.955 98.84 120.76C107.885 119.565 116.845 118.627 125.72 117.944C134.765 117.091 143.128 116.237 150.808 115.384C153.027 114.872 155.416 114.275 157.976 113.592C160.536 112.739 163.011 112.056 165.4 111.544C167.96 110.861 170.349 110.435 172.568 110.264C174.787 110.093 176.835 110.349 178.712 111.032C177.859 112.227 177.261 113.08 176.92 113.592C176.749 114.104 177.091 114.957 177.944 116.152C176.579 115.811 175.896 115.981 175.896 116.664C175.896 117.176 176.323 117.517 177.176 117.688C177.005 118.712 176.408 119.224 175.384 119.224C174.531 119.224 173.933 119.651 173.592 120.504C173.763 121.016 173.933 121.272 174.104 121.272C174.275 121.272 174.531 121.187 174.872 121.016C175.213 120.845 175.555 120.675 175.896 120.504C176.237 120.333 176.664 120.333 177.176 120.504ZM178.712 145.08C178.541 144.739 178.541 144.739 178.712 145.08C179.053 145.251 179.053 145.251 178.712 145.08ZM56.344 147.128C56.0027 147.299 55.6613 147.384 55.32 147.384C54.9787 147.384 54.808 147.555 54.808 147.896C55.1493 147.725 55.4907 147.64 55.832 147.64C56.1733 147.64 56.344 147.469 56.344 147.128ZM174.36 150.968C175.384 151.48 175.896 150.968 175.896 149.432C175.896 147.896 175.64 147.128 175.128 147.128C175.469 148.152 175.384 148.835 174.872 149.176C174.36 149.517 174.189 150.115 174.36 150.968ZM52.76 149.432C52.4187 149.261 52.3333 149.347 52.504 149.688C52.8453 149.859 52.9307 149.773 52.76 149.432ZM57.112 150.2C57.2827 150.883 57.368 151.139 57.368 150.968C57.5387 150.797 57.624 150.541 57.624 150.2C57.624 149.688 57.5387 149.432 57.368 149.432C57.368 149.261 57.2827 149.517 57.112 150.2ZM172.056 150.2C171.885 149.859 171.885 149.859 172.056 150.2C172.397 150.541 172.397 150.541 172.056 150.2ZM175.128 152.248C174.957 153.272 174.872 153.784 174.872 153.784C174.872 153.613 174.872 153.357 174.872 153.016C175.043 152.504 175.128 152.077 175.128 151.736C175.128 151.395 175.128 151.565 175.128 152.248ZM144.92 154.552C144.579 154.381 144.493 154.467 144.664 154.808C145.005 154.979 145.091 154.893 144.92 154.552ZM175.896 156.088C175.725 155.747 175.384 155.576 174.872 155.576C174.531 155.405 174.36 155.576 174.36 156.088C174.701 155.917 174.957 156.003 175.128 156.344C175.299 156.685 175.555 156.6 175.896 156.088ZM133.656 156.856C133.485 156.515 133.485 156.515 133.656 156.856C133.997 157.027 133.997 157.027 133.656 156.856ZM175.128 160.44C175.299 160.269 175.469 160.013 175.64 159.672C175.811 159.331 175.896 158.989 175.896 158.648C175.896 158.136 175.811 157.795 175.64 157.624C175.469 157.283 175.043 157.197 174.36 157.368C174.36 158.051 174.36 158.733 174.36 159.416C174.36 159.928 174.616 160.269 175.128 160.44ZM145.432 160.44C145.091 160.611 144.749 160.696 144.408 160.696C144.237 160.696 144.152 160.867 144.152 161.208C144.493 161.037 144.749 160.952 144.92 160.952C145.261 160.952 145.432 160.781 145.432 160.44ZM173.592 166.328C174.104 166.669 174.445 166.669 174.616 166.328C174.957 165.816 175.128 165.304 175.128 164.792C175.128 164.28 175.043 163.853 174.872 163.512C174.701 163 174.531 162.744 174.36 162.744C173.507 163.597 173.336 164.28 173.848 164.792C174.36 165.133 174.275 165.645 173.592 166.328ZM149.272 164.792C149.443 165.645 149.528 165.987 149.528 165.816C149.699 165.645 149.784 165.389 149.784 165.048C149.784 164.536 149.699 164.195 149.528 164.024C149.528 163.853 149.443 164.109 149.272 164.792ZM144.152 166.328C145.005 166.328 145.773 166.328 146.456 166.328C147.309 166.157 147.736 165.645 147.736 164.792C145.859 164.792 144.664 165.304 144.152 166.328ZM137.496 167.864C138.349 166.669 139.203 166.328 140.056 166.84C141.08 167.352 142.189 167.181 143.384 166.328C143.043 166.328 142.531 166.243 141.848 166.072C141.165 165.901 140.483 165.816 139.8 165.816C139.288 165.645 138.776 165.731 138.264 166.072C137.752 166.243 137.496 166.84 137.496 167.864ZM136.728 166.328C136.387 166.499 136.045 166.584 135.704 166.584C135.363 166.584 135.192 166.755 135.192 167.096C135.533 166.925 135.875 166.84 136.216 166.84C136.557 166.84 136.728 166.669 136.728 166.328ZM147.736 167.096C147.224 167.779 147.053 168.291 147.224 168.632C147.395 168.803 147.651 168.888 147.992 168.888C148.333 168.888 148.504 168.717 148.504 168.376C148.675 168.035 148.419 167.608 147.736 167.096ZM74.008 168.632C73.8373 168.291 73.8373 168.291 74.008 168.632C74.3493 168.973 74.3493 168.973 74.008 168.632ZM173.592 168.632C173.421 168.291 173.421 168.291 173.592 168.632C173.933 168.973 173.933 168.973 173.592 168.632ZM59.16 169.4C58.9893 169.059 58.9893 169.059 59.16 169.4C59.5013 169.571 59.5013 169.571 59.16 169.4ZM126.488 168.632C125.464 168.632 124.952 168.888 124.952 169.4C125.293 169.229 125.549 169.144 125.72 169.144C126.061 169.144 126.317 168.973 126.488 168.632ZM146.2 169.4C146.541 169.912 146.712 169.997 146.712 169.656C146.883 169.315 146.712 169.229 146.2 169.4C146.029 168.717 145.859 168.547 145.688 168.888C145.688 169.229 145.859 169.4 146.2 169.4ZM120.6 170.68C121.965 170.68 122.904 170.253 123.416 169.4C121.539 169.059 120.6 169.485 120.6 170.68ZM173.592 169.912C173.763 170.765 173.848 171.107 173.848 170.936C174.019 170.765 174.104 170.509 174.104 170.168C174.104 169.656 174.019 169.315 173.848 169.144C173.848 168.973 173.763 169.229 173.592 169.912ZM172.056 189.112C172.227 190.136 172.397 190.648 172.568 190.648C172.739 190.477 172.824 190.136 172.824 189.624C172.824 188.941 172.824 188.173 172.824 187.32C172.824 186.467 172.824 185.869 172.824 185.528C173.165 183.651 173.336 181.603 173.336 179.384C173.507 177.165 173.848 174.776 174.36 172.216C174.019 171.704 173.507 171.448 172.824 171.448C173.165 174.349 173.08 176.824 172.568 178.872C172.056 180.749 171.885 182.968 172.056 185.528V189.112ZM146.968 174.52H148.504V172.984H146.968V174.52ZM149.272 173.752C149.443 174.435 149.528 174.691 149.528 174.52C149.699 174.349 149.784 174.093 149.784 173.752C149.784 173.24 149.699 172.984 149.528 172.984C149.528 172.813 149.443 173.069 149.272 173.752ZM152.088 175.288C152.941 175.117 153.368 175.203 153.368 175.544C153.368 175.885 153.197 176.227 152.856 176.568C154.051 176.909 155.075 176.653 155.928 175.8C156.099 174.605 155.757 173.923 154.904 173.752C154.221 173.581 153.539 173.325 152.856 172.984C152.856 173.837 152.6 174.605 152.088 175.288ZM171.288 174.52C171.117 174.179 171.117 174.179 171.288 174.52C171.629 174.861 171.629 174.861 171.288 174.52ZM59.928 175.288C59.7573 174.947 59.7573 174.947 59.928 175.288C60.2693 175.459 60.2693 175.459 59.928 175.288ZM135.192 174.52C134.851 174.52 134.509 174.605 134.168 174.776C133.827 174.776 133.656 174.947 133.656 175.288C134.68 174.947 135.192 174.691 135.192 174.52ZM144.92 174.52C143.896 174.52 143.384 174.776 143.384 175.288C143.725 175.117 143.981 175.032 144.152 175.032C144.493 175.032 144.749 174.861 144.92 174.52ZM156.696 175.288C156.355 174.947 156.355 174.947 156.696 175.288C157.037 175.459 157.037 175.459 156.696 175.288ZM158.744 175.8C157.72 175.971 157.549 176.397 158.232 177.08C158.915 177.763 159.085 177.336 158.744 175.8C159.256 175.8 159.512 175.715 159.512 175.544C159.683 175.203 159.683 174.947 159.512 174.776C159.341 174.435 159.085 174.349 158.744 174.52C158.573 174.691 158.573 175.117 158.744 175.8ZM146.968 180.408C146.456 180.749 146.371 180.92 146.712 180.92C147.053 180.92 147.139 180.749 146.968 180.408C147.309 180.408 147.565 180.579 147.736 180.92C147.907 181.091 148.163 181.176 148.504 181.176C148.675 180.493 149.016 180.067 149.528 179.896C150.04 179.555 150.637 179.299 151.32 179.128C152.173 178.957 152.941 178.872 153.624 178.872C154.307 178.701 154.819 178.445 155.16 178.104C153.624 177.763 151.576 177.592 149.016 177.592C146.627 177.421 145.005 177.848 144.152 178.872C145.347 178.531 146.029 178.445 146.2 178.616C146.371 178.787 146.627 179.384 146.968 180.408ZM169.24 180.408C168.899 180.237 168.813 180.323 168.984 180.664C169.325 180.835 169.411 180.749 169.24 180.408ZM141.08 180.408C140.739 180.408 140.397 180.493 140.056 180.664C139.715 180.664 139.544 180.835 139.544 181.176C139.885 181.005 140.227 180.92 140.568 180.92C140.909 180.92 141.08 180.749 141.08 180.408ZM135.192 182.456C135.192 182.797 135.021 183.053 134.68 183.224C134.509 183.395 134.424 183.651 134.424 183.992C135.277 184.333 135.96 184.077 136.472 183.224C136.984 182.371 136.557 182.115 135.192 182.456C134.851 181.944 134.68 181.859 134.68 182.2C134.68 182.541 134.851 182.627 135.192 182.456ZM137.496 183.992C138.861 184.333 139.715 184.163 140.056 183.48C140.568 182.627 140.227 182.115 139.032 181.944C138.861 182.456 138.605 182.797 138.264 182.968C137.923 183.139 137.667 183.48 137.496 183.992ZM149.272 184.76C149.272 184.248 149.443 183.992 149.784 183.992C150.296 183.821 150.723 183.736 151.064 183.736C151.576 183.565 151.832 183.395 151.832 183.224C152.003 183.053 151.832 182.627 151.32 181.944C151.32 182.115 151.064 182.285 150.552 182.456C150.04 182.627 149.528 182.797 149.016 182.968C148.675 183.139 148.419 183.395 148.248 183.736C148.077 183.907 148.419 184.248 149.272 184.76ZM141.848 183.224C142.019 184.077 142.104 184.419 142.104 184.248C142.275 184.077 142.36 183.821 142.36 183.48C142.36 182.968 142.275 182.627 142.104 182.456C142.104 182.285 142.019 182.541 141.848 183.224ZM130.072 183.992C130.243 184.845 130.328 185.187 130.328 185.016C130.499 184.845 130.584 184.589 130.584 184.248C130.584 183.736 130.499 183.395 130.328 183.224C130.328 183.053 130.243 183.309 130.072 183.992ZM181.016 183.992C180.675 183.821 180.675 183.907 181.016 184.248C181.357 184.419 181.357 184.333 181.016 183.992ZM132.376 186.296C132.035 186.125 131.949 186.211 132.12 186.552C132.461 186.723 132.547 186.637 132.376 186.296ZM140.312 185.528C139.971 185.699 139.629 185.784 139.288 185.784C139.117 185.784 139.032 185.955 139.032 186.296C139.373 186.125 139.629 186.04 139.8 186.04C140.141 186.04 140.312 185.869 140.312 185.528ZM181.016 186.296C180.675 186.125 180.675 186.211 181.016 186.552C181.357 186.723 181.357 186.637 181.016 186.296ZM174.36 187.832C174.189 187.491 174.189 187.491 174.36 187.832C174.701 188.003 174.701 188.003 174.36 187.832ZM181.016 187.832C180.675 187.491 180.675 187.491 181.016 187.832C181.357 188.003 181.357 188.003 181.016 187.832ZM167.704 192.952C167.533 192.611 167.533 192.611 167.704 192.952C168.045 193.293 168.045 193.293 167.704 192.952ZM168.472 198.84C168.472 198.157 168.472 197.987 168.472 198.328C168.472 198.499 168.387 198.84 168.216 199.352C168.216 199.864 168.216 200.205 168.216 200.376C168.216 200.376 168.301 199.864 168.472 198.84ZM143.384 206.776C143.555 207.459 143.725 207.715 143.896 207.544C144.237 207.373 144.408 207.117 144.408 206.776C144.408 206.435 144.323 206.179 144.152 206.008C144.152 205.837 143.896 206.093 143.384 206.776ZM57.88 210.616H59.16V209.08H57.88V210.616ZM150.04 209.08C149.528 209.251 149.016 209.336 148.504 209.336C148.163 209.336 147.907 209.507 147.736 209.848C148.077 209.677 148.504 209.592 149.016 209.592C149.528 209.592 149.869 209.421 150.04 209.08ZM174.36 209.848C174.701 210.36 174.872 210.531 174.872 210.36C174.872 210.019 174.701 209.848 174.36 209.848C174.019 209.336 173.763 209.251 173.592 209.592C173.592 209.763 173.848 209.848 174.36 209.848ZM58.648 212.664C58.3067 212.493 58.2213 212.579 58.392 212.92C58.7333 213.091 58.8187 213.005 58.648 212.664ZM63 214.968C63.1707 215.651 63.256 215.907 63.256 215.736C63.4267 215.565 63.512 215.309 63.512 214.968C63.512 214.627 63.4267 214.371 63.256 214.2C63.256 214.029 63.1707 214.285 63 214.968ZM114.456 214.968C113.944 215.309 113.859 215.565 114.2 215.736C114.541 215.736 114.627 215.48 114.456 214.968C115.139 214.627 115.309 214.456 114.968 214.456C114.627 214.456 114.456 214.627 114.456 214.968ZM119.832 214.2C119.32 214.371 118.808 214.456 118.296 214.456C117.784 214.456 117.528 214.627 117.528 214.968C117.869 214.968 118.296 214.968 118.808 214.968C119.32 214.968 119.661 214.712 119.832 214.2ZM120.6 214.968C120.259 214.797 120.173 214.883 120.344 215.224C120.685 215.395 120.771 215.309 120.6 214.968ZM167.704 214.968C167.875 215.651 167.96 215.907 167.96 215.736C168.131 215.565 168.216 215.309 168.216 214.968C168.216 214.627 168.131 214.371 167.96 214.2C167.96 214.029 167.875 214.285 167.704 214.968ZM107.288 216.504C106.947 216.333 106.947 216.419 107.288 216.76C107.629 216.931 107.629 216.845 107.288 216.504ZM63.768 217.272C63.9387 217.955 64.024 218.211 64.024 218.04C64.1947 217.869 64.28 217.613 64.28 217.272C64.28 216.76 64.1947 216.504 64.024 216.504C64.024 216.333 63.9387 216.589 63.768 217.272ZM63.768 222.392C63.4267 222.563 63.0853 222.648 62.744 222.648C62.4027 222.648 62.232 222.819 62.232 223.16C62.5733 222.989 62.9147 222.904 63.256 222.904C63.5973 222.904 63.768 222.733 63.768 222.392ZM61.464 224.696C61.2933 224.355 61.2933 224.355 61.464 224.696C61.8053 224.867 61.8053 224.867 61.464 224.696ZM77.08 110.264H77.592C77.9333 111.459 77.6773 111.971 76.824 111.8C76.1413 111.629 75.4587 111.629 74.776 111.8C74.776 111.117 75.1173 110.861 75.8 111.032C76.4827 111.032 76.9093 110.776 77.08 110.264ZM83.736 111.032C84.248 110.349 84.504 110.093 84.504 110.264C84.6747 110.435 84.76 110.691 84.76 111.032C84.76 111.373 84.5893 111.629 84.248 111.8C84.0773 111.971 83.9067 111.715 83.736 111.032ZM79.128 111.8C79.2987 111.288 79.5547 111.032 79.896 111.032C80.408 111.032 80.7493 111.117 80.92 111.288C81.2613 111.459 81.2613 111.629 80.92 111.8C80.7493 111.971 80.152 111.971 79.128 111.8ZM74.776 111.8C74.776 112.141 74.6053 112.312 74.264 112.312C74.0933 112.312 74.264 112.141 74.776 111.8ZM79.128 111.8C79.2987 112.141 79.2133 112.312 78.872 112.312C78.5307 112.312 78.616 112.141 79.128 111.8ZM219.16 115.384C219.501 114.872 219.757 114.701 219.928 114.872C220.269 115.043 220.44 115.299 220.44 115.64C220.44 115.981 220.355 116.237 220.184 116.408C220.013 116.579 219.672 116.237 219.16 115.384ZM219.16 119.992C219.331 119.309 219.501 119.053 219.672 119.224C219.843 119.224 219.928 119.48 219.928 119.992C219.928 120.333 219.843 120.589 219.672 120.76C219.501 120.931 219.331 120.675 219.16 119.992ZM177.176 120.504C177.176 120.163 177.261 120.077 177.432 120.248C177.773 120.248 177.688 120.333 177.176 120.504ZM208.92 121.272C209.091 120.76 209.261 120.589 209.432 120.76C209.603 120.931 209.688 121.357 209.688 122.04C209.688 122.552 209.688 123.149 209.688 123.832C209.688 124.515 209.688 124.941 209.688 125.112C209.347 125.624 209.091 125.795 208.92 125.624C208.92 125.453 208.92 125.112 208.92 124.6C208.92 124.088 208.92 123.491 208.92 122.808C208.92 122.125 208.92 121.613 208.92 121.272ZM27.672 123.576C28.0133 123.917 28.0133 124.003 27.672 123.832C27.3307 123.491 27.3307 123.405 27.672 123.576ZM220.696 125.88C220.184 125.709 219.928 125.368 219.928 124.856C220.099 124.173 220.099 123.491 219.928 122.808C221.123 123.149 221.549 123.491 221.208 123.832C221.037 124.173 220.867 124.856 220.696 125.88ZM26.904 125.88C26.7333 125.539 26.7333 125.539 26.904 125.88C27.2453 126.221 27.2453 126.221 26.904 125.88ZM220.696 125.88C221.208 125.88 221.464 126.051 221.464 126.392C221.464 126.563 221.379 126.819 221.208 127.16C221.037 127.331 220.867 127.416 220.696 127.416C220.525 127.245 220.525 126.733 220.696 125.88ZM209.688 126.648C210.541 126.819 210.797 127.331 210.456 128.184C210.115 129.037 209.603 128.952 208.92 127.928C209.091 127.587 209.261 127.416 209.432 127.416C209.603 127.245 209.688 126.989 209.688 126.648ZM219.928 133.048C220.611 132.024 220.781 131.256 220.44 130.744C220.269 130.232 220.355 129.293 220.696 127.928C220.867 127.928 221.037 128.269 221.208 128.952C221.549 129.635 221.72 130.317 221.72 131C221.72 131.683 221.549 132.28 221.208 132.792C221.037 133.304 220.611 133.389 219.928 133.048ZM28.44 130.232C28.6107 130.573 28.5253 130.659 28.184 130.488C28.0133 130.147 28.0987 130.061 28.44 130.232ZM209.688 130.232C209.859 129.549 209.944 129.293 209.944 129.464C210.115 129.635 210.2 129.891 210.2 130.232C210.2 130.573 210.115 130.829 209.944 131C209.944 131.171 209.859 130.915 209.688 130.232ZM209.688 132.536C210.2 131.853 210.456 131.768 210.456 132.28C210.456 132.792 210.371 133.304 210.2 133.816C210.2 134.328 210.115 134.584 209.944 134.584C209.773 134.584 209.688 133.901 209.688 132.536ZM27.672 133.816C27.5013 133.475 27.5867 133.389 27.928 133.56C28.2693 133.56 28.184 133.645 27.672 133.816ZM209.688 135.352C210.2 135.352 210.456 135.523 210.456 135.864C210.456 136.205 210.456 136.632 210.456 137.144C210.456 137.656 210.456 138.168 210.456 138.68C210.456 139.021 210.712 139.107 211.224 138.936C210.371 140.301 209.859 140.301 209.688 138.936C209.517 137.4 209.517 136.205 209.688 135.352ZM26.904 138.936C26.904 138.595 26.904 138.168 26.904 137.656C26.904 137.144 27.16 136.888 27.672 136.888C27.5013 137.229 27.416 137.656 27.416 138.168C27.416 138.68 27.2453 138.936 26.904 138.936ZM28.44 138.936C28.6107 139.277 28.5253 139.363 28.184 139.192C28.0133 138.851 28.0987 138.765 28.44 138.936ZM48.92 145.08C48.2373 144.227 47.896 143.203 47.896 142.008C47.896 140.643 47.7253 139.448 47.384 138.424C48.7493 138.595 49.2613 139.448 48.92 140.984C48.7493 142.349 48.7493 143.715 48.92 145.08ZM28.44 140.472C28.6107 139.789 28.696 139.533 28.696 139.704C28.8667 139.875 28.952 140.216 28.952 140.728C28.952 141.069 28.8667 141.325 28.696 141.496C28.696 141.667 28.6107 141.325 28.44 140.472ZM48.92 161.976C48.0667 158.563 47.4693 154.979 47.128 151.224C46.7867 147.469 46.4453 143.629 46.104 139.704C47.128 142.947 47.8107 146.445 48.152 150.2C48.4933 153.955 48.7493 157.88 48.92 161.976ZM28.44 143.544C28.2693 144.568 28.184 145.08 28.184 145.08C28.184 144.909 28.184 144.568 28.184 144.056C28.3547 143.544 28.44 143.203 28.44 143.032C28.44 142.691 28.44 142.861 28.44 143.544ZM26.904 145.592C27.0747 144.909 27.16 144.653 27.16 144.824C27.3307 144.995 27.416 145.336 27.416 145.848C27.416 146.189 27.3307 146.445 27.16 146.616C27.16 146.787 27.0747 146.445 26.904 145.592ZM48.92 145.08C49.432 145.08 49.688 145.336 49.688 145.848C49.688 146.36 49.688 146.957 49.688 147.64C49.688 148.152 49.688 148.749 49.688 149.432C49.688 149.944 49.944 150.2 50.456 150.2C49.944 150.883 49.5173 151.053 49.176 150.712C49.0053 150.371 48.92 149.859 48.92 149.176C48.92 148.493 48.92 147.725 48.92 146.872C48.92 146.019 48.92 145.421 48.92 145.08ZM28.44 146.36C28.7813 145.848 28.952 145.848 28.952 146.36C29.1227 146.701 29.1227 147.128 28.952 147.64C28.7813 148.152 28.6107 148.408 28.44 148.408C28.44 148.408 28.44 147.725 28.44 146.36ZM28.44 150.2C28.7813 149.517 28.952 149.432 28.952 149.944C29.1227 150.456 29.1227 150.968 28.952 151.48C28.7813 151.992 28.6107 152.248 28.44 152.248C28.44 152.248 28.44 151.565 28.44 150.2ZM210.456 150.2C210.627 149.517 210.712 149.261 210.712 149.432C210.883 149.432 210.968 149.688 210.968 150.2C210.968 150.541 210.883 150.797 210.712 150.968C210.712 151.139 210.627 150.883 210.456 150.2ZM48.92 152.248C49.0907 151.565 49.2613 151.565 49.432 152.248C49.6027 152.76 49.688 153.443 49.688 154.296C49.688 154.979 49.688 155.405 49.688 155.576C49.688 155.576 49.688 154.723 49.688 153.016C49.688 152.845 49.5173 152.675 49.176 152.504C49.0053 152.163 48.92 152.077 48.92 152.248ZM26.904 153.016C27.0747 152.333 27.16 152.077 27.16 152.248C27.3307 152.419 27.416 152.76 27.416 153.272C27.416 153.613 27.3307 153.869 27.16 154.04C27.16 154.211 27.0747 153.869 26.904 153.016ZM210.456 155.32C210.456 154.979 210.627 154.808 210.968 154.808C211.309 154.808 211.651 154.723 211.992 154.552C211.992 154.893 211.821 155.064 211.48 155.064C211.139 155.064 210.797 155.149 210.456 155.32ZM28.44 156.856C28.2693 157.88 28.184 158.392 28.184 158.392C28.184 158.221 28.184 157.88 28.184 157.368C28.3547 156.856 28.44 156.515 28.44 156.344C28.44 156.003 28.44 156.173 28.44 156.856ZM53.272 156.856C52.9307 156.856 52.76 156.685 52.76 156.344C52.9307 156.003 53.1013 156.173 53.272 156.856ZM53.272 156.856C53.784 156.685 53.9547 156.771 53.784 157.112C53.784 157.453 53.6133 157.368 53.272 156.856ZM49.688 157.368C51.0533 157.709 51.5653 158.733 51.224 160.44C51.0533 161.976 51.3093 163.171 51.992 164.024C50.6267 163.853 50.0293 163 50.2 161.464C50.3707 159.757 50.2 158.392 49.688 157.368ZM53.272 159.672C52.76 159.672 52.504 159.587 52.504 159.416C52.504 159.075 52.5893 158.819 52.76 158.648C52.9307 158.307 53.1013 158.221 53.272 158.392C53.4427 158.563 53.4427 158.989 53.272 159.672ZM53.272 159.672C53.9547 159.672 54.3813 159.843 54.552 160.184C54.7227 160.525 54.6373 160.781 54.296 160.952C54.1253 161.123 53.8693 161.208 53.528 161.208C53.3573 161.037 53.272 160.525 53.272 159.672ZM187.672 161.976C187.843 162.317 187.757 162.403 187.416 162.232C187.245 161.891 187.331 161.805 187.672 161.976ZM211.224 161.976C211.053 163 210.968 163.512 210.968 163.512C210.968 163.341 210.968 163 210.968 162.488C211.139 161.976 211.224 161.635 211.224 161.464C211.224 161.123 211.224 161.293 211.224 161.976ZM48.92 161.976C50.2853 165.901 51.0533 170.339 51.224 175.288C50.3707 173.411 49.7733 171.363 49.432 169.144C49.2613 166.755 49.0907 164.365 48.92 161.976ZM54.808 161.976C54.1253 162.659 53.9547 163.085 54.296 163.256C54.6373 163.256 54.808 163.768 54.808 164.792C54.296 165.133 53.8693 165.133 53.528 164.792C53.3573 164.451 53.272 164.024 53.272 163.512C53.272 163 53.3573 162.573 53.528 162.232C53.8693 161.72 54.296 161.635 54.808 161.976ZM28.44 166.328C28.6107 166.669 28.5253 166.755 28.184 166.584C28.0133 166.243 28.0987 166.157 28.44 166.328ZM51.224 166.328C51.3947 165.645 51.48 165.389 51.48 165.56C51.6507 165.731 51.736 165.987 51.736 166.328C51.736 166.669 51.6507 166.925 51.48 167.096C51.48 167.267 51.3947 167.011 51.224 166.328ZM56.344 165.56C56.1733 165.901 56.088 166.243 56.088 166.584C56.088 166.925 55.9173 167.096 55.576 167.096C55.7467 166.755 55.832 166.413 55.832 166.072C55.832 165.731 56.0027 165.56 56.344 165.56ZM55.576 167.096C55.576 167.949 55.32 168.717 54.808 169.4C54.1253 169.571 53.8693 169.059 54.04 167.864C54.2107 166.669 54.7227 166.413 55.576 167.096ZM51.992 168.632C52.504 168.12 52.76 168.205 52.76 168.888C52.76 169.4 52.6747 169.912 52.504 170.424C52.3333 170.936 52.1627 171.192 51.992 171.192C51.8213 171.192 51.8213 170.339 51.992 168.632ZM27.672 169.4C27.3307 169.059 27.3307 169.059 27.672 169.4C28.0133 169.571 28.0133 169.571 27.672 169.4ZM28.44 170.68C27.928 171.363 27.5013 171.619 27.16 171.448C26.9893 171.277 26.904 171.021 26.904 170.68C27.0747 170.339 27.2453 170.083 27.416 169.912C27.7573 169.741 28.0987 169.997 28.44 170.68ZM28.44 170.68C28.7813 170.68 28.8667 170.851 28.696 171.192C28.696 171.363 28.6107 171.192 28.44 170.68ZM57.112 172.984C56.6 172.984 56.344 172.813 56.344 172.472C56.344 172.131 56.4293 171.875 56.6 171.704C56.7707 171.533 56.9413 171.533 57.112 171.704C57.2827 171.875 57.2827 172.301 57.112 172.984ZM26.904 173.752C26.904 173.411 27.0747 173.069 27.416 172.728C27.928 172.387 28.2693 172.472 28.44 172.984C28.44 174.52 27.928 174.776 26.904 173.752ZM52.76 172.984C52.248 172.984 51.992 172.899 51.992 172.728C52.1627 172.387 52.4187 172.472 52.76 172.984ZM55.576 173.752C55.064 173.752 54.808 173.581 54.808 173.24C54.808 172.899 54.8933 172.643 55.064 172.472C55.2347 172.301 55.4053 172.301 55.576 172.472C55.7467 172.643 55.7467 173.069 55.576 173.752ZM51.224 175.288C52.0773 175.459 52.3333 176.141 51.992 177.336C51.6507 178.531 51.6507 179.555 51.992 180.408H51.224V175.288ZM28.44 175.8C29.2933 176.141 29.464 176.739 28.952 177.592C28.44 178.275 27.7573 178.445 26.904 178.104C27.0747 177.592 27.3307 177.251 27.672 177.08C28.0133 176.909 28.2693 176.483 28.44 175.8ZM28.44 179.64C28.6107 178.957 28.696 178.701 28.696 178.872C28.8667 178.872 28.952 179.128 28.952 179.64C28.952 179.981 28.8667 180.237 28.696 180.408C28.696 180.579 28.6107 180.323 28.44 179.64ZM51.224 180.408C51.3947 181.432 51.3947 182.029 51.224 182.2C51.0533 182.371 50.8827 182.371 50.712 182.2C50.5413 182.029 50.456 181.773 50.456 181.432C50.456 180.92 50.712 180.579 51.224 180.408ZM51.992 180.408C52.504 180.579 52.76 180.92 52.76 181.432C52.76 181.773 52.6747 182.029 52.504 182.2C52.3333 182.371 52.1627 182.371 51.992 182.2C51.8213 182.029 51.8213 181.432 51.992 180.408ZM26.904 181.176C27.416 181.176 27.672 181.432 27.672 181.944C26.9893 181.603 26.7333 181.347 26.904 181.176ZM51.992 183.224C52.1627 183.736 52.504 184.589 53.016 185.784C53.528 186.979 53.8693 188.259 54.04 189.624C54.3813 190.819 54.3813 192.013 54.04 193.208C53.8693 194.232 53.1867 194.829 51.992 195V192.184C52.3333 192.184 52.504 192.355 52.504 192.696C52.6747 192.867 52.9307 192.952 53.272 192.952C53.6133 191.928 53.1867 191.416 51.992 191.416C53.016 190.904 53.272 190.307 52.76 189.624C52.4187 188.941 52.4187 187.832 52.76 186.296C52.248 186.296 51.992 186.808 51.992 187.832C50.7973 187.32 50.5413 186.723 51.224 186.04C52.0773 185.187 52.3333 184.248 51.992 183.224ZM54.04 195C54.7227 195.853 54.9787 196.451 54.808 196.792C54.808 197.133 54.6373 197.304 54.296 197.304C53.9547 197.304 53.6987 197.133 53.528 196.792C53.3573 196.28 53.528 195.683 54.04 195ZM211.224 195.768C210.883 195.768 210.712 195.683 210.712 195.512C210.712 195.341 210.883 195.171 211.224 195V195.768ZM211.224 198.072C210.712 198.413 210.541 198.584 210.712 198.584C211.053 198.584 211.224 198.413 211.224 198.072ZM54.04 198.84C55.064 203.277 55.576 207.629 55.576 211.896C55.576 216.163 56.088 221.368 57.112 227.512C54.8933 225.805 53.6987 223.075 53.528 219.32C53.528 215.395 53.4427 211.725 53.272 208.312C53.272 206.435 53.3573 204.728 53.528 203.192C53.6987 201.656 53.8693 200.205 54.04 198.84ZM211.224 211.384C211.053 211.043 211.053 211.043 211.224 211.384C211.565 211.725 211.565 211.725 211.224 211.384ZM142.616 213.432C142.104 213.603 141.848 213.517 141.848 213.176C142.019 212.835 142.275 212.92 142.616 213.432ZM144.152 213.432C144.152 212.92 144.408 212.664 144.92 212.664C144.579 213.347 144.323 213.603 144.152 213.432ZM146.2 212.664C146.712 212.664 146.968 212.835 146.968 213.176C147.139 213.517 147.139 213.773 146.968 213.944C146.797 214.115 146.541 214.2 146.2 214.2C146.029 214.029 146.029 213.517 146.2 212.664ZM130.84 215.736H125.72C126.232 214.371 127.085 213.688 128.28 213.688C129.475 213.517 130.328 214.2 130.84 215.736ZM144.152 213.432C144.152 213.773 143.896 214.029 143.384 214.2C143.043 214.2 142.787 213.944 142.616 213.432H144.152ZM212.76 218.808C211.907 218.467 211.565 217.699 211.736 216.504C212.077 215.309 212.163 214.285 211.992 213.432C211.139 213.773 210.797 214.627 210.968 215.992C211.309 217.357 211.395 218.467 211.224 219.32C211.395 219.832 211.651 220.003 211.992 219.832C212.333 219.491 212.589 219.149 212.76 218.808ZM132.376 214.968C132.547 215.309 132.461 215.395 132.12 215.224C131.949 214.883 132.035 214.797 132.376 214.968ZM214.04 220.088C214.211 220.6 214.125 220.856 213.784 220.856C213.443 220.685 213.528 220.429 214.04 220.088ZM239.128 255.672C239.128 255.843 239.043 256.013 238.872 256.184C238.701 256.184 238.531 256.013 238.36 255.672H239.128ZM220.696 257.72C220.867 257.037 221.037 256.781 221.208 256.952C221.379 257.123 221.464 257.464 221.464 257.976C221.464 258.317 221.379 258.573 221.208 258.744C221.037 258.915 220.867 258.573 220.696 257.72ZM3.864 265.144C4.888 265.997 5.4 266.765 5.4 267.448C5.57067 268.301 5.48534 268.813 5.144 268.984C4.97333 269.155 4.71733 268.984 4.376 268.472C4.03467 267.96 3.864 266.851 3.864 265.144ZM6.936 274.104C6.76533 273.763 6.76533 273.677 6.936 273.848C7.27733 274.189 7.27733 274.275 6.936 274.104Z" fill="#CF1178"/>
</svg>
