<?xml version="1.0" encoding="UTF-8"?>
<svg id="Layer_1" data-name="Layer 1" xmlns="http://www.w3.org/2000/svg" xmlns:xlink="http://www.w3.org/1999/xlink" viewBox="0 0 53.77 59.17">
  <defs>
    <style>
      .cls-1 {
        filter: url(#luminosity-invert);
      }

      .cls-2 {
        fill: none;
        mask: url(#mask);
      }

      .cls-3 {
        fill: url(#linear-gradient);
      }
    </style>
    <filter id="luminosity-invert" x="0" y="0" width="53.77" height="59.17" color-interpolation-filters="sRGB" filterUnits="userSpaceOnUse">
      <feColorMatrix result="cm" values="-1 0 0 0 1 0 -1 0 0 1 0 0 -1 0 1 0 0 0 1 0"/>
    </filter>
    <mask id="mask" x="0" y="0" width="53.77" height="59.17" maskUnits="userSpaceOnUse">
      <g class="cls-1">
        <path d="m22,29.4c0,.76-.22,1.5-.63,2.13-.41.63-.99,1.12-1.68,1.41-.68.29-1.43.37-2.16.22-.72-.15-1.39-.51-1.91-1.05-.52-.54-.88-1.22-1.02-1.96-.14-.74-.07-1.51.21-2.22.28-.7.76-1.3,1.37-1.72.61-.42,1.34-.65,2.07-.65.99,0,1.94.4,2.64,1.12s1.09,1.69,1.09,2.71Zm13.87-3.83c-.74,0-1.46.22-2.07.65-.61.42-1.09,1.02-1.37,1.72-.28.7-.36,1.47-.21,2.22.14.74.5,1.43,1.02,1.96.52.54,1.19.9,1.91,1.05.72.15,1.47.07,2.16-.22.68-.29,1.26-.78,1.68-1.41.41-.63.63-1.37.63-2.13,0-1.02-.39-1.99-1.09-2.71-.7-.72-1.65-1.12-2.64-1.12Zm16.53-1.05c-.49-.7-1.09-1.3-1.78-1.79C48.84,9.85,38.8,0,27.03,0h-.08C15.18,0,5.14,9.85,3.36,22.72c-.69.49-1.29,1.1-1.78,1.79-.89,1.26-1.36,2.78-1.36,4.34,0,4.12,3.25,7.34,7.26,7.34h.13v-4.66h-.17c-.73,0-1.43-.31-1.95-.85-.52-.53-.8-1.26-.8-2.01,0-1.58,1.36-2.85,2.9-2.86h.08c.1-1.47.29-2.93.55-4.37h-.01c1.9-9.66,9.66-16.9,18.73-16.9h.11c9.07,0,16.82,7.23,18.72,16.89h-.01c.27,1.45.45,2.91.56,4.38h.08c1.54.01,2.9,1.28,2.9,2.86,0,.75-.29,1.47-.8,2.01-.51.53-1.21.84-1.95.85h-.17v4.66h.13c4.01,0,7.26-3.22,7.26-7.34,0-1.56-.48-3.08-1.37-4.34h0Zm-6.03,15.19v8.69c0,.72-.14,1.43-.4,2.09-.27.66-.66,1.27-1.15,1.77-.49.51-1.08.91-1.73,1.19-.65.27-1.34.42-2.04.42h-6.84c-5.06,0-5.08,5.15-5.08,5.21h-4.31c0-.06-.02-5.21-5.08-5.21h-6.83c-1.41,0-2.77-.58-3.76-1.6-1-1.03-1.56-2.42-1.56-3.87v-8.69c1.14,0,2.24.47,3.05,1.3.81.83,1.26,1.95,1.26,3.13v3.5s0,.98.86.98h3.56v-4.52c0-.39.08-.79.22-1.15.15-.36.36-.7.63-.97.27-.28.59-.5.95-.65.35-.15.74-.23,1.12-.23h3.76c2.79,0,2.79-2.86,2.79-2.87h2.37s0,2.87,2.79,2.87h3.76c.38,0,.76.08,1.12.23.35.15.68.37.95.65.27.28.49.61.63.97.15.36.22.75.22,1.15v4.51h3.56c.85,0,.86-.98.86-.98v-3.5c0-1.17.45-2.3,1.26-3.13.81-.83,1.9-1.3,3.04-1.3Zm-11.1,4.81s0-.54-.47-.54h-4.29c-1.05,0-1.86-.2-2.42-.6-.56-.4-.91-1.05-1.11-1.96-.2.91-.55,1.56-1.11,1.96-.56.4-1.36.6-2.42.6h-4.28c-.47,0-.47.54-.47.54v4.09h1.86c1.92,0,3.38.36,4.4,1.08,1.02.72,1.66,1.91,2.02,3.57.36-1.66,1-2.84,2.02-3.57,1.02-.72,2.48-1.08,4.4-1.08h1.87v-4.09Z"/>
      </g>
    </mask>
    <linearGradient id="linear-gradient" x1="26.89" y1="3.9" x2="26.89" y2="55.95" gradientUnits="userSpaceOnUse">
      <stop offset="0" stop-color="#817f82"/>
      <stop offset="1" stop-color="#e7e7e7"/>
    </linearGradient>
  </defs>
  <g class="cls-2">
    <rect class="cls-3" width="53.77" height="59.17"/>
  </g>
</svg>