 <svg
    width="256"
    height="257"
    viewBox="0 0 256 257"
    class="fill"
    xmlns="http://www.w3.org/2000/svg"
  >
    <path
      d="M94.7377 7.65574H88.4426H87.3934H81.0984H52.7705C27.8543 7.65574 7.65574 27.8543 7.65574 52.7705V82.1475V89.4918V96.8361V163.984V171.328V178.672V199.656C7.65574 226.89 29.7332 248.967 56.9672 248.967H81.0984H87.3934H88.4426H94.7377H118.869C146.103 248.967 168.18 226.89 168.18 199.656V178.672V171.328H174.475H207C229.598 171.328 247.918 153.008 247.918 130.41V96.8361V89.4918V82.1475V52.7705C247.918 27.8543 227.719 7.65574 202.803 7.65574H174.475H168.18H167.131H160.836H94.7377Z"
      stroke="black"
      stroke-width="14.6885"></path>
  </svg>