<svg 
    aria-hidden="true"
    class="fill"
    viewBox="0 0 105 121"  
    xmlns="http://www.w3.org/2000/svg">
<path 
      d="M55.147 0.100881C61.7433 3.83325e-07 68.2912 0.0524578 74.8351 0C75.0527 8.19552 78.373 15.5719 83.6557 21.0356L83.6477 21.0275C89.3333 26.1563 96.7315 29.4813 104.887 30.0462L105 30.0543V50.3756C97.2956 50.182 90.0505 48.4024 83.5187 45.3437L83.8491 45.4809C80.69 43.9596 78.0184 42.398 75.4798 40.6548L75.6894 40.792C75.641 55.5165 75.7377 70.241 75.5886 84.9131C75.1736 92.3903 72.6914 99.2098 68.7103 104.904L68.7909 104.778C62.1341 114.326 51.3512 120.592 39.0894 120.964H39.033C38.5373 120.988 37.9531 121 37.3648 121C30.3937 121 23.878 119.055 18.3254 115.678L18.4865 115.77C8.38053 109.681 1.40949 99.2623 0.120046 87.1445L0.103928 86.9791C0.00319057 84.4571 -0.0451638 81.9351 0.0555738 79.4655C2.03003 60.1812 18.1642 45.263 37.7758 45.263C39.9799 45.263 42.1397 45.4527 44.2391 45.8118L44.0134 45.7795C44.1142 53.2406 43.812 60.7058 43.812 68.1669C42.1075 67.5495 40.1411 67.1904 38.0901 67.1904C30.563 67.1904 24.1601 72.0084 21.7907 78.7351L21.7545 78.8562C21.2185 80.5792 20.9083 82.5605 20.9083 84.6104C20.9083 85.4417 20.9606 86.2649 21.0574 87.0719L21.0493 86.9751C22.3871 95.2311 29.4548 101.461 37.9773 101.461C38.223 101.461 38.4648 101.457 38.7066 101.445H38.6703C44.5655 101.268 49.683 98.0921 52.5761 93.3991L52.6164 93.3265C53.6923 91.8254 54.4297 90.0095 54.6755 88.0363L54.6796 87.9798C55.1832 78.953 54.9818 69.9787 55.0301 60.9519C55.0785 40.6306 54.9818 20.3577 55.1309 0.0887751L55.147 0.100881Z" fill="currentColor" />
</svg>
