<svg xmlns="http://www.w3.org/2000/svg" xmlns:xlink="http://www.w3.org/1999/xlink" width="1941.513" height="3038.491" viewBox="0 0 1941.513 3038.491">
  <defs>
    <linearGradient id="linear-gradient" x1="-52.379" y1="24.203" x2="-52.691" y2="24.819" gradientUnits="objectBoundingBox">
      <stop offset="0" stop-color="#114a8b"/>
      <stop offset="1" stop-color="#0669bc"/>
    </linearGradient>
    <linearGradient id="linear-gradient-2" x1="-37.482" y1="24.489" x2="-37.534" y2="24.506" gradientUnits="objectBoundingBox">
      <stop offset="0" stop-opacity="0.302"/>
      <stop offset="0.071" stop-opacity="0.2"/>
      <stop offset="0.321" stop-opacity="0.102"/>
      <stop offset="0.623" stop-opacity="0.051"/>
      <stop offset="1" stop-opacity="0"/>
    </linearGradient>
    <linearGradient id="linear-gradient-3" x1="-50.157" y1="24.183" x2="-49.831" y2="24.794" gradientUnits="objectBoundingBox">
      <stop offset="0" stop-color="#3ccbf4"/>
      <stop offset="1" stop-color="#2892df"/>
    </linearGradient>
  </defs>
  <g id="visual_elements" data-name="visual elements" transform="translate(-17 -56.048)">
    <g id="Group_5" data-name="Group 5" transform="translate(69.53 49)">
      <g id="Group_4" data-name="Group 4" transform="matrix(0.799, 0.602, -0.602, 0.799, 1298.789, -369.69)">
        <path id="Path_67" data-name="Path 67" d="M429.617,330.278a15.959,15.959,0,0,1,8.888,2.821,13.447,13.447,0,0,0,15.513,0,15.412,15.412,0,0,1,17.775,0,13.449,13.449,0,0,0,15.514,0,1.02,1.02,0,0,1,1.13,1.7,15.406,15.406,0,0,1-17.774,0,13.451,13.451,0,0,0-15.514,0,15.408,15.408,0,0,1-17.775,0,13.451,13.451,0,0,0-15.513,0,15.41,15.41,0,0,1-17.775,0,1.02,1.02,0,1,1,1.131-1.7,13.449,13.449,0,0,0,15.513,0A15.959,15.959,0,0,1,429.617,330.278Z" transform="translate(0 0)" fill="#2f2f2f"/>
        <path id="Path_68" data-name="Path 68" d="M429.617,344.48a15.952,15.952,0,0,1,8.888,2.822,13.451,13.451,0,0,0,15.513,0,15.408,15.408,0,0,1,17.775,0,13.452,13.452,0,0,0,15.514,0,1.02,1.02,0,0,1,1.13,1.7,15.406,15.406,0,0,1-17.774,0,13.45,13.45,0,0,0-15.514,0,15.408,15.408,0,0,1-17.775,0,13.45,13.45,0,0,0-15.513,0,15.41,15.41,0,0,1-17.775,0,1.02,1.02,0,1,1,1.131-1.7,13.453,13.453,0,0,0,15.513,0A15.951,15.951,0,0,1,429.617,344.48Z" transform="translate(0 1.911)" fill="#2f2f2f"/>
        <path id="Path_69" data-name="Path 69" d="M429.617,358.682a15.959,15.959,0,0,1,8.888,2.821,13.447,13.447,0,0,0,15.513,0,15.416,15.416,0,0,1,17.775,0,13.448,13.448,0,0,0,15.514,0,1.02,1.02,0,0,1,1.13,1.7,15.406,15.406,0,0,1-17.774,0,13.452,13.452,0,0,0-15.514,0,15.408,15.408,0,0,1-17.775,0,13.45,13.45,0,0,0-15.513,0,15.41,15.41,0,0,1-17.775,0,1.02,1.02,0,0,1,1.131-1.7,13.449,13.449,0,0,0,15.513,0A15.959,15.959,0,0,1,429.617,358.682Z" transform="translate(0 3.822)" fill="#2f2f2f"/>
        <path id="Path_70" data-name="Path 70" d="M429.617,372.884a15.952,15.952,0,0,1,8.888,2.822,13.45,13.45,0,0,0,15.513,0,15.412,15.412,0,0,1,17.775,0,13.452,13.452,0,0,0,15.514,0,1.02,1.02,0,0,1,1.13,1.7,15.406,15.406,0,0,1-17.774,0,13.452,13.452,0,0,0-15.514,0,15.408,15.408,0,0,1-17.775,0,13.45,13.45,0,0,0-15.513,0,15.41,15.41,0,0,1-17.775,0,1.02,1.02,0,1,1,1.131-1.7,13.452,13.452,0,0,0,15.513,0A15.952,15.952,0,0,1,429.617,372.884Z" transform="translate(0 5.734)" fill="#2f2f2f"/>
      </g>
    </g>
    <path id="Path_71" data-name="Path 71" d="M699.568,121.073a1.088,1.088,0,0,0-1.088,1.088v65.917a1.106,1.106,0,0,0,.319.77l32.958,32.958a1.091,1.091,0,0,0,.769.319h65.917a1.092,1.092,0,0,0,1.088-1.088V155.12a1.087,1.087,0,0,0-.319-.77l-32.957-32.957a1.077,1.077,0,0,0-.355-.236,1.1,1.1,0,0,0-.415-.084Zm64.83,2.176V186.99H700.656V123.249Zm32.958,46.738L766.573,139.2v-7.494l30.783,30.783Zm0,8.263-30.783-30.784v-7.493l30.783,30.783Zm0,8.263L766.573,155.73v-7.495l30.783,30.784Zm0,8.263-30.783-30.783V156.5l30.783,30.784Zm0,8.263-30.783-30.784v-7.493l30.783,30.783Zm0,8.263-30.783-30.783v-7.494l30.783,30.783Zm0,7.11-30.783-30.784v-6.34l30.783,30.783Zm-49.324,1.538-30.782-30.784h7.517l30.781,30.784Zm8.285,0-30.781-30.784h7.514l30.784,30.784Zm8.286,0-30.784-30.784h7.516l30.784,30.784Zm8.285,0L742.1,189.166h7.516L780.4,219.95Zm8.285,0-30.784-30.784H757.9l30.784,30.784ZM716.48,189.166l30.783,30.784h-7.515l-30.784-30.784Zm72.976,30.784-30.784-30.784h6.362l30.783,30.784Zm-87.262-30.784h6l30.784,30.784h-6Zm95.162-33.6v6.154l-30.783-30.782v-6.155Z" transform="translate(1094.532 -65.025)" fill="#d820f9"/>
    <g id="Group_6" data-name="Group 6" transform="translate(-312.682 153.213)">
      <path id="Path_72" data-name="Path 72" d="M426.433,62.92q-.738-.6-1.491-1.163l-83.289,83.29c.379.5.765,1,1.163,1.49Z" fill="#0328f9"/>
      <path id="Path_73" data-name="Path 73" d="M406.086,52.227c-.691-.205-1.385-.393-2.082-.572l-72.453,72.454c.179.7.367,1.391.571,2.081Z" fill="#0328f9"/>
      <path id="Path_74" data-name="Path 74" d="M420.378,58.628q-.825-.51-1.663-.99l-81.181,81.181q.48.837.989,1.664Z" fill="#0328f9"/>
      <path id="Path_75" data-name="Path 75" d="M413.624,55.035q-.921-.416-1.852-.8L334.13,131.876q.384.931.8,1.852Z" fill="#0328f9"/>
      <path id="Path_76" data-name="Path 76" d="M397.593,50.373q-1.18-.168-2.366-.287l-65.246,65.246c.081.79.175,1.578.288,2.365Z" fill="#0328f9"/>
      <path id="Path_77" data-name="Path 77" d="M431.184,67.189c-.222-.222-.447-.438-.672-.655l-84.083,84.083c.218.224.434.45.655.671s.448.438.672.655L431.839,67.86C431.621,67.636,431.406,67.41,431.184,67.189Z" fill="#0328f9"/>
      <path id="Path_78" data-name="Path 78" d="M387.833,49.787q-1.391.03-2.779.126l-55.246,55.245q-.095,1.389-.126,2.779Z" fill="#0328f9"/>
      <path id="Path_79" data-name="Path 79" d="M331.12,96.153l44.929-44.929q-1.8.4-3.572.919L332.039,92.581Q331.523,94.355,331.12,96.153Z" fill="#0328f9"/>
      <path id="Path_80" data-name="Path 80" d="M448.46,113.319q.095-1.389.126-2.779l-58.151,58.15q1.392-.03,2.779-.125Z" fill="#0328f9"/>
      <path id="Path_81" data-name="Path 81" d="M448.287,103.145c-.081-.79-.175-1.578-.287-2.365L380.675,168.1c.787.112,1.576.206,2.366.287Z" fill="#0328f9"/>
      <path id="Path_82" data-name="Path 82" d="M358.93,58a59.921,59.921,0,0,0-21.038,21.038Z" fill="#0328f9"/>
      <path id="Path_83" data-name="Path 83" d="M446.23,125.9q.514-1.775.919-3.572l-44.93,44.929q1.8-.4,3.573-.919Z" fill="#0328f9"/>
      <path id="Path_84" data-name="Path 84" d="M419.339,160.481a59.929,59.929,0,0,0,21.037-21.038Z" fill="#0328f9"/>
      <path id="Path_85" data-name="Path 85" d="M440.734,79.658q-.48-.837-.989-1.664L357.89,159.849q.825.51,1.664.99Z" fill="#0328f9"/>
      <path id="Path_86" data-name="Path 86" d="M436.615,73.43q-.568-.751-1.162-1.49l-83.617,83.617q.736.6,1.49,1.163Z" fill="#0328f9"/>
      <path id="Path_87" data-name="Path 87" d="M446.717,94.368c-.179-.7-.367-1.391-.571-2.081L372.182,166.25c.691.205,1.385.393,2.082.572Z" fill="#0328f9"/>
      <path id="Path_88" data-name="Path 88" d="M444.138,86.6q-.383-.931-.8-1.853l-78.694,78.694q.921.415,1.853.8Z" fill="#0328f9"/>
    </g>
    <g id="Group_9" data-name="Group 9" transform="matrix(-0.208, 0.978, -0.978, -0.208, 2075.757, 12.997)">
      <path id="Path_72-2" data-name="Path 72" d="M426.433,62.92q-.738-.6-1.491-1.163l-83.289,83.29c.379.5.765,1,1.163,1.49Z" fill="#14051c"/>
      <path id="Path_73-2" data-name="Path 73" d="M406.086,52.227c-.691-.205-1.385-.393-2.082-.572l-72.453,72.454c.179.7.367,1.391.571,2.081Z" fill="#14051c"/>
      <path id="Path_74-2" data-name="Path 74" d="M420.378,58.628q-.825-.51-1.663-.99l-81.181,81.181q.48.837.989,1.664Z" fill="#14051c"/>
      <path id="Path_75-2" data-name="Path 75" d="M413.624,55.035q-.921-.416-1.852-.8L334.13,131.876q.384.931.8,1.852Z" fill="#14051c"/>
      <path id="Path_76-2" data-name="Path 76" d="M397.593,50.373q-1.18-.168-2.366-.287l-65.246,65.246c.081.79.175,1.578.288,2.365Z" fill="#14051c"/>
      <path id="Path_77-2" data-name="Path 77" d="M431.184,67.189c-.222-.222-.447-.438-.672-.655l-84.083,84.083c.218.224.434.45.655.671s.448.438.672.655L431.839,67.86C431.621,67.636,431.406,67.41,431.184,67.189Z" fill="#14051c"/>
      <path id="Path_78-2" data-name="Path 78" d="M387.833,49.787q-1.391.03-2.779.126l-55.246,55.245q-.095,1.389-.126,2.779Z" fill="#14051c"/>
      <path id="Path_79-2" data-name="Path 79" d="M331.12,96.153l44.929-44.929q-1.8.4-3.572.919L332.039,92.581Q331.523,94.355,331.12,96.153Z" fill="#14051c"/>
      <path id="Path_80-2" data-name="Path 80" d="M448.46,113.319q.095-1.389.126-2.779l-58.151,58.15q1.392-.03,2.779-.125Z" fill="#14051c"/>
      <path id="Path_81-2" data-name="Path 81" d="M448.287,103.145c-.081-.79-.175-1.578-.287-2.365L380.675,168.1c.787.112,1.576.206,2.366.287Z" fill="#14051c"/>
      <path id="Path_82-2" data-name="Path 82" d="M358.93,58a59.921,59.921,0,0,0-21.038,21.038Z" fill="#14051c"/>
      <path id="Path_83-2" data-name="Path 83" d="M446.23,125.9q.514-1.775.919-3.572l-44.93,44.929q1.8-.4,3.573-.919Z" fill="#14051c"/>
      <path id="Path_84-2" data-name="Path 84" d="M419.339,160.481a59.929,59.929,0,0,0,21.037-21.038Z" fill="#14051c"/>
      <path id="Path_85-2" data-name="Path 85" d="M440.734,79.658q-.48-.837-.989-1.664L357.89,159.849q.825.51,1.664.99Z" fill="#14051c"/>
      <path id="Path_86-2" data-name="Path 86" d="M436.615,73.43q-.568-.751-1.162-1.49l-83.617,83.617q.736.6,1.49,1.163Z" fill="#14051c"/>
      <path id="Path_87-2" data-name="Path 87" d="M446.717,94.368c-.179-.7-.367-1.391-.571-2.081L372.182,166.25c.691.205,1.385.393,2.082.572Z" fill="#14051c"/>
      <path id="Path_88-2" data-name="Path 88" d="M444.138,86.6q-.383-.931-.8-1.853l-78.694,78.694q.921.415,1.853.8Z" fill="#14051c"/>
    </g>
    <path id="Path_89" data-name="Path 89" d="M67.314,398.51l39.661-74.366,39.661,74.366Z" transform="matrix(-0.174, 0.985, -0.985, -0.174, 602.265, 448.237)" fill="#d820f9"/>
    <path id="Path_112" data-name="Path 112" d="M67.314,398.51l39.661-74.366,39.661,74.366Z" transform="translate(1751.579 2056.448) rotate(18)" fill="#d820f9"/>
    <g id="icons8-c_" data-name="icons8-c++" transform="translate(769.941 111) rotate(135)" opacity="0.554">
      <path id="Path_90" data-name="Path 90" d="M22.9,3.286a2.247,2.247,0,0,1,2.193,0L41.9,12.72A2.119,2.119,0,0,1,43,14.566V33.433a2.122,2.122,0,0,1-1.1,1.847L25.1,44.714a2.247,2.247,0,0,1-2.193,0L6.1,35.28A2.122,2.122,0,0,1,5,33.434V14.567A2.122,2.122,0,0,1,6.1,12.72Z" fill="#00549d" fill-rule="evenodd"/>
      <path id="Path_91" data-name="Path 91" d="M5.3,34.4A1.719,1.719,0,0,1,5,33.255V14.5A2.107,2.107,0,0,1,6.094,12.66L22.842,3.28a2.41,2.41,0,0,1,2.271.008c3.343,1.872,13.371,7.459,16.714,9.331a2.093,2.093,0,0,1,.66.576Z" fill="#0086d4" fill-rule="evenodd"/>
      <path id="Path_92" data-name="Path 92" d="M24,10A14,14,0,1,1,10,24,14.006,14.006,0,0,1,24,10Zm0,7a7,7,0,1,1-7,7A7,7,0,0,1,24,17Z" fill="#fff" fill-rule="evenodd"/>
      <path id="Path_93" data-name="Path 93" d="M42.485,13.2a2.3,2.3,0,0,1,.506,1.784c0,3.8-.032,14.589.009,18.384a2.172,2.172,0,0,1-.323,1.127L23.593,24Z" fill="#0075c0" fill-rule="evenodd"/>
      <path id="Path_94" data-name="Path 94" d="M31,21h2v6H31Zm7,0h2v6H38Z" fill="#fff" fill-rule="evenodd"/>
      <path id="Path_95" data-name="Path 95" d="M29,23h6v2H29Zm7,0h6v2H36Z" fill="#fff" fill-rule="evenodd"/>
    </g>
    <g id="icons8-visual-studio-code-2019" transform="matrix(-0.891, -0.454, 0.454, -0.891, 1477.957, 571.127)" opacity="0.55">
      <path id="Path_96" data-name="Path 96" d="M44,11.11V36.89a2.981,2.981,0,0,1-1.98,2.82L33.2,43.85,34,33V15L33.2,4.15l8.82,4.14A2.981,2.981,0,0,1,44,11.11Z" fill="#29b6f6"/>
      <path id="Path_97" data-name="Path 97" d="M9,33.9,34,15V5.353a1.3,1.3,0,0,0-2.275-.86L4.658,29.239a2,2,0,0,0,.107,3.032s1.324,1.232,1.8,1.574A2.062,2.062,0,0,0,9,33.9Z" fill="#0277bd"/>
      <path id="Path_98" data-name="Path 98" d="M9,14.1,34,33v9.647a1.3,1.3,0,0,1-2.275.86L4.658,18.761a2,2,0,0,1,.107-3.032s1.324-1.232,1.8-1.574A2.062,2.062,0,0,1,9,14.1Z" fill="#0288d1"/>
    </g>
    <g id="Rectangle_22" data-name="Rectangle 22" transform="matrix(0.309, -0.951, 0.951, 0.309, 75.987, 885.231)" fill="#0328f9" stroke="#707070" stroke-width="1">
      <rect width="77" height="77" stroke="none"/>
      <rect x="0.5" y="0.5" width="76" height="76" fill="none"/>
    </g>
    <g id="Group_11" data-name="Group 11" transform="translate(-312.682 153.213)">
      <path id="Path_72-3" data-name="Path 72" d="M426.433,62.92q-.738-.6-1.491-1.163l-83.289,83.29c.379.5.765,1,1.163,1.49Z" fill="#0328f9"/>
      <path id="Path_73-3" data-name="Path 73" d="M406.086,52.227c-.691-.205-1.385-.393-2.082-.572l-72.453,72.454c.179.7.367,1.391.571,2.081Z" fill="#0328f9"/>
      <path id="Path_74-3" data-name="Path 74" d="M420.378,58.628q-.825-.51-1.663-.99l-81.181,81.181q.48.837.989,1.664Z" fill="#0328f9"/>
      <path id="Path_75-3" data-name="Path 75" d="M413.624,55.035q-.921-.416-1.852-.8L334.13,131.876q.384.931.8,1.852Z" fill="#0328f9"/>
      <path id="Path_76-3" data-name="Path 76" d="M397.593,50.373q-1.18-.168-2.366-.287l-65.246,65.246c.081.79.175,1.578.288,2.365Z" fill="#0328f9"/>
      <path id="Path_77-3" data-name="Path 77" d="M431.184,67.189c-.222-.222-.447-.438-.672-.655l-84.083,84.083c.218.224.434.45.655.671s.448.438.672.655L431.839,67.86C431.621,67.636,431.406,67.41,431.184,67.189Z" fill="#0328f9"/>
      <path id="Path_78-3" data-name="Path 78" d="M387.833,49.787q-1.391.03-2.779.126l-55.246,55.245q-.095,1.389-.126,2.779Z" fill="#0328f9"/>
      <path id="Path_79-3" data-name="Path 79" d="M331.12,96.153l44.929-44.929q-1.8.4-3.572.919L332.039,92.581Q331.523,94.355,331.12,96.153Z" fill="#0328f9"/>
      <path id="Path_80-3" data-name="Path 80" d="M448.46,113.319q.095-1.389.126-2.779l-58.151,58.15q1.392-.03,2.779-.125Z" fill="#0328f9"/>
      <path id="Path_81-3" data-name="Path 81" d="M448.287,103.145c-.081-.79-.175-1.578-.287-2.365L380.675,168.1c.787.112,1.576.206,2.366.287Z" fill="#0328f9"/>
      <path id="Path_82-3" data-name="Path 82" d="M358.93,58a59.921,59.921,0,0,0-21.038,21.038Z" fill="#0328f9"/>
      <path id="Path_83-3" data-name="Path 83" d="M446.23,125.9q.514-1.775.919-3.572l-44.93,44.929q1.8-.4,3.573-.919Z" fill="#0328f9"/>
      <path id="Path_84-3" data-name="Path 84" d="M419.339,160.481a59.929,59.929,0,0,0,21.037-21.038Z" fill="#0328f9"/>
      <path id="Path_85-3" data-name="Path 85" d="M440.734,79.658q-.48-.837-.989-1.664L357.89,159.849q.825.51,1.664.99Z" fill="#0328f9"/>
      <path id="Path_86-3" data-name="Path 86" d="M436.615,73.43q-.568-.751-1.162-1.49l-83.617,83.617q.736.6,1.49,1.163Z" fill="#0328f9"/>
      <path id="Path_87-3" data-name="Path 87" d="M446.717,94.368c-.179-.7-.367-1.391-.571-2.081L372.182,166.25c.691.205,1.385.393,2.082.572Z" fill="#0328f9"/>
      <path id="Path_88-3" data-name="Path 88" d="M444.138,86.6q-.383-.931-.8-1.853l-78.694,78.694q.921.415,1.853.8Z" fill="#0328f9"/>
    </g>
    <g id="Group_12" data-name="Group 12" transform="translate(1303.318 1635.213)">
      <path id="Path_72-4" data-name="Path 72" d="M426.433,62.92q-.738-.6-1.491-1.163l-83.289,83.29c.379.5.765,1,1.163,1.49Z" fill="#d820f9"/>
      <path id="Path_73-4" data-name="Path 73" d="M406.086,52.227c-.691-.205-1.385-.393-2.082-.572l-72.453,72.454c.179.7.367,1.391.571,2.081Z" fill="#d820f9"/>
      <path id="Path_74-4" data-name="Path 74" d="M420.378,58.628q-.825-.51-1.663-.99l-81.181,81.181q.48.837.989,1.664Z" fill="#d820f9"/>
      <path id="Path_75-4" data-name="Path 75" d="M413.624,55.035q-.921-.416-1.852-.8L334.13,131.876q.384.931.8,1.852Z" fill="#d820f9"/>
      <path id="Path_76-4" data-name="Path 76" d="M397.593,50.373q-1.18-.168-2.366-.287l-65.246,65.246c.081.79.175,1.578.288,2.365Z" fill="#d820f9"/>
      <path id="Path_77-4" data-name="Path 77" d="M431.184,67.189c-.222-.222-.447-.438-.672-.655l-84.083,84.083c.218.224.434.45.655.671s.448.438.672.655L431.839,67.86C431.621,67.636,431.406,67.41,431.184,67.189Z" fill="#d820f9"/>
      <path id="Path_78-4" data-name="Path 78" d="M387.833,49.787q-1.391.03-2.779.126l-55.246,55.245q-.095,1.389-.126,2.779Z" fill="#d820f9"/>
      <path id="Path_79-4" data-name="Path 79" d="M331.12,96.153l44.929-44.929q-1.8.4-3.572.919L332.039,92.581Q331.523,94.355,331.12,96.153Z" fill="#d820f9"/>
      <path id="Path_80-4" data-name="Path 80" d="M448.46,113.319q.095-1.389.126-2.779l-58.151,58.15q1.392-.03,2.779-.125Z" fill="#d820f9"/>
      <path id="Path_81-4" data-name="Path 81" d="M448.287,103.145c-.081-.79-.175-1.578-.287-2.365L380.675,168.1c.787.112,1.576.206,2.366.287Z" fill="#d820f9"/>
      <path id="Path_82-4" data-name="Path 82" d="M358.93,58a59.921,59.921,0,0,0-21.038,21.038Z" fill="#d820f9"/>
      <path id="Path_83-4" data-name="Path 83" d="M446.23,125.9q.514-1.775.919-3.572l-44.93,44.929q1.8-.4,3.573-.919Z" fill="#d820f9"/>
      <path id="Path_84-4" data-name="Path 84" d="M419.339,160.481a59.929,59.929,0,0,0,21.037-21.038Z" fill="#d820f9"/>
      <path id="Path_85-4" data-name="Path 85" d="M440.734,79.658q-.48-.837-.989-1.664L357.89,159.849q.825.51,1.664.99Z" fill="#d820f9"/>
      <path id="Path_86-4" data-name="Path 86" d="M436.615,73.43q-.568-.751-1.162-1.49l-83.617,83.617q.736.6,1.49,1.163Z" fill="#d820f9"/>
      <path id="Path_87-4" data-name="Path 87" d="M446.717,94.368c-.179-.7-.367-1.391-.571-2.081L372.182,166.25c.691.205,1.385.393,2.082.572Z" fill="#d820f9"/>
      <path id="Path_88-4" data-name="Path 88" d="M444.138,86.6q-.383-.931-.8-1.853l-78.694,78.694q.921.415,1.853.8Z" fill="#d820f9"/>
    </g>
    <g id="icons8-javascript" transform="translate(1040.636 108.379) rotate(17)" opacity="0.3">
      <path id="Path_128" data-name="Path 128" d="M6,42V6H42V42Z" fill="#ffd600"/>
      <path id="Path_129" data-name="Path 129" d="M29.538,32.947c.692,1.124,1.444,2.2,3.037,2.2,1.338,0,2.04-.665,2.04-1.585,0-1.1-.726-1.492-2.2-2.133l-.807-.344c-2.329-.988-3.878-2.226-3.878-4.841,0-2.41,1.845-4.244,4.728-4.244a4.777,4.777,0,0,1,4.592,2.573l-2.514,1.607A2.2,2.2,0,0,0,32.46,24.8a1.4,1.4,0,0,0-1.545,1.377c0,.964.6,1.354,1.985,1.951l.807.344C36.452,29.645,38,30.839,38,33.523,38,36.415,35.716,38,32.65,38A5.9,5.9,0,0,1,27,34.632Zm-11.586.082a2.731,2.731,0,0,0,2.381,1.6c1.058,0,1.667-.418,1.667-2.043V22h3.333V33.1c0,3.367-1.953,4.9-4.805,4.9a5.848,5.848,0,0,1-5.195-3.368Z" fill="#000001"/>
    </g>
    <g id="icons8-vue-js" transform="translate(947.628 580.922) rotate(-22)" opacity="0.57">
      <path id="Path_130" data-name="Path 130" d="M23.987,17,18.734,8H2.974L23.987,44,45,8H29.24Z" fill="#81c784"/>
      <path id="Path_131" data-name="Path 131" d="M29.24,8l-5.253,9L18.734,8H11.146L23.987,30,36.828,8Z" fill="#455a64"/>
    </g>
    <g id="icons8-c-sharp-logo" transform="translate(397.588 517.865) rotate(-21)" opacity="0.36">
      <path id="Path_122" data-name="Path 122" d="M22.9,3.286a2.247,2.247,0,0,1,2.193,0L41.9,12.72A2.119,2.119,0,0,1,43,14.566V33.433a2.122,2.122,0,0,1-1.1,1.847L25.1,44.714a2.247,2.247,0,0,1-2.193,0L6.1,35.28A2.122,2.122,0,0,1,5,33.434V14.567A2.122,2.122,0,0,1,6.1,12.72Z" fill="#37474f" fill-rule="evenodd"/>
      <path id="Path_123" data-name="Path 123" d="M5.3,34.4A1.719,1.719,0,0,1,5,33.255V14.5A2.107,2.107,0,0,1,6.094,12.66L22.842,3.28a2.41,2.41,0,0,1,2.271.008c3.343,1.872,13.371,7.459,16.714,9.331a2.093,2.093,0,0,1,.66.576Z" fill="#546e7a" fill-rule="evenodd"/>
      <path id="Path_124" data-name="Path 124" d="M24,10A14,14,0,1,1,10,24,14.006,14.006,0,0,1,24,10Zm0,7a7,7,0,1,1-7,7A7,7,0,0,1,24,17Z" fill="#fff" fill-rule="evenodd"/>
      <path id="Path_125" data-name="Path 125" d="M42.485,13.2a2.3,2.3,0,0,1,.506,1.784c0,3.8-.032,14.589.009,18.384a2.172,2.172,0,0,1-.323,1.127L23.593,24Z" fill="#455a64" fill-rule="evenodd"/>
      <path id="Path_126" data-name="Path 126" d="M34,20h1v8H34Zm3,0h1v8H37Z" fill="#fff" fill-rule="evenodd"/>
      <path id="Path_127" data-name="Path 127" d="M32,25h8v1H32Zm0-3h8v1H32Z" fill="#fff" fill-rule="evenodd"/>
    </g>
    <g id="icons8-azure" transform="matrix(0.985, -0.174, 0.174, 0.985, 1365.895, 112.576)" opacity="0.23">
      <path id="Path_118" data-name="Path 118" d="M17.634,6H28.939L17.2,40.773A1.8,1.8,0,0,1,15.495,42H6.7a1.8,1.8,0,0,1-1.8-1.8,1.82,1.82,0,0,1,.094-.576l10.935-32.4A1.8,1.8,0,0,1,17.634,6Z" fill="url(#linear-gradient)"/>
      <path id="Path_119" data-name="Path 119" d="M34.062,29.324H16.135a.83.83,0,0,0-.567,1.437l11.52,10.752A1.811,1.811,0,0,0,28.324,42H38.475Z" fill="#0078d4"/>
      <path id="Path_120" data-name="Path 120" d="M17.634,6a1.789,1.789,0,0,0-1.712,1.25L5.005,39.6a1.8,1.8,0,0,0,1.085,2.3A1.82,1.82,0,0,0,6.7,42h9.026a1.93,1.93,0,0,0,1.481-1.259l2.177-6.416,7.776,7.253A1.836,1.836,0,0,0,28.32,42H38.434L34,29.324l-12.931,0L28.98,6Z" fill="url(#linear-gradient-2)"/>
      <path id="Path_121" data-name="Path 121" d="M32.074,7.225A1.8,1.8,0,0,0,30.368,6h-12.6a1.8,1.8,0,0,1,1.7,1.224l10.935,32.4a1.8,1.8,0,0,1-1.13,2.281,1.757,1.757,0,0,1-.575.1H41.3a1.8,1.8,0,0,0,1.8-1.8,1.782,1.782,0,0,0-.1-.575Z" fill="url(#linear-gradient-3)"/>
    </g>
    <g id="icons8-javascript-2" data-name="icons8-javascript" transform="translate(116.81 1490.34) rotate(-20)" opacity="0.53">
      <path id="Path_128-2" data-name="Path 128" d="M6,69.974V6H69.974V69.974Z" fill="#ffd600"/>
      <path id="Path_129-2" data-name="Path 129" d="M40.576,41.453c1.23,2,2.566,3.911,5.4,3.911,2.378,0,3.625-1.182,3.625-2.817,0-1.957-1.29-2.651-3.906-3.79l-1.434-.611c-4.139-1.756-6.891-3.956-6.891-8.6,0-4.283,3.279-7.542,8.4-7.542,3.648,0,6.269,1.263,8.16,4.572L49.461,29.43c-.983-1.756-2.045-2.447-3.693-2.447a2.491,2.491,0,0,0-2.746,2.447c0,1.713,1.066,2.406,3.527,3.467l1.434.611c4.878,2.077,7.629,4.2,7.629,8.969,0,5.139-4.059,7.956-9.507,7.956a10.484,10.484,0,0,1-10.04-5.985ZM19.987,41.6a4.853,4.853,0,0,0,4.231,2.849c1.88,0,2.962-.743,2.962-3.631V22H33.1V41.727c0,5.983-3.471,8.706-8.539,8.706a10.393,10.393,0,0,1-9.232-5.985Z" transform="translate(7.252 12.433)" fill="#000001"/>
    </g>
    <g id="Layer_2" data-name="Layer 2" transform="matrix(0.946, 0.326, -0.326, 0.946, 404.959, 233.884)" opacity="0.33">
      <g id="Layer_1" data-name="Layer 1" transform="translate(0 -0.001)">
        <path id="Path_132" data-name="Path 132" d="M423.768,16.588v9.5h-9.233a6.123,6.123,0,0,1-4.438-1.426c-.963-.938-1.463-2.461-1.531-4.547-.067-.919-.1-2.106-.1-3.562s.029-2.632.1-3.5a6.123,6.123,0,0,1,1.646-4.488,6.491,6.491,0,0,1,4.554-1.444h13.5V0H414.525c-4.7-.01-8.357,1.12-10.966,3.35s-3.986,5.437-4.121,9.61c-.019.918-.039,2.134-.039,3.659s.019,2.719.039,3.608q.491,12.988,14.846,12.988H432.77V16.588Z" transform="translate(-360.947 0.001)" fill="#e93d45"/>
        <path id="Path_133" data-name="Path 133" d="M29.211,3.341Q25.308,0,18.245,0H0V16.627H8.983v-9.5h9.031a6.464,6.464,0,0,1,4.554,1.444,6.175,6.175,0,0,1,1.646,4.489c.058.881.1,2.049.1,3.5s-.039,2.642-.1,3.562a6.485,6.485,0,0,1-1.531,4.546A6.093,6.093,0,0,1,18.245,26.1H4.5v7.1h13.98q14.369,0,14.846-12.99c.029-.89.048-2.086.048-3.609s-.019-2.737-.048-3.647C33.187,8.778,31.83,5.572,29.211,3.341Z" transform="translate(0 0)" fill="#e93d45"/>
      </g>
    </g>
    <path id="Path_118-2" data-name="Path 118" d="M699.568,121.073a1.088,1.088,0,0,0-1.088,1.088v65.917a1.106,1.106,0,0,0,.319.77l32.958,32.958a1.091,1.091,0,0,0,.769.319h65.917a1.092,1.092,0,0,0,1.088-1.088V155.12a1.087,1.087,0,0,0-.319-.77l-32.957-32.957a1.077,1.077,0,0,0-.355-.236,1.1,1.1,0,0,0-.415-.084Zm64.83,2.176V186.99H700.656V123.249Zm32.958,46.738L766.573,139.2v-7.494l30.783,30.783Zm0,8.263-30.783-30.784v-7.493l30.783,30.783Zm0,8.263L766.573,155.73v-7.495l30.783,30.784Zm0,8.263-30.783-30.783V156.5l30.783,30.784Zm0,8.263-30.783-30.784v-7.493l30.783,30.783Zm0,8.263-30.783-30.783v-7.494l30.783,30.783Zm0,7.11-30.783-30.784v-6.34l30.783,30.783Zm-49.324,1.538-30.782-30.784h7.517l30.781,30.784Zm8.285,0-30.781-30.784h7.514l30.784,30.784Zm8.286,0-30.784-30.784h7.516l30.784,30.784Zm8.285,0L742.1,189.166h7.516L780.4,219.95Zm8.285,0-30.784-30.784H757.9l30.784,30.784ZM716.48,189.166l30.783,30.784h-7.515l-30.784-30.784Zm72.976,30.784-30.784-30.784h6.362l30.783,30.784Zm-87.262-30.784h6l30.784,30.784h-6Zm95.162-33.6v6.154l-30.783-30.782v-6.155Z" transform="translate(-494.984 1874.211)" fill="#0328f9"/>
    <g id="icons8-visual-studio-code-2019-2" data-name="icons8-visual-studio-code-2019" transform="translate(243.283 2417.284) rotate(164)" opacity="0.68">
      <path id="Path_96-2" data-name="Path 96" d="M51.477,15.928V59.555a5.044,5.044,0,0,1-3.351,4.772L33.2,71.333l1.354-18.361V22.511L33.2,4.15l14.926,7.006A5.044,5.044,0,0,1,51.477,15.928Z" transform="translate(20.204 0.069)" fill="#29b6f6"/>
      <path id="Path_97-2" data-name="Path 97" d="M12.451,54.557,54.758,22.58V6.255A2.2,2.2,0,0,0,50.908,4.8L5.1,46.676a3.385,3.385,0,0,0,.181,5.131s2.241,2.085,3.051,2.664A3.489,3.489,0,0,0,12.451,54.557Z" transform="translate(0 0)" fill="#0277bd"/>
      <path id="Path_98-2" data-name="Path 98" d="M12.451,14.362,54.758,46.339V62.664a2.2,2.2,0,0,1-3.85,1.455L5.1,22.243a3.385,3.385,0,0,1,.181-5.131s2.241-2.085,3.051-2.664A3.489,3.489,0,0,1,12.451,14.362Z" transform="translate(0 6.702)" fill="#0288d1"/>
    </g>
    <g id="icons8-vue-js-2" data-name="icons8-vue-js" transform="translate(1774.982 1481.439) rotate(16)" opacity="0.7">
      <path id="Path_130-2" data-name="Path 130" d="M49.515,27.934,37.88,8H2.974L49.515,87.734,96.055,8H61.149Z" transform="translate(0 0)" fill="#81c784"/>
      <path id="Path_131-2" data-name="Path 131" d="M51.221,8,39.587,27.934,27.952,8H11.146L39.587,56.727,68.028,8Z" transform="translate(9.928 0)" fill="#455a64"/>
    </g>
    <g id="icons8-azure-2" data-name="icons8-azure" transform="matrix(0.914, 0.407, -0.407, 0.914, 1854.535, 2995.357)" opacity="0.58">
      <path id="Path_118-3" data-name="Path 118" d="M29.018,6H50.426L28.2,71.851a3.411,3.411,0,0,1-3.235,2.322H8.306A3.409,3.409,0,0,1,4.9,70.764a3.446,3.446,0,0,1,.178-1.091L25.783,8.324A3.413,3.413,0,0,1,29.018,6Z" transform="translate(0 0)" fill="url(#linear-gradient)"/>
      <path id="Path_119-2" data-name="Path 119" d="M50.827,29.324H16.878A1.572,1.572,0,0,0,15.8,32.045L37.62,52.407a3.429,3.429,0,0,0,2.341.922H59.184Z" transform="translate(9.301 20.846)" fill="#0078d4"/>
      <path id="Path_120-2" data-name="Path 120" d="M29.016,6a3.388,3.388,0,0,0-3.242,2.367L5.1,69.62a3.405,3.405,0,0,0,2.055,4.354,3.446,3.446,0,0,0,1.159.2H25.406a3.655,3.655,0,0,0,2.8-2.384l4.123-12.15L47.059,73.376a3.476,3.476,0,0,0,2.193.8H68.406l-8.4-24.005-24.488.006L50.5,6Z" transform="translate(0.002)" fill="url(#linear-gradient-2)"/>
      <path id="Path_121-2" data-name="Path 121" d="M44.86,8.32A3.409,3.409,0,0,0,41.629,6H17.768A3.408,3.408,0,0,1,21,8.318L41.7,69.673a3.408,3.408,0,0,1-2.14,4.32,3.327,3.327,0,0,1-1.089.182H62.337a3.409,3.409,0,0,0,3.409-3.411,3.375,3.375,0,0,0-.18-1.089Z" transform="translate(11.503 0)" fill="url(#linear-gradient-3)"/>
    </g>
    <g id="Group_14" data-name="Group 14" transform="matrix(-0.208, 0.978, -0.978, -0.208, 441.778, 923.997)">
      <path id="Path_72-5" data-name="Path 72" d="M426.433,62.92q-.738-.6-1.491-1.163l-83.289,83.29c.379.5.765,1,1.163,1.49Z" fill="#03ffdf"/>
      <path id="Path_73-5" data-name="Path 73" d="M406.086,52.227c-.691-.205-1.385-.393-2.082-.572l-72.453,72.454c.179.7.367,1.391.571,2.081Z" fill="#03ffdf"/>
      <path id="Path_74-5" data-name="Path 74" d="M420.378,58.628q-.825-.51-1.663-.99l-81.181,81.181q.48.837.989,1.664Z" fill="#03ffdf"/>
      <path id="Path_75-5" data-name="Path 75" d="M413.624,55.035q-.921-.416-1.852-.8L334.13,131.876q.384.931.8,1.852Z" fill="#03ffdf"/>
      <path id="Path_76-5" data-name="Path 76" d="M397.593,50.373q-1.18-.168-2.366-.287l-65.246,65.246c.081.79.175,1.578.288,2.365Z" fill="#03ffdf"/>
      <path id="Path_77-5" data-name="Path 77" d="M431.184,67.189c-.222-.222-.447-.438-.672-.655l-84.083,84.083c.218.224.434.45.655.671s.448.438.672.655L431.839,67.86C431.621,67.636,431.406,67.41,431.184,67.189Z" fill="#03ffdf"/>
      <path id="Path_78-5" data-name="Path 78" d="M387.833,49.787q-1.391.03-2.779.126l-55.246,55.245q-.095,1.389-.126,2.779Z" fill="#03ffdf"/>
      <path id="Path_79-5" data-name="Path 79" d="M331.12,96.153l44.929-44.929q-1.8.4-3.572.919L332.039,92.581Q331.523,94.355,331.12,96.153Z" fill="#03ffdf"/>
      <path id="Path_80-5" data-name="Path 80" d="M448.46,113.319q.095-1.389.126-2.779l-58.151,58.15q1.392-.03,2.779-.125Z" fill="#03ffdf"/>
      <path id="Path_81-5" data-name="Path 81" d="M448.287,103.145c-.081-.79-.175-1.578-.287-2.365L380.675,168.1c.787.112,1.576.206,2.366.287Z" fill="#03ffdf"/>
      <path id="Path_82-5" data-name="Path 82" d="M358.93,58a59.921,59.921,0,0,0-21.038,21.038Z" fill="#03ffdf"/>
      <path id="Path_83-5" data-name="Path 83" d="M446.23,125.9q.514-1.775.919-3.572l-44.93,44.929q1.8-.4,3.573-.919Z" fill="#03ffdf"/>
      <path id="Path_84-5" data-name="Path 84" d="M419.339,160.481a59.929,59.929,0,0,0,21.037-21.038Z" fill="#03ffdf"/>
      <path id="Path_85-5" data-name="Path 85" d="M440.734,79.658q-.48-.837-.989-1.664L357.89,159.849q.825.51,1.664.99Z" fill="#03ffdf"/>
      <path id="Path_86-5" data-name="Path 86" d="M436.615,73.43q-.568-.751-1.162-1.49l-83.617,83.617q.736.6,1.49,1.163Z" fill="#03ffdf"/>
      <path id="Path_87-5" data-name="Path 87" d="M446.717,94.368c-.179-.7-.367-1.391-.571-2.081L372.182,166.25c.691.205,1.385.393,2.082.572Z" fill="#03ffdf"/>
      <path id="Path_88-5" data-name="Path 88" d="M444.138,86.6q-.383-.931-.8-1.853l-78.694,78.694q.921.415,1.853.8Z" fill="#03ffdf"/>
    </g>
    <g id="Group_13" data-name="Group 13" transform="matrix(0.485, -0.875, 0.875, 0.485, -554.845, 4137.282)">
      <g id="Group_4-2" data-name="Group 4" transform="matrix(0.799, 0.602, -0.602, 0.799, 1298.789, -369.69)">
        <path id="Path_67-2" data-name="Path 67" d="M429.617,330.278a15.959,15.959,0,0,1,8.888,2.821,13.447,13.447,0,0,0,15.513,0,15.412,15.412,0,0,1,17.775,0,13.449,13.449,0,0,0,15.514,0,1.02,1.02,0,0,1,1.13,1.7,15.406,15.406,0,0,1-17.774,0,13.451,13.451,0,0,0-15.514,0,15.408,15.408,0,0,1-17.775,0,13.451,13.451,0,0,0-15.513,0,15.41,15.41,0,0,1-17.775,0,1.02,1.02,0,1,1,1.131-1.7,13.449,13.449,0,0,0,15.513,0A15.959,15.959,0,0,1,429.617,330.278Z" transform="translate(0 0)" fill="#2f2f2f"/>
        <path id="Path_68-2" data-name="Path 68" d="M429.617,344.48a15.952,15.952,0,0,1,8.888,2.822,13.451,13.451,0,0,0,15.513,0,15.408,15.408,0,0,1,17.775,0,13.452,13.452,0,0,0,15.514,0,1.02,1.02,0,0,1,1.13,1.7,15.406,15.406,0,0,1-17.774,0,13.45,13.45,0,0,0-15.514,0,15.408,15.408,0,0,1-17.775,0,13.45,13.45,0,0,0-15.513,0,15.41,15.41,0,0,1-17.775,0,1.02,1.02,0,1,1,1.131-1.7,13.453,13.453,0,0,0,15.513,0A15.951,15.951,0,0,1,429.617,344.48Z" transform="translate(0 1.911)" fill="#2f2f2f"/>
        <path id="Path_69-2" data-name="Path 69" d="M429.617,358.682a15.959,15.959,0,0,1,8.888,2.821,13.447,13.447,0,0,0,15.513,0,15.416,15.416,0,0,1,17.775,0,13.448,13.448,0,0,0,15.514,0,1.02,1.02,0,0,1,1.13,1.7,15.406,15.406,0,0,1-17.774,0,13.452,13.452,0,0,0-15.514,0,15.408,15.408,0,0,1-17.775,0,13.45,13.45,0,0,0-15.513,0,15.41,15.41,0,0,1-17.775,0,1.02,1.02,0,0,1,1.131-1.7,13.449,13.449,0,0,0,15.513,0A15.959,15.959,0,0,1,429.617,358.682Z" transform="translate(0 3.822)" fill="#2f2f2f"/>
        <path id="Path_70-2" data-name="Path 70" d="M429.617,372.884a15.952,15.952,0,0,1,8.888,2.822,13.45,13.45,0,0,0,15.513,0,15.412,15.412,0,0,1,17.775,0,13.452,13.452,0,0,0,15.514,0,1.02,1.02,0,0,1,1.13,1.7,15.406,15.406,0,0,1-17.774,0,13.452,13.452,0,0,0-15.514,0,15.408,15.408,0,0,1-17.775,0,13.45,13.45,0,0,0-15.513,0,15.41,15.41,0,0,1-17.775,0,1.02,1.02,0,1,1,1.131-1.7,13.452,13.452,0,0,0,15.513,0A15.952,15.952,0,0,1,429.617,372.884Z" transform="translate(0 5.734)" fill="#2f2f2f"/>
      </g>
    </g>
  </g>
</svg>
