<svg class="fill" xmlns="http://www.w3.org/2000/svg" width="870.221" height="457.03" viewBox="0 0 870.221 457.03">
  <g id="Group_15" data-name="Group 15" transform="translate(-968.455 -616.158)">
    <path id="Path_20" data-name="Path 20" d="M1812.5,1315.4a1.686,1.686,0,1,1-1.664,1.686A1.674,1.674,0,0,1,1812.5,1315.4Z" transform="translate(-105.68 -276.559)" fill="#14051c"/>
    <path id="Path_21" data-name="Path 21" d="M1812.5,1371.517a1.686,1.686,0,1,1-1.664,1.686A1.674,1.674,0,0,1,1812.5,1371.517Z" transform="translate(-105.68 -301.7)" fill="#14051c"/>
    <path id="Path_22" data-name="Path 22" d="M1765.32,1315.4a1.686,1.686,0,1,1-1.663,1.686A1.674,1.674,0,0,1,1765.32,1315.4Z" transform="translate(-84.544 -276.559)" fill="#14051c"/>
    <path id="Path_23" data-name="Path 23" d="M1765.32,1371.517a1.686,1.686,0,1,1-1.663,1.686A1.674,1.674,0,0,1,1765.32,1371.517Z" transform="translate(-84.544 -301.7)" fill="#14051c"/>
    <path id="Path_24" data-name="Path 24" d="M1718.145,1315.4a1.686,1.686,0,1,1-1.664,1.686A1.675,1.675,0,0,1,1718.145,1315.4Z" transform="translate(-63.408 -276.559)" fill="#14051c"/>
    <path id="Path_25" data-name="Path 25" d="M1718.145,1371.517a1.686,1.686,0,1,1-1.664,1.686A1.675,1.675,0,0,1,1718.145,1371.517Z" transform="translate(-63.408 -301.7)" fill="#14051c"/>
    <path id="Path_26" data-name="Path 26" d="M1670.969,1315.4a1.686,1.686,0,1,1-1.663,1.686A1.674,1.674,0,0,1,1670.969,1315.4Z" transform="translate(-42.272 -276.559)" fill="#14051c"/>
    <path id="Path_27" data-name="Path 27" d="M1670.969,1371.517a1.686,1.686,0,1,1-1.663,1.686A1.674,1.674,0,0,1,1670.969,1371.517Z" transform="translate(-42.272 -301.7)" fill="#14051c"/>
    <path id="Path_28" data-name="Path 28" d="M1623.794,1315.4a1.686,1.686,0,1,1-1.663,1.686A1.674,1.674,0,0,1,1623.794,1315.4Z" transform="translate(-21.136 -276.559)" fill="#14051c"/>
    <path id="Path_29" data-name="Path 29" d="M1623.794,1371.517a1.686,1.686,0,1,1-1.663,1.686A1.674,1.674,0,0,1,1623.794,1371.517Z" transform="translate(-21.136 -301.7)" fill="#14051c"/>
    <path id="Path_30" data-name="Path 30" d="M2048.373,698.124a1.686,1.686,0,1,1-1.664,1.686A1.675,1.675,0,0,1,2048.373,698.124Z" transform="translate(-211.36)" fill="#14051c"/>
    <path id="Path_31" data-name="Path 31" d="M2048.373,754.24a1.686,1.686,0,1,1-1.664,1.686A1.675,1.675,0,0,1,2048.373,754.24Z" transform="translate(-211.36 -25.142)" fill="#14051c"/>
    <path id="Path_32" data-name="Path 32" d="M2048.373,810.356a1.686,1.686,0,1,1-1.664,1.686A1.675,1.675,0,0,1,2048.373,810.356Z" transform="translate(-211.36 -50.283)" fill="#14051c"/>
    <path id="Path_33" data-name="Path 33" d="M2048.373,866.472a1.686,1.686,0,1,1-1.664,1.686A1.675,1.675,0,0,1,2048.373,866.472Z" transform="translate(-211.36 -75.425)" fill="#14051c"/>
    <path id="Path_34" data-name="Path 34" d="M2048.373,922.588a1.686,1.686,0,1,1-1.664,1.686A1.675,1.675,0,0,1,2048.373,922.588Z" transform="translate(-211.36 -100.567)" fill="#14051c"/>
    <path id="Path_35" data-name="Path 35" d="M2048.373,978.7a1.686,1.686,0,1,1-1.664,1.686A1.675,1.675,0,0,1,2048.373,978.7Z" transform="translate(-211.36 -125.708)" fill="#14051c"/>
    <path id="Path_36" data-name="Path 36" d="M2048.373,1034.821a1.686,1.686,0,1,1-1.664,1.685A1.674,1.674,0,0,1,2048.373,1034.821Z" transform="translate(-211.36 -150.85)" fill="#14051c"/>
    <path id="Path_37" data-name="Path 37" d="M2048.373,1090.937a1.686,1.686,0,1,1-1.664,1.685A1.675,1.675,0,0,1,2048.373,1090.937Z" transform="translate(-211.36 -175.992)" fill="#14051c"/>
    <path id="Path_38" data-name="Path 38" d="M2048.373,1147.053a1.686,1.686,0,1,1-1.664,1.685A1.674,1.674,0,0,1,2048.373,1147.053Z" transform="translate(-211.36 -201.134)" fill="#14051c"/>
    <path id="Path_39" data-name="Path 39" d="M2048.373,1203.169a1.686,1.686,0,1,1-1.664,1.686A1.675,1.675,0,0,1,2048.373,1203.169Z" transform="translate(-211.36 -226.275)" fill="#14051c"/>
    <path id="Path_40" data-name="Path 40" d="M2048.373,1259.285a1.686,1.686,0,1,1-1.664,1.686A1.675,1.675,0,0,1,2048.373,1259.285Z" transform="translate(-211.36 -251.417)" fill="#14051c"/>
    <path id="Path_41" data-name="Path 41" d="M2048.373,1315.4a1.686,1.686,0,1,1-1.664,1.686A1.675,1.675,0,0,1,2048.373,1315.4Z" transform="translate(-211.36 -276.559)" fill="#14051c"/>
    <path id="Path_42" data-name="Path 42" d="M2048.373,1371.517a1.686,1.686,0,1,1-1.664,1.686A1.675,1.675,0,0,1,2048.373,1371.517Z" transform="translate(-211.36 -301.7)" fill="#14051c"/>
    <ellipse id="Ellipse_1" data-name="Ellipse 1" cx="1.663" cy="1.686" rx="1.663" ry="1.686" transform="translate(1809.31 698.124)" fill="#14051c"/>
    <path id="Path_43" data-name="Path 43" d="M2001.2,754.24a1.686,1.686,0,1,1-1.663,1.686A1.675,1.675,0,0,1,2001.2,754.24Z" transform="translate(-190.224 -25.142)" fill="#14051c"/>
    <path id="Path_44" data-name="Path 44" d="M2001.2,810.356a1.686,1.686,0,1,1-1.663,1.686A1.675,1.675,0,0,1,2001.2,810.356Z" transform="translate(-190.224 -50.283)" fill="#14051c"/>
    <path id="Path_45" data-name="Path 45" d="M2001.2,866.472a1.686,1.686,0,1,1-1.663,1.686A1.675,1.675,0,0,1,2001.2,866.472Z" transform="translate(-190.224 -75.425)" fill="#14051c"/>
    <ellipse id="Ellipse_2" data-name="Ellipse 2" cx="1.663" cy="1.686" rx="1.663" ry="1.686" transform="translate(1809.31 822.022)" fill="#14051c"/>
    <ellipse id="Ellipse_3" data-name="Ellipse 3" cx="1.663" cy="1.686" rx="1.663" ry="1.686" transform="translate(1809.31 852.996)" fill="#14051c"/>
    <ellipse id="Ellipse_4" data-name="Ellipse 4" cx="1.663" cy="1.686" rx="1.663" ry="1.686" transform="translate(1809.31 883.97)" fill="#14051c"/>
    <ellipse id="Ellipse_5" data-name="Ellipse 5" cx="1.663" cy="1.686" rx="1.663" ry="1.686" transform="translate(1809.31 914.945)" fill="#14051c"/>
    <ellipse id="Ellipse_6" data-name="Ellipse 6" cx="1.663" cy="1.686" rx="1.663" ry="1.686" transform="translate(1809.31 945.919)" fill="#14051c"/>
    <ellipse id="Ellipse_7" data-name="Ellipse 7" cx="1.663" cy="1.686" rx="1.663" ry="1.686" transform="translate(1809.31 976.894)" fill="#14051c"/>
    <ellipse id="Ellipse_8" data-name="Ellipse 8" cx="1.663" cy="1.686" rx="1.663" ry="1.686" transform="translate(1809.31 1007.868)" fill="#14051c"/>
    <path id="Path_46" data-name="Path 46" d="M2001.2,1315.4a1.686,1.686,0,1,1-1.663,1.686A1.675,1.675,0,0,1,2001.2,1315.4Z" transform="translate(-190.224 -276.559)" fill="#14051c"/>
    <path id="Path_47" data-name="Path 47" d="M2001.2,1371.517a1.686,1.686,0,1,1-1.663,1.686A1.675,1.675,0,0,1,2001.2,1371.517Z" transform="translate(-190.224 -301.7)" fill="#14051c"/>
    <path id="Path_48" data-name="Path 48" d="M1954.022,698.124a1.686,1.686,0,1,1-1.664,1.686A1.675,1.675,0,0,1,1954.022,698.124Z" transform="translate(-169.088)" fill="#14051c"/>
    <path id="Path_49" data-name="Path 49" d="M1954.022,754.24a1.686,1.686,0,1,1-1.664,1.686A1.675,1.675,0,0,1,1954.022,754.24Z" transform="translate(-169.088 -25.142)" fill="#14051c"/>
    <path id="Path_50" data-name="Path 50" d="M1954.022,810.356a1.686,1.686,0,1,1-1.664,1.686A1.675,1.675,0,0,1,1954.022,810.356Z" transform="translate(-169.088 -50.283)" fill="#14051c"/>
    <path id="Path_51" data-name="Path 51" d="M1954.022,866.472a1.686,1.686,0,1,1-1.664,1.686A1.675,1.675,0,0,1,1954.022,866.472Z" transform="translate(-169.088 -75.425)" fill="#14051c"/>
    <path id="Path_52" data-name="Path 52" d="M1954.022,922.588a1.686,1.686,0,1,1-1.664,1.686A1.675,1.675,0,0,1,1954.022,922.588Z" transform="translate(-169.088 -100.567)" fill="#14051c"/>
    <path id="Path_53" data-name="Path 53" d="M1954.022,978.7a1.686,1.686,0,1,1-1.664,1.686A1.675,1.675,0,0,1,1954.022,978.7Z" transform="translate(-169.088 -125.708)" fill="#14051c"/>
    <path id="Path_54" data-name="Path 54" d="M1954.022,1034.821a1.686,1.686,0,1,1-1.664,1.685A1.674,1.674,0,0,1,1954.022,1034.821Z" transform="translate(-169.088 -150.85)" fill="#14051c"/>
    <path id="Path_55" data-name="Path 55" d="M1954.022,1090.937a1.686,1.686,0,1,1-1.664,1.685A1.674,1.674,0,0,1,1954.022,1090.937Z" transform="translate(-169.088 -175.992)" fill="#14051c"/>
    <path id="Path_56" data-name="Path 56" d="M1954.022,1147.053a1.686,1.686,0,1,1-1.664,1.685A1.674,1.674,0,0,1,1954.022,1147.053Z" transform="translate(-169.088 -201.134)" fill="#14051c"/>
    <path id="Path_57" data-name="Path 57" d="M1954.022,1203.169a1.686,1.686,0,1,1-1.664,1.686A1.675,1.675,0,0,1,1954.022,1203.169Z" transform="translate(-169.088 -226.275)" fill="#14051c"/>
    <path id="Path_58" data-name="Path 58" d="M1954.022,1259.285a1.686,1.686,0,1,1-1.664,1.686A1.675,1.675,0,0,1,1954.022,1259.285Z" transform="translate(-169.088 -251.417)" fill="#14051c"/>
    <path id="Path_59" data-name="Path 59" d="M1954.022,1315.4a1.686,1.686,0,1,1-1.664,1.686A1.675,1.675,0,0,1,1954.022,1315.4Z" transform="translate(-169.088 -276.559)" fill="#14051c"/>
    <path id="Path_60" data-name="Path 60" d="M1954.022,1371.517a1.686,1.686,0,1,1-1.664,1.686A1.675,1.675,0,0,1,1954.022,1371.517Z" transform="translate(-169.088 -301.7)" fill="#14051c"/>
    <path id="Path_61" data-name="Path 61" d="M1906.846,1315.4a1.686,1.686,0,1,1-1.663,1.686A1.674,1.674,0,0,1,1906.846,1315.4Z" transform="translate(-147.952 -276.559)" fill="#14051c"/>
    <path id="Path_62" data-name="Path 62" d="M1906.846,1371.517a1.686,1.686,0,1,1-1.663,1.686A1.674,1.674,0,0,1,1906.846,1371.517Z" transform="translate(-147.952 -301.7)" fill="#14051c"/>
    <path id="Path_63" data-name="Path 63" d="M1859.671,1315.4a1.686,1.686,0,1,1-1.663,1.686A1.674,1.674,0,0,1,1859.671,1315.4Z" transform="translate(-126.816 -276.559)" fill="#14051c"/>
    <path id="Path_64" data-name="Path 64" d="M1859.671,1371.517a1.686,1.686,0,1,1-1.663,1.686A1.674,1.674,0,0,1,1859.671,1371.517Z" transform="translate(-126.816 -301.7)" fill="#14051c"/>
    <path id="Path_65" data-name="Path 65" d="M1576.619,1315.4a1.686,1.686,0,1,1-1.664,1.686A1.674,1.674,0,0,1,1576.619,1315.4Z" transform="translate(0 -276.559)" fill="#14051c"/>
    <path id="Path_66" data-name="Path 66" d="M1576.619,1371.517a1.686,1.686,0,1,1-1.664,1.686A1.674,1.674,0,0,1,1576.619,1371.517Z" transform="translate(0 -301.7)" fill="#14051c"/>
  </g>
  <g id="Group_16" data-name="Group 16" transform="translate(0)">
    <path id="Path_20-2" data-name="Path 20" d="M1812.5,1318.772a1.686,1.686,0,1,1,1.664-1.686A1.674,1.674,0,0,1,1812.5,1318.772Z" transform="translate(-1680.635 -1284.426)" fill="#14051c"/>
    <path id="Path_21-2" data-name="Path 21" d="M1812.5,1374.888a1.686,1.686,0,1,1,1.664-1.686A1.674,1.674,0,0,1,1812.5,1374.888Z" transform="translate(-1680.635 -1371.517)" fill="#14051c"/>
    <path id="Path_22-2" data-name="Path 22" d="M1765.32,1318.772a1.686,1.686,0,1,1,1.663-1.686A1.674,1.674,0,0,1,1765.32,1318.772Z" transform="translate(-1607.42 -1284.426)" fill="#14051c"/>
    <path id="Path_23-2" data-name="Path 23" d="M1765.32,1374.888a1.686,1.686,0,1,1,1.663-1.686A1.674,1.674,0,0,1,1765.32,1374.888Z" transform="translate(-1607.42 -1371.517)" fill="#14051c"/>
    <path id="Path_24-2" data-name="Path 24" d="M1718.144,1318.772a1.686,1.686,0,1,1,1.664-1.686A1.675,1.675,0,0,1,1718.144,1318.772Z" transform="translate(-1534.205 -1284.426)" fill="#14051c"/>
    <path id="Path_25-2" data-name="Path 25" d="M1718.144,1374.888a1.686,1.686,0,1,1,1.664-1.686A1.675,1.675,0,0,1,1718.144,1374.888Z" transform="translate(-1534.205 -1371.517)" fill="#14051c"/>
    <path id="Path_26-2" data-name="Path 26" d="M1670.969,1318.772a1.686,1.686,0,1,1,1.663-1.686A1.674,1.674,0,0,1,1670.969,1318.772Z" transform="translate(-1460.99 -1284.426)" fill="#14051c"/>
    <path id="Path_27-2" data-name="Path 27" d="M1670.969,1374.888a1.686,1.686,0,1,1,1.663-1.686A1.674,1.674,0,0,1,1670.969,1374.888Z" transform="translate(-1460.99 -1371.517)" fill="#14051c"/>
    <path id="Path_28-2" data-name="Path 28" d="M1623.794,1318.772a1.686,1.686,0,1,1,1.663-1.686A1.674,1.674,0,0,1,1623.794,1318.772Z" transform="translate(-1387.776 -1284.426)" fill="#14051c"/>
    <path id="Path_29-2" data-name="Path 29" d="M1623.794,1374.888a1.686,1.686,0,1,1,1.663-1.686A1.674,1.674,0,0,1,1623.794,1374.888Z" transform="translate(-1387.776 -1371.517)" fill="#14051c"/>
    <path id="Path_30-2" data-name="Path 30" d="M2048.373,701.5a1.686,1.686,0,1,1,1.664-1.686A1.675,1.675,0,0,1,2048.373,701.5Z" transform="translate(-2046.709 -326.431)" fill="#14051c"/>
    <path id="Path_31-2" data-name="Path 31" d="M2048.373,757.611a1.686,1.686,0,1,1,1.664-1.686A1.675,1.675,0,0,1,2048.373,757.611Z" transform="translate(-2046.709 -413.522)" fill="#14051c"/>
    <path id="Path_32-2" data-name="Path 32" d="M2048.373,813.728a1.686,1.686,0,1,1,1.664-1.686A1.675,1.675,0,0,1,2048.373,813.728Z" transform="translate(-2046.709 -500.612)" fill="#14051c"/>
    <path id="Path_33-2" data-name="Path 33" d="M2048.373,869.843a1.686,1.686,0,1,1,1.664-1.686A1.675,1.675,0,0,1,2048.373,869.843Z" transform="translate(-2046.709 -587.703)" fill="#14051c"/>
    <path id="Path_34-2" data-name="Path 34" d="M2048.373,925.959a1.686,1.686,0,1,1,1.664-1.686A1.675,1.675,0,0,1,2048.373,925.959Z" transform="translate(-2046.709 -674.793)" fill="#14051c"/>
    <path id="Path_35-2" data-name="Path 35" d="M2048.373,982.075a1.686,1.686,0,1,1,1.664-1.686A1.675,1.675,0,0,1,2048.373,982.075Z" transform="translate(-2046.709 -761.883)" fill="#14051c"/>
    <path id="Path_36-2" data-name="Path 36" d="M2048.373,1038.192a1.686,1.686,0,1,1,1.664-1.685A1.674,1.674,0,0,1,2048.373,1038.192Z" transform="translate(-2046.709 -848.975)" fill="#14051c"/>
    <path id="Path_37-2" data-name="Path 37" d="M2048.373,1094.308a1.686,1.686,0,1,1,1.664-1.685A1.675,1.675,0,0,1,2048.373,1094.308Z" transform="translate(-2046.709 -936.065)" fill="#14051c"/>
    <path id="Path_38-2" data-name="Path 38" d="M2048.373,1150.424a1.686,1.686,0,1,1,1.664-1.685A1.674,1.674,0,0,1,2048.373,1150.424Z" transform="translate(-2046.709 -1023.155)" fill="#14051c"/>
    <path id="Path_39-2" data-name="Path 39" d="M2048.373,1206.54a1.686,1.686,0,1,1,1.664-1.686A1.675,1.675,0,0,1,2048.373,1206.54Z" transform="translate(-2046.709 -1110.246)" fill="#14051c"/>
    <path id="Path_40-2" data-name="Path 40" d="M2048.373,1262.656a1.686,1.686,0,1,1,1.664-1.686A1.675,1.675,0,0,1,2048.373,1262.656Z" transform="translate(-2046.709 -1197.336)" fill="#14051c"/>
    <path id="Path_41-2" data-name="Path 41" d="M2048.373,1318.772a1.686,1.686,0,1,1,1.664-1.686A1.675,1.675,0,0,1,2048.373,1318.772Z" transform="translate(-2046.709 -1284.426)" fill="#14051c"/>
    <path id="Path_42-2" data-name="Path 42" d="M2048.373,1374.888a1.686,1.686,0,1,1,1.664-1.686A1.675,1.675,0,0,1,2048.373,1374.888Z" transform="translate(-2046.709 -1371.517)" fill="#14051c"/>
    <ellipse id="Ellipse_1-2" data-name="Ellipse 1" cx="1.663" cy="1.686" rx="1.663" ry="1.686" transform="translate(26.04 371.692)" fill="#14051c"/>
    <path id="Path_43-2" data-name="Path 43" d="M2001.2,757.611a1.686,1.686,0,1,1,1.663-1.686A1.675,1.675,0,0,1,2001.2,757.611Z" transform="translate(-1973.494 -413.522)" fill="#14051c"/>
    <path id="Path_44-2" data-name="Path 44" d="M2001.2,813.728a1.686,1.686,0,1,1,1.663-1.686A1.675,1.675,0,0,1,2001.2,813.728Z" transform="translate(-1973.494 -500.612)" fill="#14051c"/>
    <path id="Path_45-2" data-name="Path 45" d="M2001.2,869.843a1.686,1.686,0,1,1,1.663-1.686A1.675,1.675,0,0,1,2001.2,869.843Z" transform="translate(-1973.494 -587.703)" fill="#14051c"/>
    <ellipse id="Ellipse_2-2" data-name="Ellipse 2" cx="1.663" cy="1.686" rx="1.663" ry="1.686" transform="translate(26.04 247.795)" fill="#14051c"/>
    <ellipse id="Ellipse_3-2" data-name="Ellipse 3" cx="1.663" cy="1.686" rx="1.663" ry="1.686" transform="translate(26.04 216.821)" fill="#14051c"/>
    <ellipse id="Ellipse_4-2" data-name="Ellipse 4" cx="1.663" cy="1.686" rx="1.663" ry="1.686" transform="translate(26.04 185.846)" fill="#14051c"/>
    <ellipse id="Ellipse_5-2" data-name="Ellipse 5" cx="1.663" cy="1.686" rx="1.663" ry="1.686" transform="translate(26.04 154.872)" fill="#14051c"/>
    <ellipse id="Ellipse_6-2" data-name="Ellipse 6" cx="1.663" cy="1.686" rx="1.663" ry="1.686" transform="translate(26.04 123.898)" fill="#14051c"/>
    <ellipse id="Ellipse_7-2" data-name="Ellipse 7" cx="1.663" cy="1.686" rx="1.663" ry="1.686" transform="translate(26.04 92.923)" fill="#14051c"/>
    <ellipse id="Ellipse_8-2" data-name="Ellipse 8" cx="1.663" cy="1.686" rx="1.663" ry="1.686" transform="translate(26.04 61.949)" fill="#14051c"/>
    <path id="Path_46-2" data-name="Path 46" d="M2001.2,1318.772a1.686,1.686,0,1,1,1.663-1.686A1.675,1.675,0,0,1,2001.2,1318.772Z" transform="translate(-1973.494 -1284.426)" fill="#14051c"/>
    <path id="Path_47-2" data-name="Path 47" d="M2001.2,1374.888a1.686,1.686,0,1,1,1.663-1.686A1.675,1.675,0,0,1,2001.2,1374.888Z" transform="translate(-1973.494 -1371.517)" fill="#14051c"/>
    <path id="Path_48-2" data-name="Path 48" d="M1954.021,701.5a1.686,1.686,0,1,1,1.664-1.686A1.675,1.675,0,0,1,1954.021,701.5Z" transform="translate(-1900.279 -326.431)" fill="#14051c"/>
    <path id="Path_49-2" data-name="Path 49" d="M1954.021,757.611a1.686,1.686,0,1,1,1.664-1.686A1.675,1.675,0,0,1,1954.021,757.611Z" transform="translate(-1900.279 -413.522)" fill="#14051c"/>
    <path id="Path_50-2" data-name="Path 50" d="M1954.021,813.728a1.686,1.686,0,1,1,1.664-1.686A1.675,1.675,0,0,1,1954.021,813.728Z" transform="translate(-1900.279 -500.612)" fill="#14051c"/>
    <path id="Path_51-2" data-name="Path 51" d="M1954.021,869.843a1.686,1.686,0,1,1,1.664-1.686A1.675,1.675,0,0,1,1954.021,869.843Z" transform="translate(-1900.279 -587.703)" fill="#14051c"/>
    <path id="Path_52-2" data-name="Path 52" d="M1954.021,925.959a1.686,1.686,0,1,1,1.664-1.686A1.675,1.675,0,0,1,1954.021,925.959Z" transform="translate(-1900.279 -674.793)" fill="#14051c"/>
    <path id="Path_53-2" data-name="Path 53" d="M1954.021,982.075a1.686,1.686,0,1,1,1.664-1.686A1.675,1.675,0,0,1,1954.021,982.075Z" transform="translate(-1900.279 -761.883)" fill="#14051c"/>
    <path id="Path_54-2" data-name="Path 54" d="M1954.021,1038.192a1.686,1.686,0,1,1,1.664-1.685A1.674,1.674,0,0,1,1954.021,1038.192Z" transform="translate(-1900.279 -848.975)" fill="#14051c"/>
    <path id="Path_55-2" data-name="Path 55" d="M1954.021,1094.308a1.686,1.686,0,1,1,1.664-1.685A1.674,1.674,0,0,1,1954.021,1094.308Z" transform="translate(-1900.279 -936.065)" fill="#14051c"/>
    <path id="Path_56-2" data-name="Path 56" d="M1954.021,1150.424a1.686,1.686,0,1,1,1.664-1.685A1.674,1.674,0,0,1,1954.021,1150.424Z" transform="translate(-1900.279 -1023.155)" fill="#14051c"/>
    <path id="Path_57-2" data-name="Path 57" d="M1954.021,1206.54a1.686,1.686,0,1,1,1.664-1.686A1.675,1.675,0,0,1,1954.021,1206.54Z" transform="translate(-1900.279 -1110.246)" fill="#14051c"/>
    <path id="Path_58-2" data-name="Path 58" d="M1954.021,1262.656a1.686,1.686,0,1,1,1.664-1.686A1.675,1.675,0,0,1,1954.021,1262.656Z" transform="translate(-1900.279 -1197.336)" fill="#14051c"/>
    <path id="Path_59-2" data-name="Path 59" d="M1954.021,1318.772a1.686,1.686,0,1,1,1.664-1.686A1.675,1.675,0,0,1,1954.021,1318.772Z" transform="translate(-1900.279 -1284.426)" fill="#14051c"/>
    <path id="Path_60-2" data-name="Path 60" d="M1954.021,1374.888a1.686,1.686,0,1,1,1.664-1.686A1.675,1.675,0,0,1,1954.021,1374.888Z" transform="translate(-1900.279 -1371.517)" fill="#14051c"/>
    <path id="Path_61-2" data-name="Path 61" d="M1906.846,1318.772a1.686,1.686,0,1,1,1.663-1.686A1.674,1.674,0,0,1,1906.846,1318.772Z" transform="translate(-1827.064 -1284.426)" fill="#14051c"/>
    <path id="Path_62-2" data-name="Path 62" d="M1906.846,1374.888a1.686,1.686,0,1,1,1.663-1.686A1.674,1.674,0,0,1,1906.846,1374.888Z" transform="translate(-1827.064 -1371.517)" fill="#14051c"/>
    <path id="Path_63-2" data-name="Path 63" d="M1859.671,1318.772a1.686,1.686,0,1,1,1.663-1.686A1.674,1.674,0,0,1,1859.671,1318.772Z" transform="translate(-1753.85 -1284.426)" fill="#14051c"/>
    <path id="Path_64-2" data-name="Path 64" d="M1859.671,1374.888a1.686,1.686,0,1,1,1.663-1.686A1.674,1.674,0,0,1,1859.671,1374.888Z" transform="translate(-1753.85 -1371.517)" fill="#14051c"/>
    <path id="Path_65-2" data-name="Path 65" d="M1576.618,1318.772a1.686,1.686,0,1,1,1.664-1.686A1.674,1.674,0,0,1,1576.618,1318.772Z" transform="translate(-1314.561 -1284.426)" fill="#14051c"/>
    <path id="Path_66-2" data-name="Path 66" d="M1576.618,1374.888a1.686,1.686,0,1,1,1.664-1.686A1.674,1.674,0,0,1,1576.618,1374.888Z" transform="translate(-1314.561 -1371.517)" fill="#14051c"/>
  </g>
</svg>
